{"glyphs":{"0":{"ha":868,"x_min":0,"x_max":868,"o":"m 0 694 q 127 1001 5 879 l 127 1001 q 434 1128 250 1123 q 741 1001 618 1123 q 868 694 863 879 l 868 347 q 741 41 863 163 q 434 -87 618 -81 q 127 41 250 -81 q 0 347 5 163 l 0 694 l 0 694 m 434 955 q 250 879 323 952 l 250 879 q 174 694 176 806 l 174 347 q 250 163 176 236 q 434 87 323 90 q 618 163 545 90 q 694 347 692 236 l 694 694 q 618 879 692 806 q 434 955 545 952 l 434 955 z "},"1":{"ha":694,"x_min":0,"x_max":694,"o":"m 434 1042 q 388 1118 431 1093 q 298 1115 342 1142 l 38 941 q 3 884 8 920 q 14 819 -5 852 q 71 784 35 789 q 136 795 103 776 l 260 879 l 260 87 l 87 87 q 24 62 49 87 q 0 0 0 38 q 24 -62 0 -38 q 87 -87 49 -87 l 347 -87 l 608 -87 q 670 -62 646 -87 q 694 0 694 -38 q 670 62 694 38 q 608 87 646 87 l 434 87 l 434 1042 l 434 1042 z "},"2":{"ha":868,"x_min":0,"x_max":868,"o":"m 388 955 q 231 890 296 955 l 149 806 q 87 781 122 781 q 24 806 52 781 q 0 868 0 833 q 24 930 0 903 l 109 1012 q 388 1128 225 1126 q 665 1012 556 1123 q 781 735 776 903 q 667 456 779 572 l 296 87 l 781 87 q 844 62 819 87 q 868 0 868 38 q 844 -62 868 -38 q 781 -87 819 -87 l 87 -87 q 5 -33 30 -84 q 24 62 -14 19 l 543 578 q 608 735 605 643 q 543 890 605 827 q 388 955 480 952 l 388 955 z "},"3":{"ha":1215,"x_min":174,"x_max":1042,"o":"m 174 1042 q 198 1104 174 1080 l 198 1104 q 260 1128 222 1128 l 911 1128 q 993 1074 968 1126 q 971 977 1012 1017 l 613 651 l 673 651 q 933 543 830 648 q 1042 282 1039 439 q 933 22 1039 125 q 673 -87 830 -84 l 458 -87 q 301 -41 372 -87 q 187 81 228 3 l 182 92 q 179 157 168 125 q 222 209 190 190 q 288 212 255 222 q 339 168 320 201 l 342 157 q 458 87 380 90 l 673 87 q 811 144 757 90 q 868 282 865 198 q 811 420 865 366 q 673 477 757 475 l 391 477 q 309 532 334 480 q 331 629 290 589 l 689 955 l 260 955 q 198 979 222 955 q 174 1042 174 1004 l 174 1042 z "},"4":{"ha":1042,"x_min":0,"x_max":1042,"o":"m 513 1004 q 515 1072 526 1039 l 515 1072 q 472 1120 505 1104 q 404 1123 437 1134 q 355 1080 372 1112 l 8 342 q 14 258 -11 298 q 87 217 41 217 l 694 217 l 694 0 q 719 -62 694 -38 q 781 -87 743 -87 q 844 -62 819 -87 q 868 0 868 -38 l 868 217 l 955 217 q 1017 241 993 217 q 1042 304 1042 266 q 1017 366 1042 342 q 955 391 993 391 l 868 391 l 868 781 q 844 844 868 819 q 781 868 819 868 q 719 844 743 868 q 694 781 694 819 l 694 391 l 222 391 l 513 1004 l 513 1004 z "},"5":{"ha":868,"x_min":0,"x_max":868,"o":"m 90 1058 q 174 1128 106 1123 l 694 1128 q 757 1104 732 1128 q 781 1042 781 1080 q 757 979 781 1004 q 694 955 732 955 l 247 955 l 190 651 l 499 651 q 760 543 656 648 q 868 282 865 439 q 760 22 865 125 q 499 -87 656 -84 l 274 -87 q 125 -43 190 -87 q 22 68 57 -3 l 8 92 q 5 157 -5 125 q 49 209 16 190 q 114 212 81 222 q 165 168 146 201 l 176 146 q 274 87 206 90 l 499 87 q 637 144 583 90 q 694 282 692 198 q 637 420 692 366 q 499 477 583 475 l 87 477 q 19 507 46 477 q 0 581 -5 540 l 90 1058 l 90 1058 z "},"6":{"ha":868,"x_min":0,"x_max":868,"o":"m 629 985 q 651 1050 654 1015 l 651 1050 q 621 1107 648 1082 q 556 1128 591 1131 q 499 1099 524 1126 l 106 632 q 0 361 5 515 q 0 355 0 358 q 0 347 0 353 q 0 347 0 347 q 0 347 0 347 q 127 41 5 163 q 434 -87 250 -81 q 741 41 618 -81 q 868 347 863 163 q 749 646 863 526 q 458 781 632 768 l 629 985 l 629 985 m 174 347 q 250 532 176 458 l 250 532 q 434 608 323 605 q 618 532 545 605 q 694 347 692 458 q 618 163 692 236 q 434 87 545 90 q 250 163 323 90 q 174 347 176 236 l 174 347 z "},"7":{"ha":868,"x_min":0,"x_max":868,"o":"m 0 1042 q 24 1104 0 1080 l 24 1104 q 87 1128 49 1128 l 781 1128 q 857 1085 830 1126 q 857 998 879 1042 l 250 -43 q 195 -84 228 -76 q 130 -76 163 -92 q 90 -22 98 -57 q 98 43 81 11 l 629 955 l 87 955 q 24 979 49 955 q 0 1042 0 1004 l 0 1042 z "},"8":{"ha":868,"x_min":0,"x_max":868,"o":"m 825 781 q 724 1028 822 928 l 724 1028 q 477 1128 624 1126 l 391 1128 q 144 1028 244 1126 q 43 781 46 928 q 141 540 46 637 q 38 420 76 491 q 0 260 0 347 q 100 14 3 114 q 347 -87 201 -84 l 521 -87 q 768 14 667 -84 q 868 260 865 114 q 830 420 868 347 q 727 540 792 491 q 825 781 822 637 l 825 781 m 477 434 l 521 434 q 643 382 594 431 q 694 260 692 334 q 643 138 692 187 q 521 87 594 90 l 347 87 q 225 138 274 90 q 174 260 176 187 q 225 382 176 334 q 347 434 274 431 l 391 434 q 391 434 391 434 q 391 434 391 434 l 477 434 q 477 434 477 434 q 477 434 477 434 l 477 434 m 477 608 q 477 608 477 608 l 477 608 q 477 608 477 608 l 391 608 q 391 608 391 608 q 391 608 391 608 q 269 659 317 610 q 217 781 220 708 q 269 903 220 854 q 391 955 317 952 l 477 955 q 600 903 551 952 q 651 781 648 854 q 600 659 648 708 q 477 608 551 610 l 477 608 z "},"9":{"ha":868,"x_min":0,"x_max":868,"o":"m 174 694 q 250 510 176 583 l 250 510 q 434 434 323 437 q 618 510 545 437 q 694 694 692 583 q 618 879 692 806 q 434 955 545 952 q 250 879 323 952 q 174 694 176 806 l 174 694 m 412 260 q 119 396 236 274 l 119 396 q 0 694 5 515 q 127 1001 5 879 q 434 1128 250 1123 q 741 1001 618 1123 q 868 694 863 879 q 868 673 868 684 q 762 410 860 524 l 369 -57 q 312 -87 345 -84 q 247 -65 277 -90 q 217 -8 220 -41 q 236 57 214 27 l 410 260 l 412 260 z "},"!":{"ha":347,"x_min":65,"x_max":282,"o":"m 260 1042 q 236 1104 260 1080 l 236 1104 q 174 1128 212 1128 q 111 1104 136 1128 q 87 1042 87 1080 l 87 347 q 111 285 87 309 q 174 260 136 260 q 236 285 212 260 q 260 347 260 309 l 260 1042 l 260 1042 m 174 -87 q 250 -54 220 -87 l 250 -54 q 282 22 282 -24 q 250 98 282 68 q 174 130 220 130 q 98 98 127 130 q 65 22 65 68 q 98 -54 65 -24 q 174 -87 127 -87 l 174 -87 z "},"#":{"ha":1215,"x_min":0,"x_max":1215,"o":"m 491 1128 q 548 1093 529 1120 l 548 1093 q 564 1028 567 1063 l 537 868 l 795 868 l 825 1055 q 860 1112 833 1093 q 925 1128 890 1131 q 982 1093 963 1120 q 996 1028 1001 1063 l 971 868 l 1128 868 q 1191 844 1166 868 q 1215 781 1215 819 q 1191 719 1215 743 q 1128 694 1166 694 l 941 694 l 884 347 l 1042 347 q 1104 323 1080 347 q 1128 260 1128 298 q 1104 198 1128 222 q 1042 174 1080 174 l 854 174 l 825 -14 q 789 -71 817 -52 q 724 -87 760 -90 q 667 -52 686 -79 q 654 14 648 -22 l 678 174 l 420 174 l 391 -14 q 355 -71 382 -52 q 290 -87 326 -92 q 233 -52 252 -79 q 220 14 214 -22 l 244 174 l 87 174 q 24 198 49 174 q 0 260 0 222 q 24 323 0 298 q 87 347 49 347 l 274 347 l 331 694 l 174 694 q 111 719 136 694 q 87 781 87 743 q 111 844 87 819 q 174 868 136 868 l 361 868 l 391 1055 q 426 1112 399 1093 q 491 1128 456 1131 l 491 1128 m 507 694 l 450 347 l 708 347 l 765 694 l 507 694 l 507 694 z "},"$":{"ha":868,"x_min":41,"x_max":825,"o":"m 434 1215 q 496 1191 472 1215 l 496 1191 q 521 1128 521 1166 l 521 1031 q 534 1031 526 1031 q 605 1017 559 1025 q 684 1004 654 1009 q 735 963 719 993 q 746 898 754 933 q 705 844 735 863 q 640 833 675 827 q 575 846 618 838 q 507 857 534 854 q 296 844 374 876 q 220 768 225 814 q 222 713 214 727 q 258 675 231 697 q 456 605 326 635 l 464 602 q 589 564 524 586 q 705 507 651 543 q 803 401 765 472 q 819 241 836 328 q 757 111 803 163 q 640 33 708 60 q 521 3 586 11 l 521 -87 q 496 -149 521 -125 q 434 -174 472 -174 q 372 -149 396 -174 q 347 -87 347 -125 l 347 8 q 345 8 347 8 q 345 8 345 8 l 342 8 l 342 8 q 222 35 290 16 q 95 79 152 54 q 49 127 62 95 q 52 195 35 160 q 98 239 68 228 q 165 239 130 252 q 269 203 209 220 q 369 179 326 187 q 575 193 502 163 q 648 271 643 222 q 646 328 654 315 q 610 363 637 345 q 410 437 543 404 l 404 439 q 279 477 345 453 q 163 532 214 499 q 65 640 100 570 q 49 800 33 713 q 114 930 65 879 q 233 1006 165 982 q 347 1034 288 1028 l 347 1128 q 372 1191 347 1166 q 434 1215 396 1215 l 434 1215 z "},"%":{"ha":1042,"x_min":0,"x_max":1042,"o":"m 1017 892 q 1042 955 1042 920 l 1042 955 q 1017 1017 1042 990 q 955 1042 990 1042 q 892 1017 920 1042 l 24 149 q 0 87 0 122 q 24 24 0 52 q 87 0 52 0 q 149 24 122 0 l 1017 892 l 1017 892 m 347 868 q 296 990 345 941 l 296 990 q 174 1042 247 1039 q 52 990 100 1039 q 0 868 3 941 q 52 746 3 795 q 174 694 100 697 q 296 746 247 697 q 347 868 345 795 l 347 868 m 1042 174 q 990 296 1039 247 l 990 296 q 868 347 941 345 q 746 296 795 345 q 694 174 697 247 q 746 52 697 100 q 868 0 795 3 q 990 52 941 3 q 1042 174 1039 100 l 1042 174 z "},"*":{"ha":1042,"x_min":0,"x_max":1042,"o":"m 521 1128 q 583 1104 559 1128 l 583 1104 q 608 1042 608 1080 l 608 673 l 911 854 q 977 865 941 873 q 1028 825 1009 857 q 1039 760 1047 795 q 998 705 1031 727 l 689 521 l 1001 334 q 1039 282 1031 315 q 1031 214 1047 247 q 977 176 1009 184 q 911 184 941 168 l 608 366 l 608 0 q 583 -62 608 -38 q 521 -87 559 -87 q 458 -62 483 -87 q 434 0 434 -38 l 434 366 l 133 187 q 65 176 100 168 q 14 217 33 184 q 3 282 -5 247 q 43 334 11 315 l 353 521 l 43 708 q 3 760 11 727 q 14 825 -5 795 q 65 865 33 857 q 130 854 100 873 l 434 673 l 434 1042 q 458 1104 434 1080 q 521 1128 483 1128 l 521 1128 z "},"+":{"ha":1215,"x_min":43,"x_max":1172,"o":"m 694 998 q 670 1061 694 1036 l 670 1061 q 608 1085 646 1085 q 545 1061 570 1085 q 521 998 521 1036 l 521 608 l 130 608 q 68 583 92 608 q 43 521 43 559 q 68 458 43 483 q 130 434 92 434 l 521 434 l 521 43 q 545 -19 521 5 q 608 -43 570 -43 q 670 -19 646 -43 q 694 43 694 5 l 694 434 l 1085 434 q 1147 458 1123 434 q 1172 521 1172 483 q 1147 583 1172 559 q 1085 608 1123 608 l 694 608 l 694 998 l 694 998 z "},"<":{"ha":1042,"x_min":0,"x_max":1039,"o":"m 1034 993 q 1036 928 1047 960 l 1036 928 q 993 876 1025 895 l 282 521 l 993 165 q 1036 114 1025 146 q 1034 49 1047 81 q 982 5 1015 16 q 917 8 949 -5 l 49 442 q 0 521 3 469 q 49 600 3 572 l 917 1034 q 982 1036 949 1047 q 1034 993 1015 1025 l 1034 993 z "},"=":{"ha":1215,"x_min":43,"x_max":1172,"o":"m 130 868 q 68 844 92 868 l 68 844 q 43 781 43 819 q 68 719 43 743 q 130 694 92 694 l 1085 694 q 1147 719 1123 694 q 1172 781 1172 743 q 1147 844 1172 819 q 1085 868 1123 868 l 130 868 l 130 868 m 130 347 q 68 323 92 347 l 68 323 q 43 260 43 298 q 68 198 43 222 q 130 174 92 174 l 1085 174 q 1147 198 1123 174 q 1172 260 1172 222 q 1147 323 1172 298 q 1085 347 1123 347 l 130 347 l 130 347 z "},">":{"ha":1042,"x_min":0,"x_max":1042,"o":"m 8 993 q 5 928 -5 960 l 5 928 q 49 876 16 895 l 762 521 l 49 165 q 5 114 16 146 q 8 49 -5 81 q 60 5 27 16 q 125 8 92 -5 l 993 442 q 1042 521 1039 469 q 993 600 1039 572 l 125 1034 q 60 1036 92 1047 q 8 993 27 1025 l 8 993 z "},"?":{"ha":868,"x_min":0,"x_max":868,"o":"m 260 955 q 198 930 222 955 l 198 930 q 174 868 174 906 q 149 806 174 830 q 87 781 125 781 q 24 806 49 781 q 0 868 0 830 q 76 1053 3 979 q 260 1128 149 1126 l 524 1128 q 768 1028 670 1126 q 868 784 865 930 q 808 589 868 675 q 648 464 749 505 l 477 396 l 477 347 q 453 285 477 309 q 391 260 429 260 q 328 285 353 260 q 304 347 304 309 l 304 396 q 334 494 304 450 q 415 559 363 537 l 586 624 q 665 686 635 646 q 694 784 694 730 q 646 906 692 857 q 524 955 597 952 l 260 955 l 260 955 m 391 -87 q 315 -54 345 -87 l 315 -54 q 282 22 282 -24 q 315 98 282 68 q 391 130 345 130 q 467 98 437 130 q 499 22 499 68 q 467 -54 499 -24 q 391 -87 437 -87 l 391 -87 z "},"@":{"ha":1389,"x_min":0,"x_max":1389,"o":"m 694 1042 q 326 890 472 1036 l 326 890 q 174 521 179 743 q 326 152 179 298 q 694 0 472 5 q 757 -24 732 0 q 781 -87 781 -49 q 757 -149 781 -125 q 694 -174 732 -174 q 345 -79 499 -171 q 95 171 187 14 q 0 521 3 326 q 95 871 3 716 q 345 1120 187 1028 q 694 1215 499 1213 q 1044 1120 890 1213 q 1294 871 1202 1028 q 1389 521 1386 716 l 1389 434 q 1313 250 1386 323 q 1128 174 1240 176 q 930 266 1006 176 q 694 174 833 176 q 448 274 548 176 q 347 521 350 374 q 448 768 350 667 q 694 868 548 865 q 898 803 811 865 q 955 825 920 825 q 1017 800 993 825 q 1042 738 1042 776 l 1042 521 l 1042 434 q 1066 372 1042 396 q 1128 347 1090 347 q 1191 372 1166 347 q 1215 434 1215 396 l 1215 521 q 1063 890 1210 743 q 694 1042 917 1036 l 694 1042 m 868 521 q 817 643 865 594 l 817 643 q 694 694 768 692 q 572 643 621 692 q 521 521 524 594 q 572 399 524 448 q 694 347 621 350 q 817 399 768 350 q 868 521 865 448 l 868 521 z "},"A":{"ha":1215,"x_min":87,"x_max":1128,"o":"m 689 1074 q 608 1128 665 1126 q 529 1074 551 1126 l 203 293 l 95 33 q 92 -33 81 0 q 141 -81 106 -65 q 206 -81 174 -92 q 255 -33 239 -68 l 339 174 l 876 174 l 963 -33 q 1009 -81 977 -68 q 1074 -81 1042 -92 q 1123 -33 1109 -65 q 1123 33 1134 0 l 1015 293 l 689 1074 l 689 1074 m 803 347 l 412 347 l 608 817 l 803 347 l 803 347 z "},"B":{"ha":868,"x_min":0,"x_max":868,"o":"m 87 1128 q 24 1104 49 1128 l 24 1104 q 0 1042 0 1080 l 0 521 l 0 0 q 24 -62 0 -38 q 87 -87 49 -87 l 521 -87 q 768 14 667 -84 q 868 260 865 114 q 822 434 868 355 q 700 559 776 513 q 781 781 779 651 q 681 1028 779 928 q 434 1128 581 1126 l 87 1128 l 87 1128 m 434 608 l 174 608 l 174 955 l 434 955 q 556 903 507 952 q 608 781 605 854 q 556 659 605 708 q 434 608 507 610 l 434 608 m 174 434 l 434 434 l 521 434 q 643 382 594 431 q 694 260 692 334 q 643 138 692 187 q 521 87 594 90 l 174 87 l 174 434 l 174 434 z "},"C":{"ha":1042,"x_min":0,"x_max":1042,"o":"m 892 827 q 597 955 760 955 l 597 955 q 301 827 434 955 q 174 521 174 694 q 301 214 174 347 q 597 87 434 87 q 892 214 760 87 q 955 239 920 239 q 1015 214 990 239 q 1042 152 1042 187 q 1015 90 1042 117 q 597 -87 830 -87 q 179 90 363 -87 q 19 366 60 212 q 19 675 -19 521 q 179 949 60 830 q 597 1128 363 1128 q 1015 949 830 1128 q 1042 890 1042 922 q 1015 827 1042 854 q 955 803 990 803 q 892 827 920 803 l 892 827 z "},"D":{"ha":1042,"x_min":0,"x_max":1042,"o":"m 0 1042 q 24 1104 0 1080 l 24 1104 q 87 1128 49 1128 l 434 1128 q 741 1044 605 1126 q 958 827 879 966 q 1042 521 1039 692 q 958 214 1039 350 q 741 -3 879 76 q 434 -87 605 -84 l 87 -87 q 24 -62 49 -87 q 0 0 0 -38 l 0 1042 l 0 1042 m 174 955 l 174 87 l 434 87 q 741 214 618 92 q 868 521 863 336 q 741 827 863 705 q 434 955 618 949 l 174 955 l 174 955 z "},"E":{"ha":868,"x_min":0,"x_max":868,"o":"m 87 1128 q 24 1104 49 1128 l 24 1104 q 0 1042 0 1080 l 0 521 l 0 0 q 24 -62 0 -38 q 87 -87 49 -87 l 781 -87 q 844 -62 819 -87 q 868 0 868 -38 q 844 62 868 38 q 781 87 819 87 l 174 87 l 174 434 l 608 434 q 670 458 646 434 q 694 521 694 483 q 670 583 694 559 q 608 608 646 608 l 174 608 l 174 955 l 781 955 q 844 979 819 955 q 868 1042 868 1004 q 844 1104 868 1080 q 781 1128 819 1128 l 87 1128 l 87 1128 z "},"F":{"ha":868,"x_min":0,"x_max":868,"o":"m 87 1128 q 24 1104 49 1128 l 24 1104 q 0 1042 0 1080 l 0 521 l 0 0 q 24 -62 0 -38 q 87 -87 49 -87 q 149 -62 125 -87 q 174 0 174 -38 l 174 434 l 608 434 q 670 458 646 434 q 694 521 694 483 q 670 583 694 559 q 608 608 646 608 l 174 608 l 174 955 l 781 955 q 844 979 819 955 q 868 1042 868 1004 q 844 1104 868 1080 q 781 1128 819 1128 l 87 1128 l 87 1128 z "},"G":{"ha":1215,"x_min":0,"x_max":1215,"o":"m 608 955 q 301 827 423 949 l 301 827 q 174 521 179 705 q 301 214 179 336 q 608 87 423 92 q 884 187 768 90 q 1034 434 1001 282 l 694 434 q 632 458 656 434 q 608 521 608 483 q 632 583 608 559 q 694 608 656 608 l 1128 608 q 1191 583 1166 608 q 1215 521 1215 559 q 1131 214 1213 350 q 914 -3 1053 76 q 608 -87 779 -84 q 301 -3 437 -84 q 84 214 163 76 q 0 521 3 350 q 84 827 3 692 q 301 1044 163 966 q 608 1128 437 1126 q 1012 974 846 1123 q 1042 914 1039 949 q 1020 852 1044 879 q 960 822 993 825 q 898 844 925 819 q 608 955 779 952 l 608 955 z "},"H":{"ha":1042,"x_min":0,"x_max":1042,"o":"m 868 521 l 868 0 q 892 -62 868 -38 q 955 -87 917 -87 q 1017 -62 993 -87 q 1042 0 1042 -38 l 1042 608 l 1042 1042 q 1017 1104 1042 1080 q 955 1128 993 1128 q 892 1104 917 1128 q 868 1042 868 1080 l 868 694 l 174 694 l 174 1042 q 149 1104 174 1080 q 87 1128 125 1128 q 24 1104 49 1128 q 0 1042 0 1080 l 0 0 q 24 -62 0 -38 q 87 -87 49 -87 q 149 -62 125 -87 q 174 0 174 -38 l 174 521 l 868 521 l 868 521 z "},"I":{"ha":868,"x_min":0,"x_max":868,"o":"m 87 1128 q 24 1104 49 1128 l 24 1104 q 0 1042 0 1080 q 24 979 0 1004 q 87 955 49 955 l 347 955 l 347 87 l 87 87 q 24 62 49 87 q 0 0 0 38 q 24 -62 0 -38 q 87 -87 49 -87 l 781 -87 q 844 -62 819 -87 q 868 0 868 -38 q 844 62 868 38 q 781 87 819 87 l 521 87 l 521 955 l 781 955 q 844 979 819 955 q 868 1042 868 1004 q 844 1104 868 1080 q 781 1128 819 1128 l 434 1128 l 87 1128 l 87 1128 z "},"J":{"ha":868,"x_min":0,"x_max":868,"o":"m 781 1128 q 844 1104 819 1128 l 844 1104 q 868 1042 868 1080 l 868 347 q 741 41 863 163 q 434 -87 618 -81 q 127 41 250 -81 q 0 347 5 163 l 0 434 q 24 496 0 472 q 87 521 49 521 q 149 496 125 521 q 174 434 174 472 l 174 347 q 250 163 176 236 q 434 87 323 90 q 618 163 545 90 q 694 347 692 236 l 694 1042 q 719 1104 694 1080 q 781 1128 743 1128 l 781 1128 z "},"K":{"ha":868,"x_min":0,"x_max":868,"o":"m 844 982 q 868 1042 868 1009 l 868 1042 q 841 1104 868 1077 q 781 1128 814 1128 q 719 1101 746 1128 l 298 667 l 174 540 l 174 1042 q 149 1104 174 1080 q 87 1128 125 1128 q 24 1104 49 1128 q 0 1042 0 1080 l 0 326 l 0 0 q 24 -62 0 -38 q 87 -87 49 -87 q 149 -62 125 -87 q 174 0 174 -38 l 174 290 l 350 472 l 711 -49 q 765 -87 732 -79 q 830 -71 800 -92 q 865 -16 860 -49 q 852 49 873 19 l 472 600 l 844 982 l 844 982 z "},"L":{"ha":868,"x_min":87,"x_max":868,"o":"m 174 1128 q 236 1104 212 1128 l 236 1104 q 260 1042 260 1080 l 260 87 l 781 87 q 844 62 819 87 q 868 0 868 38 q 844 -62 868 -38 q 781 -87 819 -87 l 174 -87 q 111 -62 136 -87 q 87 0 87 -38 l 87 1042 q 111 1104 87 1080 q 174 1128 136 1128 l 174 1128 z "},"M":{"ha":1215,"x_min":0,"x_max":1215,"o":"m 62 1126 q 160 1090 122 1139 l 608 418 l 1055 1090 q 1153 1126 1093 1139 q 1215 1042 1213 1104 l 1215 0 q 1191 -62 1215 -38 q 1128 -87 1166 -87 q 1066 -62 1090 -87 q 1042 0 1042 -38 l 1042 754 l 681 212 q 608 174 654 174 q 534 212 562 174 l 174 754 l 174 0 q 149 -62 174 -38 q 87 -87 125 -87 q 24 -62 49 -87 q 0 0 0 -38 l 0 1042 q 62 1126 3 1104 l 62 1126 z "},"N":{"ha":1042,"x_min":0,"x_max":1042,"o":"m 57 1123 q 155 1096 114 1139 l 868 239 l 868 1042 q 892 1104 868 1080 q 955 1128 917 1128 q 1017 1104 993 1128 q 1042 1042 1042 1080 l 1042 0 q 985 -81 1039 -60 q 887 -57 928 -98 l 174 803 l 174 0 q 149 -62 174 -38 q 87 -87 125 -87 q 24 -62 49 -87 q 0 0 0 -38 l 0 1042 q 57 1123 3 1101 l 57 1123 z "},"O":{"ha":1215,"x_min":0,"x_max":1215,"o":"m 608 955 q 301 827 423 949 l 301 827 q 174 521 179 705 q 301 214 179 336 q 608 87 423 92 q 914 214 792 92 q 1042 521 1036 336 q 914 827 1036 705 q 608 955 792 949 l 608 955 m 0 521 q 84 827 3 692 l 84 827 q 301 1044 163 966 l 301 1044 q 608 1128 437 1126 q 914 1044 779 1126 q 1131 827 1053 966 q 1215 521 1213 692 q 1131 214 1213 350 q 914 -3 1053 76 q 608 -87 779 -84 q 301 -3 437 -84 q 84 214 163 76 q 0 521 3 350 l 0 521 z "},"P":{"ha":868,"x_min":0,"x_max":868,"o":"m 87 1128 l 174 1128 l 434 1128 q 741 1001 618 1123 q 868 694 863 879 q 741 388 863 510 q 434 260 618 266 l 174 260 l 174 0 q 149 -62 174 -38 q 87 -87 125 -87 q 24 -62 49 -87 q 0 0 0 -38 l 0 260 l 0 347 l 0 434 l 0 1042 q 24 1104 0 1080 q 87 1128 49 1128 l 87 1128 m 174 434 l 434 434 q 618 510 545 437 q 694 694 692 583 q 618 879 692 806 q 434 955 545 952 l 174 955 l 174 434 l 174 434 z "},"Q":{"ha":1389,"x_min":87,"x_max":1302,"o":"m 260 521 q 388 214 266 336 l 388 214 q 694 87 510 92 q 909 144 814 90 l 713 377 q 694 442 692 407 q 727 502 697 477 q 789 521 754 524 q 849 488 825 518 l 1042 258 q 1128 521 1126 372 q 1001 827 1123 705 q 694 955 879 949 q 388 827 510 949 q 260 521 266 705 l 260 521 m 1023 8 q 694 -87 879 -84 q 388 -3 524 -84 q 171 214 250 76 q 87 521 90 350 q 171 827 90 692 q 388 1044 250 966 q 694 1128 524 1126 q 1001 1044 865 1126 q 1218 827 1139 966 q 1302 521 1299 692 q 1153 122 1297 288 l 1283 -33 q 1302 -95 1305 -60 q 1270 -155 1299 -130 q 1207 -174 1242 -176 q 1147 -144 1172 -171 l 1023 8 l 1023 8 z "},"R":{"ha":868,"x_min":0,"x_max":868,"o":"m 87 1128 q 24 1104 49 1128 l 24 1104 q 0 1042 0 1080 l 0 434 l 0 0 q 24 -62 0 -38 q 87 -87 49 -87 q 149 -62 125 -87 q 174 0 174 -38 l 174 347 l 431 347 l 711 -49 q 765 -87 732 -79 q 830 -71 800 -92 q 868 -16 860 -49 q 852 49 873 19 l 624 374 q 800 518 732 420 q 868 738 865 613 q 754 1015 863 903 q 477 1128 643 1123 l 87 1128 l 87 1128 m 477 521 l 174 521 l 174 955 l 477 955 q 632 892 570 952 q 694 738 692 830 q 632 583 692 646 q 477 521 570 524 l 477 521 z "},"S":{"ha":1042,"x_min":84,"x_max":952,"o":"m 355 930 q 263 822 274 895 q 269 743 255 768 q 315 692 279 716 q 545 605 393 643 q 545 605 545 605 q 553 602 551 602 q 694 559 621 583 q 827 491 765 532 q 930 369 892 448 q 949 190 966 288 q 754 -49 911 16 q 418 -76 605 -109 l 418 -76 l 418 -76 q 301 -46 366 -68 q 182 -8 233 -27 q 155 0 165 -3 q 146 3 149 3 q 95 49 111 16 q 90 114 79 79 q 133 165 103 149 q 201 168 165 179 q 244 155 220 163 q 250 152 247 155 q 355 117 301 133 q 445 95 410 100 q 686 111 597 73 q 779 220 765 146 q 773 298 784 274 q 727 350 762 323 q 496 437 648 399 q 494 437 496 437 q 488 439 491 439 q 347 483 420 458 q 214 551 274 510 q 111 673 149 594 q 92 852 76 754 l 179 838 l 92 852 q 288 1088 130 1025 q 624 1118 437 1147 q 711 1101 654 1115 q 803 1082 770 1090 q 857 1042 838 1072 q 865 977 873 1012 q 825 922 854 941 q 760 914 795 906 q 678 930 732 922 q 597 947 624 941 l 610 1031 l 597 947 q 355 928 442 968 l 355 930 z "},"T":{"ha":1042,"x_min":0,"x_max":1042,"o":"m 87 1128 q 24 1104 49 1128 l 24 1104 q 0 1042 0 1080 q 24 979 0 1004 q 87 955 49 955 l 434 955 l 434 0 q 458 -62 434 -38 q 521 -87 483 -87 q 583 -62 559 -87 q 608 0 608 -38 l 608 955 l 955 955 q 1017 979 993 955 q 1042 1042 1042 1004 q 1017 1104 1042 1080 q 955 1128 993 1128 l 521 1128 l 87 1128 l 87 1128 z "},"U":{"ha":1042,"x_min":0,"x_max":1042,"o":"m 87 1128 q 149 1104 125 1128 l 149 1104 q 174 1042 174 1080 l 174 434 q 274 187 176 288 q 521 87 374 90 q 768 187 667 90 q 868 434 865 288 l 868 1042 q 892 1104 868 1080 q 955 1128 917 1128 q 1017 1104 993 1128 q 1042 1042 1042 1080 l 1042 434 q 890 65 1036 212 q 521 -87 743 -81 q 152 65 298 -81 q 0 434 5 212 l 0 1042 q 24 1104 0 1080 q 87 1128 49 1128 l 87 1128 z "},"V":{"ha":1215,"x_min":87,"x_max":1128,"o":"m 141 1120 q 206 1123 174 1134 l 206 1123 q 255 1074 239 1109 l 608 225 l 963 1074 q 1009 1123 977 1109 q 1074 1120 1042 1134 q 1123 1074 1109 1107 q 1123 1009 1134 1042 l 689 -33 q 608 -87 665 -84 q 529 -33 551 -84 l 95 1009 q 92 1074 81 1042 q 141 1123 106 1107 l 141 1120 z "},"W":{"ha":1563,"x_min":0,"x_max":1560,"o":"m 57 1123 q 122 1120 92 1134 l 122 1120 q 168 1072 155 1107 l 467 274 l 697 1066 q 781 1128 719 1126 q 865 1066 844 1126 l 1096 274 l 1394 1072 q 1440 1120 1408 1107 q 1506 1123 1470 1134 q 1554 1077 1541 1109 q 1557 1012 1568 1047 l 1166 -30 q 1082 -87 1142 -87 q 1001 -24 1020 -81 l 781 732 l 562 -24 q 480 -87 540 -81 q 396 -30 420 -87 l 5 1012 q 8 1077 -5 1047 q 57 1123 22 1109 l 57 1123 z "},"X":{"ha":1042,"x_min":0,"x_max":1042,"o":"m 1023 985 q 1042 1050 1044 1015 l 1042 1050 q 1012 1109 1039 1085 q 947 1128 982 1131 q 887 1096 911 1126 l 521 656 l 155 1096 q 95 1128 130 1126 q 33 1109 60 1131 q 0 1050 3 1085 q 19 985 -3 1015 l 407 521 l 19 54 q 0 -8 -3 27 q 33 -68 3 -43 q 95 -87 60 -90 q 155 -57 130 -84 l 521 385 l 887 -57 q 947 -87 911 -84 q 1012 -68 982 -90 q 1042 -8 1039 -43 q 1023 54 1044 27 l 635 521 l 1023 985 l 1023 985 z "},"Y":{"ha":1042,"x_min":0,"x_max":1042,"o":"m 157 1093 q 100 1128 136 1120 l 100 1128 q 35 1112 68 1134 q 0 1055 8 1090 q 16 990 -5 1023 l 434 407 l 434 0 q 458 -62 434 -38 q 521 -87 483 -87 q 583 -62 559 -87 q 608 0 608 -38 l 608 407 l 1025 990 q 1042 1055 1047 1023 q 1006 1112 1034 1090 q 941 1128 974 1134 q 884 1093 906 1120 l 521 583 l 157 1093 l 157 1093 z "},"Z":{"ha":1042,"x_min":0,"x_max":1042,"o":"m 0 1042 q 24 1104 0 1080 l 24 1104 q 87 1128 49 1128 l 955 1128 q 1034 1080 1009 1126 q 1023 985 1055 1028 l 271 87 l 955 87 q 1017 62 993 87 q 1042 0 1042 38 q 1017 -62 1042 -38 q 955 -87 993 -87 l 87 -87 q 8 -38 33 -84 q 19 54 -14 14 l 770 955 l 87 955 q 24 979 49 955 q 0 1042 0 1004 l 0 1042 z "},"":{"ha":1389,"x_min":0,"x_max":1389,"o":"m 521 955 l 521 922 l 260 955 q 198 930 222 955 q 174 868 174 906 q 198 806 174 830 q 260 781 222 781 l 521 814 l 605 825 l 608 825 l 610 825 l 694 814 l 955 781 q 1017 806 993 781 q 1042 868 1042 830 q 1017 930 1042 906 q 955 955 993 955 l 694 922 l 694 955 q 670 1017 694 993 q 608 1042 646 1042 q 545 1017 570 1042 q 521 955 521 993 l 521 955 m 87 521 q 24 496 49 521 l 24 496 q 0 434 0 472 l 0 260 q 24 198 0 222 q 87 174 49 174 l 358 174 q 608 43 448 49 q 857 174 768 49 l 955 174 q 1017 149 993 174 q 1042 87 1042 125 q 1066 24 1042 49 q 1128 0 1090 0 l 1302 0 q 1364 24 1340 0 q 1389 87 1389 49 q 1261 393 1383 271 q 955 521 1139 515 l 868 521 l 806 583 q 746 608 781 608 l 694 608 l 694 727 l 608 738 l 521 727 l 521 608 l 469 608 q 410 583 434 608 l 347 521 l 87 521 l 87 521 z "},"":{"ha":1389,"x_min":0,"x_max":1389,"o":"m 608 1215 q 670 1191 646 1215 l 670 1191 q 694 1128 694 1166 l 694 1096 l 955 1128 q 1017 1104 993 1128 q 1042 1042 1042 1080 q 1017 979 1042 1004 q 955 955 993 955 l 694 987 l 610 998 l 608 998 l 605 998 l 521 987 l 260 955 q 198 979 222 955 q 174 1042 174 1004 q 198 1104 174 1080 q 260 1128 222 1128 l 521 1096 l 521 1128 q 545 1191 521 1166 q 608 1215 570 1215 l 608 1215 m 0 608 q 24 670 0 646 l 24 670 q 87 694 49 694 l 347 694 l 410 757 q 469 781 434 781 l 521 781 l 521 901 l 608 911 l 694 901 l 694 781 l 746 781 q 806 757 781 781 l 868 694 l 955 694 q 1261 567 1139 689 q 1389 260 1383 445 q 1364 198 1389 222 q 1302 174 1340 174 l 1128 174 q 1066 198 1090 174 q 1042 260 1042 222 q 1017 323 1042 298 q 955 347 993 347 l 857 347 q 608 217 768 222 q 358 347 448 222 l 87 347 q 24 372 49 347 q 0 434 0 396 l 0 608 l 0 608 m 1185 68 q 1215 87 1194 87 q 1245 68 1237 87 l 1294 -49 q 1302 -84 1302 -65 l 1302 -87 q 1278 -149 1302 -125 q 1215 -174 1253 -174 q 1153 -149 1177 -174 q 1128 -87 1128 -125 l 1128 -84 q 1137 -49 1128 -65 l 1185 68 l 1185 68 z "},"":{"ha":1563,"x_min":0,"x_max":1563,"o":"m 1563 521 q 1535 461 1560 486 l 1535 461 q 1476 434 1511 437 l 1389 434 l 1392 0 q 1340 -122 1389 -73 q 1218 -174 1291 -171 l 347 -174 q 225 -122 274 -171 q 174 0 176 -73 l 174 434 l 87 434 q 24 461 49 437 q 0 521 0 486 q 27 586 0 559 l 722 1194 q 781 1215 751 1218 q 838 1196 814 1215 l 1128 941 l 1128 1042 q 1153 1104 1128 1080 q 1215 1128 1177 1128 l 1302 1128 q 1364 1104 1340 1128 q 1389 1042 1389 1080 l 1389 713 l 1533 589 q 1563 524 1565 559 l 1563 521 m 673 694 q 608 629 613 689 l 608 412 q 673 347 613 353 l 890 347 q 955 412 949 353 l 955 629 q 890 694 949 689 l 673 694 l 673 694 z "},"":{"ha":1563,"x_min":0,"x_max":1563,"o":"m 852 1191 q 911 1215 879 1215 l 911 1215 q 971 1191 944 1215 l 1535 670 q 1557 575 1576 629 q 1476 521 1533 524 l 1389 521 l 1389 217 q 1351 125 1386 163 q 1259 87 1313 90 l 754 87 q 632 328 716 220 q 434 505 551 434 l 434 521 l 407 521 q 266 581 339 556 q 288 673 250 632 l 852 1194 l 852 1191 m 825 694 q 781 651 784 692 l 781 477 q 825 434 784 437 l 998 434 q 1042 477 1039 437 l 1042 651 q 998 694 1039 692 l 825 694 l 825 694 m 65 521 q 382 434 241 518 l 382 434 q 608 209 524 350 l 608 209 q 694 -109 692 68 q 629 -174 689 -168 q 564 -109 570 -168 q 418 244 559 103 q 65 391 277 385 q 0 456 5 396 q 65 521 5 515 l 65 521 m 87 -174 q 24 -149 49 -174 l 24 -149 q 0 -87 0 -125 q 24 -24 0 -49 q 87 0 49 0 q 149 -24 125 0 q 174 -87 174 -49 q 149 -149 174 -125 q 87 -174 125 -174 l 87 -174 m 0 195 q 65 260 5 255 q 326 152 222 258 q 434 -109 431 49 q 369 -174 429 -168 q 304 -109 309 -168 q 233 60 301 -8 q 65 130 165 127 q 0 195 5 136 l 0 195 z "},"":{"ha":1389,"x_min":0,"x_max":1386,"o":"m 260 911 q 298 1004 263 966 l 298 1004 q 391 1042 336 1039 q 483 1004 445 1039 q 521 911 518 966 l 521 464 q 562 350 526 393 q 608 217 608 293 q 545 62 605 125 q 391 0 483 3 q 236 62 298 3 q 174 217 176 125 q 220 350 174 293 q 260 464 258 393 l 260 911 l 260 911 m 391 1215 q 176 1126 260 1213 l 176 1126 q 87 911 90 1042 l 87 467 q 87 464 87 467 q 87 464 87 464 q 81 456 84 461 q 0 217 3 355 q 114 -60 5 52 q 391 -174 225 -168 q 667 -60 556 -168 q 781 217 776 52 q 700 456 779 355 q 694 464 697 461 q 694 464 694 464 q 694 464 694 464 l 694 911 q 605 1126 692 1042 q 391 1215 521 1213 l 391 1215 m 391 87 q 483 125 445 90 l 483 125 q 521 217 518 163 q 434 339 515 307 l 434 477 q 391 521 431 518 q 347 477 350 518 l 347 339 q 260 217 266 307 q 298 125 263 163 q 391 87 336 90 l 391 87 m 1302 260 l 1215 260 l 1215 1042 q 1191 1104 1215 1080 q 1128 1128 1166 1128 q 1066 1104 1090 1128 q 1042 1042 1042 1080 l 1042 260 l 955 260 q 873 206 898 258 q 892 111 854 155 l 1066 -62 q 1128 -87 1093 -87 q 1191 -62 1164 -87 l 1364 111 q 1381 206 1402 155 q 1302 260 1359 258 l 1302 260 z "},"":{"ha":1389,"x_min":0,"x_max":1389,"o":"m 260 911 q 298 1004 263 966 l 298 1004 q 391 1042 336 1039 q 483 1004 445 1039 q 521 911 518 966 l 521 464 q 562 350 526 393 q 608 217 608 293 q 545 62 605 125 q 391 0 483 3 q 236 62 298 3 q 174 217 176 125 q 220 350 174 293 q 260 464 258 393 l 260 911 l 260 911 m 391 1215 q 176 1126 260 1213 l 176 1126 q 87 911 90 1042 l 87 467 q 87 464 87 467 q 87 464 87 464 q 81 456 84 461 q 0 217 3 355 q 114 -60 5 52 q 391 -174 225 -168 q 667 -60 556 -168 q 781 217 776 52 q 700 456 779 355 q 694 464 697 461 q 694 464 694 464 q 694 464 694 464 l 694 911 q 605 1126 692 1042 q 391 1215 521 1213 l 391 1215 m 391 87 q 483 125 445 90 l 483 125 q 521 217 518 163 q 434 339 515 307 l 434 911 q 391 955 431 952 q 347 911 350 952 l 347 339 q 260 217 266 307 q 298 125 263 163 q 391 87 336 90 l 391 87 m 1215 781 l 1302 781 q 1383 836 1359 784 q 1364 930 1402 887 l 1191 1104 q 1128 1128 1164 1128 q 1066 1104 1093 1128 l 892 930 q 876 836 854 887 q 955 781 898 784 l 1042 781 l 1042 0 q 1066 -62 1042 -38 q 1128 -87 1090 -87 q 1191 -62 1166 -87 q 1215 0 1215 -38 l 1215 781 l 1215 781 z "},"":{"ha":1736,"x_min":0,"x_max":1736,"o":"m 130 1128 q 38 1090 76 1126 l 38 1090 q 0 998 3 1053 l 0 304 q 38 212 3 250 q 130 174 76 176 l 176 174 q 277 358 195 288 q 477 434 361 431 q 678 358 594 431 q 779 174 760 288 l 1324 174 l 1345 174 l 1649 174 q 1712 198 1687 174 q 1736 260 1736 222 q 1712 323 1736 298 q 1649 347 1687 347 l 1476 347 l 1476 998 q 1438 1090 1473 1053 q 1345 1128 1400 1126 l 130 1128 l 130 1128 m 217 955 q 260 911 258 952 l 260 556 q 174 499 214 532 l 174 911 q 217 955 176 952 l 217 955 m 477 608 q 434 605 456 608 l 434 911 q 477 955 437 952 q 521 911 518 952 l 521 605 q 477 608 499 608 l 477 608 m 694 556 l 694 911 q 738 955 697 952 q 781 911 779 952 l 781 499 q 694 556 741 532 l 694 556 m 998 955 q 1042 911 1039 952 l 1042 391 q 998 347 1039 350 q 955 391 958 350 l 955 911 q 998 955 958 952 l 998 955 m 1302 911 l 1302 391 q 1259 347 1299 350 q 1215 391 1218 350 l 1215 911 q 1259 955 1218 952 q 1302 911 1299 952 l 1302 911 m 477 -87 q 632 -24 570 -84 l 632 -24 q 694 130 692 38 q 632 285 692 222 q 477 347 570 345 q 323 285 385 345 q 260 130 263 222 q 323 -24 263 38 q 477 -87 385 -84 l 477 -87 m 477 43 q 415 68 439 43 l 415 68 q 391 130 391 92 q 415 193 391 168 q 477 217 439 217 q 540 193 515 217 q 564 130 564 168 q 540 68 564 92 q 477 43 515 43 l 477 43 z "},"":{"ha":1736,"x_min":0,"x_max":1733,"o":"m 827 1213 q 768 1180 784 1221 l 760 1150 q 697 1145 727 1150 q 627 1126 662 1137 l 616 1153 q 551 1180 594 1194 q 524 1115 510 1158 l 534 1090 q 412 1028 467 1063 l 399 1047 q 331 1061 372 1082 q 317 993 296 1034 l 334 968 q 236 873 279 922 l 209 895 q 141 887 171 920 q 149 819 117 849 l 179 795 q 168 776 174 784 q 119 684 138 727 l 100 692 q 35 665 57 703 q 62 600 24 621 l 87 591 q 84 583 87 589 q 71 521 76 545 q 68 499 68 507 q 65 494 68 496 l 65 488 l 65 488 l 65 488 l 65 488 q 76 486 62 488 q 146 480 90 486 l 146 480 l 65 488 q 65 456 65 472 l 35 448 q 3 388 -5 431 q 62 355 19 347 l 90 363 q 190 263 125 298 l 182 236 q 214 176 174 193 q 274 209 258 168 l 282 239 q 415 274 358 236 l 437 252 q 507 252 472 225 q 507 323 534 288 l 486 345 q 518 442 513 388 l 521 445 q 524 464 521 450 l 524 467 l 551 456 q 613 480 594 442 q 589 545 629 524 l 564 553 q 665 648 594 602 l 670 632 q 730 600 686 591 q 762 659 770 616 l 754 689 q 800 700 776 694 q 871 730 838 711 l 892 708 q 963 708 928 681 q 963 779 990 743 l 941 800 q 977 933 979 860 l 1006 941 q 1039 1001 1047 958 q 979 1034 1023 1042 l 952 1025 q 852 1126 917 1093 l 860 1153 q 827 1213 868 1196 l 827 1213 m 288 467 l 187 477 l 187 477 l 288 467 l 288 467 m 347 521 q 285 545 309 521 l 285 545 q 260 608 260 570 q 285 670 260 646 q 347 694 309 694 q 410 670 385 694 q 434 608 434 646 q 410 545 434 570 q 347 521 385 521 l 347 521 m 608 825 q 564 781 605 784 q 521 825 524 784 q 564 868 524 865 q 608 825 605 865 l 608 825 m 876 -111 q 909 -171 868 -155 q 968 -138 952 -179 l 977 -109 q 1039 -103 1009 -109 q 1109 -84 1074 -95 l 1120 -111 q 1185 -138 1142 -152 q 1213 -73 1226 -117 l 1202 -49 q 1324 14 1270 -22 l 1337 -5 q 1405 -19 1364 -41 q 1419 49 1440 8 l 1402 73 q 1500 168 1457 119 l 1527 146 q 1595 155 1565 122 q 1587 222 1619 193 l 1557 247 q 1571 266 1563 258 q 1617 358 1598 315 l 1636 350 q 1701 377 1679 339 q 1674 442 1712 420 l 1649 450 q 1652 456 1649 453 q 1666 521 1660 496 q 1668 543 1668 534 q 1671 548 1668 545 l 1671 551 l 1671 553 l 1671 553 l 1671 553 q 1660 556 1674 553 q 1590 562 1647 556 l 1590 562 l 1671 553 q 1671 586 1671 570 l 1701 594 q 1733 654 1742 610 q 1674 686 1717 694 l 1647 678 q 1546 779 1611 743 l 1554 806 q 1522 865 1563 849 q 1462 833 1478 876 l 1454 803 q 1321 768 1378 806 l 1299 789 q 1229 789 1264 817 q 1229 719 1202 754 l 1251 697 q 1218 600 1223 654 l 1215 600 q 1213 578 1215 594 l 1213 578 l 1185 589 q 1123 562 1142 602 q 1147 496 1107 518 l 1172 488 q 1072 393 1142 439 l 1066 410 q 1006 442 1050 450 q 974 382 966 426 l 982 353 q 936 342 960 347 q 865 312 898 334 l 844 334 q 773 334 808 361 q 773 263 746 298 l 795 241 q 760 109 757 182 l 730 100 q 697 41 689 84 q 757 8 713 0 l 784 16 q 884 -84 819 -52 l 876 -111 l 876 -111 m 1549 564 l 1549 564 l 1449 575 l 1549 564 l 1549 564 m 1042 174 q 1066 236 1042 212 l 1066 236 q 1128 260 1090 260 q 1191 236 1166 260 q 1215 174 1215 212 q 1191 111 1215 136 q 1128 87 1166 87 q 1066 111 1090 87 q 1042 174 1042 136 l 1042 174 z "},"":{"ha":1563,"x_min":87,"x_max":1473,"o":"m 1234 1131 q 1191 1213 1245 1191 q 1109 1169 1131 1223 l 1099 1128 q 1017 1120 1058 1131 q 922 1096 968 1109 l 906 1131 q 822 1166 879 1185 q 787 1082 768 1139 l 800 1050 q 637 963 711 1012 l 618 990 q 529 1009 581 1036 q 510 920 483 971 l 532 887 q 404 760 458 827 l 366 789 q 274 779 317 822 q 285 686 241 730 l 326 654 q 309 629 317 640 q 247 505 271 564 l 220 515 q 136 480 163 532 q 171 396 119 423 l 203 382 q 201 374 201 377 q 182 290 187 323 q 176 260 179 271 q 176 252 176 258 q 176 252 176 252 l 176 247 l 176 247 l 176 244 l 176 244 q 187 244 171 244 q 282 236 206 241 l 282 236 l 176 244 q 174 203 174 225 l 133 193 q 90 111 79 171 q 171 68 111 57 l 206 79 q 339 -54 252 -8 l 328 -90 q 374 -171 317 -149 q 453 -127 431 -182 l 464 -87 q 643 -38 564 -90 l 670 -68 q 762 -68 716 -106 q 762 24 800 -22 l 732 52 q 779 184 770 111 l 779 187 q 787 212 781 193 l 787 214 l 822 201 q 906 233 879 182 q 871 320 925 290 l 841 334 q 974 458 879 396 l 979 437 q 1061 393 1001 382 q 1104 472 1115 415 l 1093 513 q 1153 529 1120 521 q 1248 570 1207 540 l 1278 540 q 1370 540 1324 502 q 1370 632 1408 586 l 1340 659 q 1389 838 1392 741 l 1430 849 q 1473 928 1484 871 q 1392 974 1451 985 l 1356 963 q 1223 1096 1310 1050 l 1234 1131 l 1234 1131 m 336 231 l 336 231 l 477 217 l 336 231 l 336 231 m 651 347 q 613 255 648 293 l 613 255 q 521 217 575 220 q 429 255 467 220 q 391 347 393 293 q 429 439 393 401 q 521 477 467 475 q 613 439 575 475 q 651 347 648 401 l 651 347 m 738 586 q 673 651 678 591 q 738 716 678 711 q 803 651 798 711 q 738 586 798 591 l 738 586 z "},"":{"ha":1389,"x_min":0,"x_max":1389,"o":"m 252 1215 l 564 1215 q 681 1175 643 1213 q 738 1085 716 1137 q 798 996 760 1034 q 911 955 833 958 l 1142 955 q 1194 933 1175 955 q 1215 882 1215 914 q 1210 854 1215 868 l 1112 608 l 1042 434 l 347 434 l 304 608 l 176 1120 q 174 1137 174 1128 q 195 1194 174 1172 q 252 1215 217 1215 l 252 1215 m 214 608 l 258 434 l 217 434 q 174 391 176 431 q 217 347 176 350 l 347 347 l 1042 347 l 1172 347 q 1215 391 1213 350 q 1172 434 1213 431 l 1137 434 l 1204 608 l 1259 608 q 1351 570 1313 605 q 1389 477 1386 532 l 1389 174 l 0 174 l 0 477 q 38 570 3 532 q 130 608 76 605 l 214 608 l 214 608 m 0 87 l 1389 87 l 1389 -43 q 1351 -136 1386 -98 q 1259 -174 1313 -171 l 130 -174 q 38 -136 76 -171 q 0 -43 3 -98 l 0 87 l 0 87 z "},"":{"ha":1563,"x_min":0,"x_max":1563,"o":"m 608 1150 l 608 998 l 456 998 q 391 933 396 993 l 391 803 q 456 738 396 743 l 608 738 l 608 586 q 673 521 613 526 l 803 521 q 868 586 863 526 l 868 738 l 1020 738 q 1085 803 1080 743 l 1085 933 q 1020 998 1080 993 l 868 998 l 868 1150 q 803 1215 863 1210 l 673 1215 q 608 1150 613 1210 l 608 1150 m 1519 152 q 1563 222 1554 179 l 1563 222 q 1541 304 1568 266 q 1470 347 1514 339 q 1389 326 1427 353 l 1066 87 l 738 87 q 694 130 697 90 q 738 174 697 171 l 781 174 l 955 174 q 1017 198 993 174 q 1042 260 1042 222 q 1017 323 1042 298 q 955 347 993 347 l 781 347 l 738 347 l 526 347 q 309 271 404 347 l 187 174 l 87 174 q 24 149 49 174 q 0 87 0 125 l 0 -87 q 24 -149 0 -125 q 87 -174 49 -174 l 521 -174 l 958 -174 q 1175 -103 1077 -174 l 1519 152 l 1519 152 m 524 174 l 526 174 l 526 174 q 524 174 524 174 q 524 174 524 174 l 524 174 z "},"":{"ha":1736,"x_min":0,"x_max":1736,"o":"m 868 1215 q 930 1191 906 1215 l 930 1191 q 955 1128 955 1166 l 955 564 q 998 521 958 524 q 1042 564 1039 524 l 1042 1042 q 1066 1104 1042 1080 q 1128 1128 1090 1128 q 1191 1104 1166 1128 q 1215 1042 1215 1080 l 1215 564 q 1259 521 1218 524 q 1302 564 1299 524 l 1302 868 q 1326 930 1302 906 q 1389 955 1351 955 q 1451 930 1427 955 q 1476 868 1476 906 l 1476 339 q 1408 263 1424 317 l 1383 179 l 1299 155 q 1215 43 1221 127 q 1299 -68 1221 -41 q 998 -174 1172 -171 l 947 -174 q 513 0 694 -171 l 206 290 q 174 366 174 323 q 203 445 174 410 q 279 477 236 477 q 358 448 323 477 l 521 290 q 521 298 521 296 q 521 304 521 301 l 521 1042 q 545 1104 521 1080 q 608 1128 570 1128 q 670 1104 646 1128 q 694 1042 694 1080 l 694 564 q 738 521 697 524 q 781 564 779 524 l 781 1128 q 806 1191 781 1166 q 868 1215 830 1215 l 868 1215 m 849 328 q 825 347 844 347 q 800 328 806 347 l 781 260 l 713 241 q 694 217 694 236 q 713 193 694 198 l 781 174 l 800 106 q 825 87 806 87 q 849 106 844 87 l 868 174 l 936 193 q 955 217 955 198 q 936 241 955 236 l 868 260 l 849 328 l 849 328 m 282 890 l 412 852 q 434 825 434 846 q 412 798 434 803 l 282 760 l 244 629 q 217 608 239 608 q 190 629 195 608 l 152 760 l 22 798 q 0 825 0 803 q 22 852 0 846 l 152 890 l 190 1020 q 217 1042 195 1042 q 244 1020 239 1042 l 282 890 l 282 890 m 1584 109 l 1714 71 q 1736 43 1736 65 q 1714 16 1736 22 l 1584 -22 l 1546 -152 q 1519 -174 1541 -174 q 1492 -152 1497 -174 l 1454 -22 l 1324 16 q 1302 43 1302 22 q 1324 71 1302 65 l 1454 109 l 1492 239 q 1519 260 1497 260 q 1546 239 1541 260 l 1584 109 l 1584 109 z "},"":{"ha":1389,"x_min":0,"x_max":1389,"o":"m 1042 1042 q 979 1066 1004 1042 l 979 1066 q 955 1128 955 1090 q 979 1191 955 1166 q 1042 1215 1004 1215 q 1104 1191 1080 1215 q 1128 1128 1128 1166 q 1104 1066 1128 1090 q 1042 1042 1080 1042 l 1042 1042 m 1259 608 q 1166 646 1204 610 l 1166 646 q 1128 738 1131 684 q 1166 830 1131 792 q 1259 868 1204 865 q 1351 830 1313 865 q 1389 738 1386 792 q 1351 646 1386 684 q 1259 608 1313 610 l 1259 608 m 347 -43 q 309 -136 345 -98 l 309 -136 q 217 -174 271 -171 q 125 -136 163 -171 q 87 -43 90 -98 q 125 49 90 11 q 217 87 163 84 q 309 49 271 84 q 347 -43 345 11 l 347 -43 m 968 787 q 966 781 968 784 l 917 697 q 798 751 871 751 l 854 846 q 941 871 887 895 q 968 789 987 838 l 968 787 m 499 659 q 263 491 350 610 l 263 491 q 174 217 176 372 q 174 212 174 214 q 174 203 174 209 q 46 342 92 258 q 0 524 0 426 l 0 857 q 65 922 5 917 q 130 857 125 917 l 130 637 l 445 1183 q 534 1207 480 1232 q 559 1118 583 1172 l 385 817 q 393 787 377 798 q 423 795 410 779 l 640 1172 q 727 1196 673 1221 q 751 1107 776 1161 l 534 730 q 543 700 526 711 q 572 708 562 692 l 746 1009 q 836 1034 781 1058 q 860 944 884 998 l 741 738 l 496 659 l 499 659 m 1215 -98 q 1158 -160 1210 -152 q 1150 -163 1153 -163 l 605 -163 l 586 -163 q 420 -117 494 -160 q 434 -43 434 -81 q 385 95 431 38 q 260 168 336 152 q 260 171 260 171 q 260 174 260 174 q 260 179 260 176 q 260 184 260 182 q 342 434 263 326 q 556 589 420 543 l 784 659 q 865 618 841 673 q 822 537 876 559 l 675 491 l 1237 491 q 1302 426 1297 486 q 1237 361 1297 366 l 890 361 q 868 339 871 358 q 890 317 871 317 l 1324 317 q 1389 252 1383 312 q 1324 187 1383 193 l 890 187 q 868 165 871 184 q 890 144 871 144 l 1237 144 q 1302 79 1297 138 q 1237 14 1297 19 l 890 14 q 868 -8 871 11 q 890 -30 871 -30 l 1150 -30 q 1215 -95 1210 -35 l 1215 -98 z "},"":{"ha":1736,"x_min":0,"x_max":1736,"o":"m 106 1202 q 14 1191 54 1234 q 24 1099 -19 1139 l 1630 -160 q 1723 -149 1682 -193 q 1712 -57 1755 -98 l 1345 231 q 1305 312 1340 277 l 939 646 l 876 597 l 806 654 l 1015 817 q 1077 808 1047 836 q 1069 746 1099 773 l 1012 703 l 1492 260 l 1606 260 q 1698 298 1660 263 q 1736 391 1733 336 l 1736 738 q 1698 830 1733 792 q 1606 868 1660 865 l 1400 868 l 1389 868 l 1386 868 l 1375 873 l 1180 1001 q 1039 1042 1115 1042 q 876 985 949 1042 l 635 787 l 564 844 l 787 1023 q 686 1042 738 1042 q 543 998 608 1042 l 448 933 l 106 1202 l 106 1202 m 0 738 l 0 391 q 38 298 3 336 q 130 260 76 263 l 423 260 l 673 35 q 765 0 713 -3 q 854 43 817 3 q 887 98 879 68 l 933 57 q 1025 22 974 19 q 1115 65 1077 24 q 1123 71 1118 68 l 111 865 q 33 825 62 860 q 0 738 0 789 l 0 738 z "},"":{"ha":1736,"x_min":0,"x_max":1736,"o":"m 106 1202 q 14 1191 54 1234 q 24 1099 -19 1139 l 1630 -160 q 1723 -149 1682 -193 q 1712 -57 1755 -98 l 1345 231 q 1305 312 1340 277 l 939 646 l 876 597 l 806 654 l 1015 817 q 1077 808 1047 836 q 1069 746 1099 773 l 1012 703 l 1389 355 l 1389 868 l 1386 868 l 1375 873 l 1180 1001 q 1039 1042 1115 1042 q 876 985 949 1042 l 635 787 l 564 844 l 787 1023 q 686 1042 738 1042 q 543 998 608 1042 l 448 933 l 106 1202 l 106 1202 m 260 749 l 111 868 l 0 868 l 0 260 q 24 198 0 222 q 87 174 49 174 l 174 174 q 236 198 212 174 q 260 260 260 222 l 260 749 l 260 749 m 1123 71 l 347 681 l 347 260 l 423 260 l 673 35 q 765 0 713 -3 q 854 43 817 3 q 887 98 879 68 l 933 57 q 1025 22 974 19 q 1115 65 1077 24 q 1123 71 1118 68 l 1123 71 m 130 260 q 87 304 90 263 q 130 347 90 345 q 174 304 171 345 q 130 260 171 263 l 130 260 m 1476 868 l 1476 260 q 1500 198 1476 222 q 1563 174 1525 174 l 1649 174 q 1712 198 1687 174 q 1736 260 1736 222 l 1736 868 l 1476 868 l 1476 868 m 1649 304 q 1606 260 1647 263 q 1563 304 1565 263 q 1606 347 1565 345 q 1649 304 1647 345 l 1649 304 z "},"":{"ha":1736,"x_min":0,"x_max":1714,"o":"m 0 667 q 160 1055 5 901 l 160 1055 q 548 1215 315 1210 l 608 1215 q 947 1090 806 1213 q 1120 781 1088 968 q 1161 684 1128 727 l 1275 540 q 1302 467 1302 507 q 1267 382 1302 415 q 1183 347 1234 347 l 1128 347 l 1128 260 l 955 260 q 892 236 917 260 q 868 174 868 212 q 892 111 868 136 q 955 87 917 87 l 1128 87 q 1077 -35 1126 14 q 955 -87 1028 -84 l 781 -87 q 757 -149 781 -125 q 694 -174 732 -174 l 260 -174 q 198 -149 222 -174 q 174 -87 174 -125 l 174 195 q 127 323 171 266 q 35 486 68 396 q 0 667 0 575 l 0 667 m 911 608 q 974 632 949 608 l 974 632 q 998 694 998 656 q 974 757 998 732 q 911 781 949 781 q 849 757 873 781 q 825 694 825 732 q 849 632 825 656 q 911 608 873 608 l 911 608 m 1649 369 q 1584 434 1590 374 q 1649 499 1590 494 q 1714 434 1709 494 q 1649 369 1709 374 l 1649 369 m 1541 304 q 1476 239 1535 244 q 1411 304 1416 244 q 1476 369 1416 363 q 1541 304 1535 363 l 1541 304 m 1367 174 q 1302 109 1362 114 q 1237 174 1242 114 q 1302 239 1242 233 q 1367 174 1362 233 l 1367 174 m 1714 174 q 1649 109 1709 114 q 1584 174 1590 114 q 1649 239 1590 233 q 1714 174 1709 233 l 1714 174 m 1649 -152 q 1584 -87 1590 -146 q 1649 -22 1590 -27 q 1714 -87 1709 -27 q 1649 -152 1709 -146 l 1649 -152 m 1541 43 q 1476 -22 1535 -16 q 1411 43 1416 -16 q 1476 109 1416 103 q 1541 43 1535 103 l 1541 43 z "},"":{"ha":1736,"x_min":0,"x_max":1736,"o":"m 106 1202 q 14 1191 54 1234 q 24 1099 -19 1139 l 1630 -160 q 1723 -149 1682 -193 q 1712 -57 1755 -98 l 1194 347 q 1272 385 1240 353 q 1302 467 1302 418 q 1275 540 1302 507 l 1161 684 q 1120 781 1128 727 q 947 1090 1088 971 q 608 1215 806 1213 l 548 1215 q 222 1109 363 1213 l 106 1202 l 106 1202 m 0 667 q 35 486 0 575 l 35 486 q 127 323 68 396 q 174 195 171 266 l 174 -87 q 198 -149 174 -125 q 260 -174 222 -174 l 694 -174 q 757 -149 732 -174 q 781 -87 781 -125 l 955 -87 q 1072 -43 1023 -84 q 1128 68 1118 0 l 1101 87 l 955 87 q 892 111 917 87 q 868 174 868 136 q 903 244 871 217 l 57 911 q 0 667 0 800 l 0 667 m 1714 434 q 1649 499 1709 494 q 1584 434 1590 494 q 1649 369 1590 374 q 1714 434 1709 374 l 1714 434 m 1476 239 q 1541 304 1535 244 q 1476 369 1535 363 q 1411 304 1416 363 q 1476 239 1416 244 l 1476 239 m 1649 109 q 1714 174 1709 114 q 1649 239 1709 233 q 1584 174 1590 233 q 1649 109 1590 114 l 1649 109 z "},"":{"ha":1389,"x_min":0,"x_max":1389,"o":"m 0 608 q 24 781 0 697 l 640 334 q 608 217 608 282 l 608 -174 l 260 -174 q 198 -149 222 -174 q 174 -87 174 -125 l 174 111 q 127 233 171 179 q 0 608 3 399 l 0 608 m 703 396 l 57 865 q 277 1118 133 1023 q 608 1215 423 1213 l 694 1215 q 1034 1090 892 1213 q 1207 781 1175 968 q 1248 684 1215 727 l 1362 540 q 1389 467 1389 507 q 1383 434 1389 450 l 825 434 q 703 396 754 434 l 703 396 m 955 608 q 1017 632 993 608 l 1017 632 q 1042 694 1042 656 q 1017 757 1042 732 q 955 781 993 781 q 892 757 917 781 q 868 694 868 732 q 892 632 868 656 q 955 608 917 608 l 955 608 m 694 -174 l 694 217 q 732 309 697 271 q 825 347 770 345 l 1389 347 l 1345 217 l 911 217 q 868 174 871 214 q 911 130 871 133 l 1316 130 l 1289 43 l 911 43 q 868 0 871 41 q 911 -43 871 -41 l 1259 -43 l 1256 -54 q 1191 -141 1237 -109 q 1090 -174 1147 -174 l 694 -174 l 694 -174 z "},"":{"ha":1389,"x_min":0,"x_max":1389,"o":"m 0 608 q 84 914 3 776 l 84 914 q 301 1131 163 1050 l 301 1131 q 608 1215 437 1213 l 694 1215 q 1034 1090 892 1213 q 1207 781 1175 968 q 1248 684 1215 727 l 1362 540 q 1389 467 1389 507 q 1354 382 1389 415 q 1270 347 1321 347 l 1215 347 l 1215 174 q 1164 52 1213 100 q 1042 0 1115 3 l 868 0 l 868 -87 q 844 -149 868 -125 q 781 -174 819 -174 l 260 -174 q 198 -149 222 -174 q 174 -87 174 -125 l 174 111 q 127 233 171 179 q 0 608 3 399 l 0 608 m 651 998 q 608 955 610 996 q 545 863 602 887 q 437 884 488 838 q 374 884 407 909 q 374 822 350 852 q 396 713 420 770 q 304 651 372 656 q 260 608 263 648 q 304 564 263 567 q 396 502 372 559 q 374 393 420 445 q 374 331 350 361 q 437 331 407 307 q 545 353 488 377 q 608 260 602 328 q 651 217 610 220 q 694 260 692 220 q 757 353 700 328 q 865 331 814 377 q 928 331 898 307 q 928 393 952 363 q 906 502 882 445 q 998 564 930 559 q 1042 608 1039 567 q 998 651 1039 648 q 906 713 930 656 q 928 822 882 770 q 928 884 952 852 q 865 884 895 909 q 757 863 814 838 q 694 955 700 887 q 651 998 692 996 l 651 998 m 586 608 q 521 673 526 613 q 586 738 526 732 q 651 673 646 732 q 586 608 646 613 l 586 608 m 781 521 q 738 477 779 480 q 694 521 697 480 q 738 564 697 562 q 781 521 779 562 l 781 521 z "},"":{"ha":1563,"x_min":0,"x_max":1563,"o":"m 1476 434 q 1535 461 1511 437 l 1535 461 q 1563 521 1560 486 q 1533 586 1565 559 l 1389 713 l 1389 1042 q 1364 1104 1389 1080 q 1302 1128 1340 1128 l 1215 1128 q 1153 1104 1177 1128 q 1128 1042 1128 1080 l 1128 941 l 841 1196 q 784 1215 814 1215 q 724 1194 754 1218 l 27 586 q 0 521 0 559 q 24 461 0 486 q 87 434 49 437 l 174 434 l 174 0 q 225 -122 176 -73 q 347 -174 274 -171 l 1218 -174 q 1340 -122 1291 -171 q 1392 0 1389 -73 l 1389 434 l 1476 434 l 1476 434 m 781 434 q 659 486 708 437 l 659 486 q 608 608 610 534 q 659 730 610 681 q 781 781 708 779 q 903 730 854 779 q 955 608 952 681 q 903 486 952 534 q 781 434 854 437 l 781 434 m 477 130 q 540 285 480 222 l 540 285 q 694 347 602 345 l 868 347 q 1023 285 960 345 q 1085 130 1082 222 q 1042 87 1082 90 l 521 87 q 477 130 480 90 l 477 130 z "},"":{"ha":1736,"x_min":0,"x_max":1736,"o":"m 591 1191 q 651 1215 618 1215 l 651 1215 q 711 1191 684 1215 l 1275 670 q 1302 608 1302 646 l 911 608 q 781 548 830 605 l 781 651 q 738 694 779 692 l 564 694 q 521 651 524 692 l 521 477 q 564 434 524 437 l 738 434 l 738 87 l 304 87 q 212 125 250 90 q 174 217 176 163 l 174 521 l 87 521 q 5 575 30 524 q 27 670 -14 629 l 591 1191 l 591 1191 m 955 391 l 955 0 l 1476 0 l 1476 391 l 955 391 l 955 391 m 825 434 q 849 496 825 472 l 849 496 q 911 521 873 521 l 1519 521 q 1581 496 1557 521 q 1606 434 1606 472 l 1606 0 l 1693 0 q 1736 -43 1733 -3 q 1698 -136 1733 -98 q 1606 -174 1660 -171 l 1476 -174 l 955 -174 l 825 -174 q 732 -136 770 -171 q 694 -43 697 -98 q 738 0 697 -3 l 825 0 l 825 434 l 825 434 z "},"":{"ha":1736,"x_min":0,"x_max":1736,"o":"m 868 1215 q 930 1191 906 1215 l 930 1191 q 955 1128 955 1166 l 955 792 q 868 825 920 825 q 781 792 817 825 l 781 1128 q 806 1191 781 1166 q 868 1215 830 1215 l 868 1215 m 1207 684 q 1126 722 1172 719 l 1126 722 q 1042 703 1082 727 l 1042 768 q 1096 901 1044 846 q 1229 955 1150 952 q 1381 876 1324 955 q 1465 749 1413 830 q 1573 559 1519 665 q 1674 336 1630 456 q 1736 98 1720 217 q 1736 87 1736 92 l 1736 68 q 1666 -103 1733 -35 q 1495 -174 1598 -171 q 1435 -165 1465 -174 l 1240 -117 q 1099 -27 1153 -95 q 1204 11 1158 -35 l 1145 71 l 1204 11 q 1242 103 1242 49 q 1204 193 1242 155 q 1202 201 1202 198 q 1202 209 1202 203 q 1207 214 1204 214 q 1207 214 1207 214 q 1215 217 1210 217 q 1308 255 1270 220 q 1345 347 1343 293 q 1308 439 1343 401 q 1215 477 1270 475 q 1207 480 1210 477 q 1202 486 1204 480 q 1202 494 1202 491 q 1204 499 1202 496 q 1242 591 1242 540 q 1204 684 1242 646 l 1207 684 m 1145 71 q 1082 71 1112 46 q 974 92 1031 117 q 911 0 917 68 q 868 -43 909 -41 q 825 0 827 -41 q 762 92 819 68 q 654 71 705 117 q 591 71 624 46 q 591 133 567 103 q 613 241 637 184 q 521 304 589 298 q 477 347 480 307 q 521 391 480 388 q 613 453 589 396 q 591 562 637 510 q 591 624 567 591 q 654 624 624 648 q 762 602 705 578 q 825 694 819 627 q 868 738 827 735 q 911 694 909 735 q 974 602 917 627 q 1082 624 1031 578 q 1145 624 1115 648 q 1145 562 1169 591 q 1123 453 1099 510 q 1215 391 1147 396 q 1259 347 1256 388 q 1215 304 1256 307 q 1123 241 1147 298 q 1145 133 1099 184 q 1145 71 1169 100 l 1145 71 m 496 -117 l 301 -165 q 241 -174 271 -174 q 71 -103 138 -171 q 0 68 3 -35 l 0 87 q 0 98 0 92 q 62 336 16 217 q 163 559 106 456 q 271 749 217 665 q 355 876 323 830 q 507 955 412 952 q 640 901 586 952 q 694 768 692 846 l 694 703 q 610 722 656 727 q 532 684 564 719 q 491 594 491 646 q 532 502 491 540 q 534 494 534 496 q 534 486 534 491 q 529 480 532 483 q 529 480 529 480 q 521 477 526 477 q 429 439 467 477 q 391 347 391 401 q 429 255 391 293 q 521 217 467 220 q 529 214 526 217 q 534 209 532 214 q 534 201 534 203 q 532 195 534 198 q 491 103 491 155 q 532 11 491 52 q 637 -27 578 -33 q 496 -117 583 -95 l 496 -117 m 803 347 q 868 412 863 353 q 803 477 863 472 q 738 412 743 472 q 803 347 743 353 l 803 347 m 998 260 q 955 304 996 301 q 911 260 914 301 q 955 217 914 220 q 998 260 996 220 l 998 260 z "},"":{"ha":1736,"x_min":57,"x_max":1676,"o":"m 521 1042 q 469 920 518 968 l 469 920 q 347 868 420 871 q 225 920 274 871 q 174 1042 176 968 q 225 1164 176 1115 q 347 1215 274 1213 q 469 1164 420 1213 q 521 1042 518 1115 l 521 1042 m 71 583 q 138 724 79 667 l 138 724 q 288 781 201 779 l 407 781 q 586 689 524 776 q 564 673 575 681 l 391 499 q 347 391 347 450 q 391 282 347 331 l 521 155 l 521 -43 q 483 -136 518 -98 q 391 -174 445 -171 l 304 -174 q 212 -136 250 -171 q 174 -43 176 -98 l 174 271 q 87 339 119 290 q 60 448 54 388 l 71 583 l 71 583 m 1563 1042 q 1511 920 1560 968 l 1511 920 q 1389 868 1462 871 q 1267 920 1316 871 q 1215 1042 1218 968 q 1267 1164 1218 1115 q 1389 1215 1316 1213 q 1511 1164 1462 1213 q 1563 1042 1560 1115 l 1563 1042 m 1172 673 q 1150 689 1161 681 q 1329 781 1215 776 l 1449 781 q 1598 724 1535 779 q 1666 583 1657 667 l 1676 448 q 1649 339 1682 388 q 1563 271 1617 290 l 1563 -43 q 1525 -136 1560 -98 q 1432 -174 1487 -171 l 1345 -174 q 1253 -136 1291 -171 q 1215 -43 1218 -98 l 1215 155 l 1345 282 q 1389 391 1389 331 q 1345 499 1389 450 l 1172 673 l 1172 673 m 738 564 l 738 477 l 998 477 l 998 564 q 1039 624 1001 608 q 1109 610 1077 640 l 1283 437 q 1283 345 1321 391 l 1109 171 q 1039 157 1077 144 q 998 217 1001 174 l 998 304 l 738 304 l 738 217 q 697 157 735 174 q 627 171 659 141 l 453 345 q 453 437 415 391 l 627 610 q 697 624 659 637 q 738 564 735 605 l 738 564 z "},"":{"ha":1736,"x_min":0,"x_max":1736,"o":"m 106 1202 q 14 1191 54 1234 q 24 1099 -19 1139 l 1630 -160 q 1723 -149 1682 -193 q 1712 -57 1755 -98 l 1196 347 l 1394 347 q 1557 396 1473 350 q 1649 521 1641 445 q 1557 643 1641 594 q 1394 694 1473 692 l 1080 694 l 806 1172 q 730 1215 781 1213 l 578 1215 q 537 1161 529 1207 l 646 779 l 106 1202 l 106 1202 m 114 865 q 87 830 90 857 q 90 819 87 825 l 174 521 l 90 222 q 87 212 87 217 q 125 174 90 176 l 239 174 q 274 190 260 174 l 391 347 l 670 347 l 537 -119 q 578 -174 529 -165 l 732 -174 q 806 -130 781 -171 l 985 179 l 114 865 l 114 865 z "},"":{"ha":1215,"x_min":92,"x_max":1128,"o":"m 347 1128 l 347 868 l 694 868 l 694 955 l 857 955 q 887 941 876 955 l 979 849 q 1042 825 1006 825 q 1104 849 1077 825 q 1128 911 1128 876 q 1104 974 1128 947 l 1012 1066 q 857 1128 947 1128 l 694 1128 q 670 1191 694 1166 q 608 1215 646 1215 l 434 1215 q 372 1191 396 1215 q 347 1128 347 1166 l 347 1128 m 317 781 q 201 735 250 779 l 201 735 q 146 621 152 692 l 95 14 q 141 -117 90 -65 q 269 -174 190 -171 l 773 -174 q 901 -117 852 -171 q 947 14 952 -65 l 895 621 q 841 735 890 692 q 724 781 792 779 l 317 781 l 317 781 m 586 456 l 586 369 l 673 369 q 738 304 732 363 q 673 239 732 244 l 586 239 l 586 152 q 521 87 581 92 q 456 152 461 92 l 456 239 l 369 239 q 304 304 309 244 q 369 369 309 363 l 456 369 l 456 456 q 521 521 461 515 q 586 456 581 515 l 586 456 z "},"":{"ha":1215,"x_min":92,"x_max":1128,"o":"m 347 1128 l 347 868 l 694 868 l 694 955 l 857 955 q 887 941 876 955 l 979 849 q 1042 825 1006 825 q 1104 849 1077 825 q 1128 911 1128 876 q 1104 974 1128 947 l 1012 1066 q 857 1128 947 1128 l 694 1128 q 670 1191 694 1166 q 608 1215 646 1215 l 434 1215 q 372 1191 396 1215 q 347 1128 347 1166 l 347 1128 m 317 781 q 201 735 250 779 l 201 735 q 146 621 152 692 l 95 14 q 141 -117 90 -65 q 269 -174 190 -171 l 773 -174 q 901 -117 852 -171 q 947 14 952 -65 l 895 621 q 841 735 890 692 q 724 781 792 779 l 317 781 l 317 781 m 694 239 q 643 127 692 165 l 643 127 q 521 87 594 87 q 399 127 448 87 q 347 239 350 165 q 401 388 353 309 q 486 505 453 467 q 521 521 499 521 q 556 505 543 521 q 640 388 589 467 q 694 239 689 309 l 694 239 z "},"":{"ha":1389,"x_min":41,"x_max":1345,"o":"m 730 1207 q 694 1215 713 1215 q 659 1207 675 1215 l 146 990 q 73 930 100 971 q 43 836 43 890 q 90 510 41 697 q 266 146 138 323 q 624 -149 391 -33 q 765 -149 694 -182 q 1123 146 998 -33 q 1299 510 1251 323 q 1345 836 1348 697 q 1316 930 1345 890 q 1242 990 1289 971 l 730 1207 l 730 1207 m 694 911 q 738 868 735 909 q 800 776 743 800 q 909 798 857 751 q 971 798 941 822 q 971 735 996 765 q 949 627 925 684 q 1042 564 974 570 q 1085 521 1082 562 q 1042 477 1082 480 q 949 415 974 472 q 971 307 925 358 q 971 244 996 274 q 909 244 939 220 q 800 266 857 290 q 738 174 743 241 q 694 130 735 133 q 651 174 654 133 q 589 266 646 241 q 480 244 532 290 q 418 244 450 220 q 418 307 393 277 q 439 415 464 358 q 347 477 415 472 q 304 521 307 480 q 347 564 307 562 q 439 627 415 570 q 418 735 464 684 q 418 798 393 765 q 480 798 450 822 q 589 776 532 751 q 651 868 646 800 q 694 911 654 909 l 694 911 m 629 521 q 694 586 689 526 q 629 651 689 646 q 564 586 570 646 q 629 521 570 526 l 629 521 m 825 434 q 781 477 822 475 q 738 434 741 475 q 781 391 741 393 q 825 434 822 393 l 825 434 z "},"":{"ha":1389,"x_min":0,"x_max":1389,"o":"m 781 955 q 806 1017 781 993 l 806 1017 q 868 1042 830 1042 q 930 1017 906 1042 q 955 955 955 993 q 979 892 955 917 q 1042 868 1004 868 q 1104 892 1080 868 q 1128 955 1128 917 q 1053 1139 1126 1066 q 868 1215 979 1213 q 684 1139 757 1213 q 608 955 610 1066 l 608 434 l 434 434 l 434 499 q 391 608 431 564 q 282 651 347 648 l 152 651 q 87 586 92 646 q 152 521 92 526 l 282 521 q 304 499 301 518 l 304 434 l 87 434 q 24 410 49 434 q 0 347 0 385 q 24 285 0 309 q 87 260 49 260 l 694 260 l 1302 260 q 1364 285 1340 260 q 1389 347 1389 309 q 1364 410 1389 385 q 1302 434 1340 434 l 1085 434 l 1085 499 q 1107 521 1088 518 l 1259 521 q 1324 586 1318 526 q 1259 651 1318 646 l 1107 651 q 998 608 1042 648 q 955 499 958 564 l 955 434 l 781 434 l 781 955 l 781 955 m 1302 87 l 1302 174 l 87 174 l 87 87 q 163 -98 90 -24 q 347 -174 236 -171 l 1042 -174 q 1226 -98 1153 -171 q 1302 87 1299 -24 l 1302 87 z "},"":{"ha":1389,"x_min":0,"x_max":1389,"o":"m 564 955 q 656 993 618 958 l 656 993 q 694 1085 692 1031 q 656 1177 692 1139 q 564 1215 618 1213 q 472 1177 510 1213 q 434 1085 437 1139 q 472 993 437 1031 q 564 955 510 958 l 564 955 m 868 521 q 990 572 941 524 l 990 572 q 1042 694 1039 621 q 990 817 1039 768 q 868 868 941 865 q 746 817 795 865 q 694 694 697 768 q 746 572 697 621 q 868 521 795 524 l 868 521 m 1128 1128 q 1104 1191 1128 1166 l 1104 1191 q 1042 1215 1080 1215 q 979 1191 1004 1215 q 955 1128 955 1166 q 979 1066 955 1090 q 1042 1042 1004 1042 q 1104 1066 1080 1042 q 1128 1128 1128 1090 l 1128 1128 m 1128 694 q 1047 505 1126 578 q 1166 410 1120 475 q 1215 260 1215 345 q 1139 76 1213 149 q 955 0 1066 3 l 434 0 q 250 76 323 3 q 174 260 176 149 q 250 445 176 372 q 434 521 323 518 l 673 521 q 608 694 610 591 l 260 694 q 76 618 149 692 q 0 434 3 545 l 0 87 q 76 -98 3 -24 q 260 -174 149 -171 l 1128 -174 q 1313 -98 1240 -171 q 1389 87 1386 -24 l 1389 434 q 1313 618 1386 545 q 1128 694 1240 692 l 1128 694 m 434 434 q 312 382 361 431 l 312 382 q 260 260 263 334 q 312 138 263 187 q 434 87 361 90 l 955 87 q 1077 138 1028 90 q 1128 260 1126 187 q 1077 382 1126 334 q 955 434 1028 431 l 868 434 l 434 434 l 434 434 z "},"":{"ha":1215,"x_min":43,"x_max":1172,"o":"m 477 1215 q 415 1191 439 1215 l 415 1191 q 391 1128 391 1166 q 415 1066 391 1090 q 477 1042 439 1042 l 521 1042 l 521 949 q 182 760 315 911 q 43 391 49 608 q 209 -8 49 152 q 608 -174 369 -168 q 1006 -8 846 -168 q 1172 391 1166 152 q 1082 697 1169 564 l 1147 762 q 1172 825 1172 789 q 1147 887 1172 860 q 1085 911 1120 911 q 1023 887 1050 911 l 966 827 q 694 949 849 922 l 694 1042 l 738 1042 q 800 1066 776 1042 q 825 1128 825 1090 q 800 1191 825 1166 q 738 1215 776 1215 l 477 1215 l 477 1215 m 781 662 q 882 621 841 659 l 882 621 q 922 521 920 581 l 922 260 q 882 160 920 201 q 781 119 841 122 q 681 160 722 122 q 640 260 643 201 l 640 521 q 681 621 643 581 q 781 662 722 659 l 781 662 m 749 521 l 749 260 q 781 228 751 231 q 814 260 811 231 l 814 521 q 781 553 811 551 q 749 521 751 551 l 749 521 m 434 553 q 401 529 410 553 l 399 526 q 331 491 380 480 q 296 559 285 510 l 298 564 q 434 662 334 656 q 534 621 494 659 q 575 518 572 581 l 575 513 q 537 415 575 458 l 431 296 q 401 228 407 266 l 521 228 q 575 174 570 222 q 521 119 570 125 l 347 119 q 293 174 298 125 l 293 217 q 350 366 293 304 l 456 486 q 467 513 467 499 l 467 518 q 431 553 464 551 l 434 553 z "},"":{"ha":1736,"x_min":0,"x_max":1736,"o":"m 106 1202 q 14 1191 54 1234 q 24 1099 -19 1139 l 1630 -160 q 1723 -149 1682 -193 q 1712 -57 1755 -98 l 1563 60 l 1563 608 l 1389 608 l 1389 195 l 1042 467 l 1042 608 l 868 608 l 868 602 l 751 694 l 1636 694 q 1706 724 1679 694 q 1736 795 1736 751 q 1720 849 1736 825 l 1514 1158 q 1405 1215 1476 1213 l 331 1215 q 222 1158 260 1213 l 201 1126 l 106 1202 l 106 1202 m 100 694 l 331 694 l 57 909 l 16 849 q 0 795 0 825 q 30 724 0 751 q 100 694 57 694 l 100 694 m 868 174 l 347 174 l 347 608 l 174 608 l 174 174 l 174 -43 q 212 -136 176 -98 q 304 -174 250 -171 l 911 -174 q 1004 -136 966 -171 q 1042 -43 1039 -98 l 1042 133 l 868 271 l 868 174 l 868 174 z "},"":{"ha":1736,"x_min":0,"x_max":1736,"o":"m 106 1202 q 14 1191 54 1234 q 24 1099 -19 1139 l 1630 -160 q 1723 -149 1682 -193 q 1712 -57 1755 -98 l 1476 127 l 1476 174 l 1476 529 q 1443 524 1459 526 l 1443 524 q 1397 521 1421 521 q 1302 534 1348 521 l 1302 263 l 817 643 q 868 686 846 662 q 1044 608 936 610 q 1221 686 1156 610 q 1400 608 1289 610 q 1432 610 1416 608 q 1590 732 1546 632 q 1573 933 1630 833 l 1416 1180 q 1351 1215 1394 1215 l 385 1215 q 320 1180 342 1215 l 258 1082 l 106 1202 l 106 1202 m 304 610 q 336 608 320 608 q 420 624 382 608 l 133 849 q 168 694 122 765 q 304 610 214 624 l 304 610 m 434 174 l 434 534 q 336 521 388 521 q 293 524 315 521 l 293 524 q 260 529 277 526 l 260 174 l 260 0 q 312 -122 263 -73 q 434 -174 361 -171 l 1302 -174 q 1397 -146 1356 -174 l 993 174 l 434 174 l 434 174 z "},"":{"ha":1736,"x_min":0,"x_max":1736,"o":"m 106 1202 q 14 1191 54 1234 q 24 1099 -19 1139 l 1630 -160 q 1723 -149 1682 -193 q 1712 -57 1755 -98 l 1413 176 q 1581 342 1516 198 q 1649 694 1647 486 q 1573 1063 1647 917 q 1389 1215 1500 1210 q 1204 1063 1278 1210 q 1128 694 1131 917 q 1194 347 1131 491 l 1034 472 q 1042 694 1042 575 q 1074 971 1039 830 q 1204 1215 1112 1109 l 434 1215 q 260 1080 331 1210 l 106 1202 l 106 1202 m 182 814 q 174 694 174 757 q 155 345 174 488 q 111 114 136 201 q 57 -43 92 33 q 54 -130 33 -87 q 130 -174 81 -171 l 776 -174 q 863 -149 822 -174 q 925 -76 903 -125 q 996 171 958 -5 l 182 814 l 182 814 m 1476 694 q 1451 572 1476 621 l 1451 572 q 1389 521 1427 524 q 1326 572 1351 524 q 1302 694 1302 621 q 1326 817 1302 768 q 1389 868 1351 865 q 1451 817 1427 865 q 1476 694 1476 768 l 1476 694 z "},"":{"ha":1736,"x_min":0,"x_max":1736,"o":"m 106 1202 q 14 1191 54 1234 q 24 1099 -19 1139 l 1630 -160 q 1723 -149 1682 -193 q 1712 -57 1755 -98 l 1196 347 l 1679 347 q 1736 404 1731 353 q 1652 610 1733 529 q 1446 694 1571 692 l 1332 694 q 1210 667 1267 694 q 1215 608 1215 637 q 1139 391 1213 483 l 1072 445 q 1128 608 1126 513 q 1053 792 1126 719 q 868 868 979 865 q 662 765 738 863 l 551 852 q 608 998 605 911 q 545 1153 605 1090 q 391 1215 483 1213 q 212 1118 274 1210 l 106 1202 l 106 1202 m 290 694 q 84 610 165 692 l 84 610 q 0 404 3 529 q 57 347 5 353 l 637 347 q 637 347 637 347 q 637 347 637 347 q 529 540 553 423 l 331 694 l 290 694 l 290 694 m 708 260 q 453 155 556 258 l 453 155 q 347 -100 350 52 q 420 -174 353 -168 l 1316 -174 q 1381 -133 1362 -171 l 882 260 l 708 260 l 708 260 m 1389 781 q 1544 844 1481 784 l 1544 844 q 1606 998 1603 906 q 1544 1153 1603 1090 q 1389 1215 1481 1213 q 1234 1153 1297 1213 q 1172 998 1175 1090 q 1234 844 1175 906 q 1389 781 1297 784 l 1389 781 z "},"":{"ha":1389,"x_min":0,"x_max":1389,"o":"m 781 1128 q 757 1191 781 1166 l 757 1191 q 694 1215 732 1215 q 632 1191 656 1215 q 608 1128 608 1166 l 608 1096 q 513 958 600 993 q 347 990 429 922 l 326 1012 q 266 1036 298 1036 q 203 1012 231 1036 q 179 949 179 985 q 203 890 179 917 l 225 865 q 258 703 293 787 q 119 608 222 616 l 87 608 q 24 583 49 608 q 0 521 0 559 q 24 458 0 483 q 87 434 49 434 l 119 434 q 258 339 222 426 q 225 174 293 255 l 203 152 q 179 92 179 125 q 203 30 179 57 q 266 5 231 5 q 326 30 298 5 l 350 52 q 515 84 429 119 q 608 -54 600 49 l 608 -87 q 632 -149 608 -125 q 694 -174 656 -174 q 757 -149 732 -174 q 781 -87 781 -125 l 781 -57 q 876 84 789 49 q 1042 52 963 119 l 1063 30 q 1126 5 1090 5 q 1185 30 1158 5 q 1213 92 1213 57 q 1185 152 1213 125 l 1164 174 q 1131 339 1096 255 q 1272 434 1166 426 l 1302 434 q 1364 458 1340 434 q 1389 521 1389 483 q 1364 583 1389 559 q 1302 608 1340 608 l 1272 608 q 1131 703 1166 616 q 1164 868 1096 787 l 1185 890 q 1210 949 1210 917 q 1185 1012 1210 985 q 1123 1036 1158 1036 q 1063 1012 1090 1036 l 1042 990 q 876 958 960 922 q 781 1096 789 993 l 781 1128 l 781 1128 m 738 608 q 700 515 735 553 l 700 515 q 608 477 662 480 q 515 515 553 480 q 477 608 480 553 q 515 700 480 662 q 608 738 553 735 q 700 700 662 735 q 738 608 735 662 l 738 608 m 825 326 q 760 391 765 331 q 825 456 765 450 q 890 391 884 450 q 825 326 884 331 l 825 326 z "},"":{"ha":1736,"x_min":0,"x_max":1736,"o":"m 106 1202 q 14 1191 54 1234 q 24 1099 -19 1139 l 1630 -160 q 1723 -149 1682 -193 q 1712 -57 1755 -98 l 1294 271 q 1332 382 1289 334 q 1446 434 1373 431 l 1476 434 q 1538 458 1514 434 q 1563 521 1563 483 q 1538 583 1563 559 q 1476 608 1514 608 l 1446 608 q 1305 703 1340 616 q 1337 868 1270 787 l 1359 890 q 1383 949 1383 917 q 1359 1012 1383 985 q 1297 1036 1332 1036 q 1237 1012 1264 1036 l 1215 990 q 1050 958 1134 922 q 955 1096 963 993 l 955 1128 q 930 1191 955 1166 q 868 1215 906 1215 q 806 1191 830 1215 q 781 1128 781 1166 l 781 1096 q 686 958 773 993 q 521 990 602 922 l 499 1012 q 439 1036 472 1036 q 377 1012 404 1036 q 366 998 369 1006 l 106 1202 l 106 1202 m 719 722 q 781 738 746 738 q 873 700 836 735 q 911 608 909 662 q 906 572 911 589 l 719 722 l 719 722 m 293 608 l 260 608 q 198 583 222 608 q 174 521 174 559 q 198 458 174 483 q 260 434 222 434 l 293 434 q 431 339 396 426 q 399 174 467 255 l 377 152 q 353 92 353 125 q 377 30 353 57 q 439 5 404 5 q 499 30 472 5 l 521 52 q 686 84 602 119 q 781 -57 773 49 l 781 -87 q 806 -149 781 -125 q 868 -174 830 -174 q 930 -149 906 -174 q 955 -87 955 -125 l 955 -57 q 996 49 958 8 q 1090 95 1036 90 l 393 646 q 293 608 353 610 l 293 608 z "},"":{"ha":1736,"x_min":0,"x_max":1736,"o":"m 521 1215 q 586 1150 581 1210 l 586 1112 q 654 1015 591 1039 q 770 1036 713 987 l 798 1063 q 890 1063 844 1101 q 890 971 928 1017 l 863 944 q 841 827 814 887 q 941 760 865 765 l 977 760 q 1042 694 1036 754 q 977 629 1036 635 l 941 629 q 841 562 865 624 q 863 445 814 502 l 890 418 q 890 326 928 372 q 798 326 844 288 l 770 353 q 654 374 713 401 q 586 274 591 350 l 586 239 q 521 174 581 179 q 456 239 461 179 l 456 274 q 388 374 450 350 q 271 353 328 401 l 244 326 q 152 326 198 288 q 152 418 114 372 l 179 445 q 201 562 228 502 q 103 629 176 624 l 65 629 q 0 694 5 635 q 65 760 5 754 l 103 760 q 201 827 176 765 q 179 944 228 887 l 152 971 q 152 1063 114 1017 q 244 1063 198 1101 l 271 1036 q 388 1015 328 987 q 456 1112 450 1039 l 456 1150 q 521 1215 461 1210 l 521 1215 m 651 608 q 694 651 692 610 q 651 694 692 692 q 608 651 610 692 q 651 608 610 610 l 651 608 m 521 781 q 496 844 521 819 l 496 844 q 434 868 472 868 q 372 844 396 868 q 347 781 347 819 q 372 719 347 743 q 434 694 396 694 q 496 719 472 694 q 521 781 521 743 l 521 781 m 1389 564 q 1451 472 1394 496 l 1451 472 q 1560 494 1508 448 q 1622 494 1592 518 q 1622 431 1647 461 q 1600 323 1576 380 q 1693 260 1625 266 q 1736 217 1733 258 q 1693 174 1733 176 q 1600 111 1625 168 q 1622 3 1576 54 q 1622 -60 1647 -30 q 1560 -60 1592 -84 q 1451 -38 1508 -14 q 1389 -130 1394 -62 q 1345 -174 1386 -171 q 1302 -130 1305 -171 q 1240 -38 1297 -62 q 1131 -60 1183 -14 q 1069 -60 1099 -84 q 1069 3 1044 -27 q 1090 111 1115 54 q 998 174 1066 168 q 955 217 958 176 q 998 260 958 258 q 1090 323 1066 266 q 1069 431 1115 380 q 1069 494 1044 464 q 1131 494 1101 518 q 1240 472 1183 448 q 1302 564 1297 496 q 1345 608 1305 605 q 1389 564 1386 605 l 1389 564 m 1389 260 q 1364 323 1389 298 l 1364 323 q 1302 347 1340 347 q 1240 323 1264 347 q 1215 260 1215 298 q 1240 198 1215 222 q 1302 174 1264 174 q 1364 198 1340 174 q 1389 260 1389 222 l 1389 260 z "},"":{"ha":1215,"x_min":0,"x_max":1215,"o":"m 562 572 l 410 1025 q 608 977 480 982 q 806 1025 735 982 l 616 453 q 608 412 608 434 l 608 -43 q 646 -136 610 -98 q 738 -174 684 -171 l 1085 -174 q 1177 -136 1139 -171 q 1215 -43 1213 -98 l 1215 480 q 1194 553 1215 521 l 1063 749 q 1042 822 1042 781 l 1042 868 l 1042 1069 l 1042 1085 q 1004 1177 1039 1139 q 911 1215 966 1213 l 898 1215 q 898 1215 898 1215 q 898 1215 898 1215 q 895 1215 895 1215 q 895 1215 895 1215 q 776 1164 817 1207 q 716 1126 757 1145 q 608 1107 675 1109 q 499 1126 540 1109 q 439 1164 458 1145 q 320 1215 399 1207 q 320 1215 320 1215 q 317 1215 317 1215 q 317 1215 317 1215 q 317 1215 317 1215 l 304 1215 q 212 1177 250 1213 q 174 1085 176 1139 l 174 1069 l 174 868 l 174 819 q 152 749 174 781 l 22 553 q 0 480 0 521 l 0 -43 q 38 -136 3 -98 q 130 -174 76 -171 l 477 -174 q 551 -152 518 -174 q 521 -43 521 -103 l 521 412 q 532 480 521 448 l 562 572 l 562 572 m 941 247 l 1072 117 q 1072 57 1099 87 q 1012 57 1042 30 l 882 187 q 882 247 854 217 q 941 247 911 274 l 941 247 m 144 117 l 274 247 q 334 247 304 274 q 334 187 361 217 l 203 57 q 144 57 174 30 q 144 117 117 87 l 144 117 z "},"":{"ha":1215,"x_min":0,"x_max":1215,"o":"m 410 1025 l 562 572 l 532 480 q 521 412 521 448 l 521 -43 q 551 -152 521 -103 q 477 -174 518 -174 l 130 -174 q 38 -136 76 -171 q 0 -43 3 -98 l 0 480 q 22 553 0 521 l 152 749 q 174 822 174 781 l 174 868 l 174 1069 l 174 1085 q 212 1177 176 1139 q 304 1215 250 1213 l 317 1215 q 317 1215 317 1215 q 317 1215 317 1215 q 320 1215 317 1215 q 320 1215 320 1215 q 439 1164 399 1207 q 499 1126 458 1145 q 608 1107 540 1109 q 716 1126 675 1109 q 776 1164 757 1145 q 895 1215 817 1207 q 895 1215 895 1215 q 898 1215 898 1215 q 898 1215 898 1215 q 901 1215 898 1215 l 911 1215 q 1004 1177 966 1213 q 1042 1085 1039 1139 l 1042 1069 l 1042 868 l 1042 819 q 1063 749 1042 781 l 1194 553 q 1215 480 1215 521 l 1215 -43 q 1177 -136 1215 -98 q 1085 -174 1139 -171 l 738 -174 q 646 -136 684 -171 q 608 -43 610 -98 l 608 412 q 616 453 608 434 l 806 1025 q 608 977 735 982 q 410 1025 480 982 l 410 1025 m 260 -22 q 336 11 307 -22 l 336 11 q 369 87 369 41 q 336 163 369 133 q 260 195 307 195 q 184 163 214 195 q 152 87 152 133 q 184 11 152 41 q 260 -22 214 -22 l 260 -22 m 174 521 q 174 475 152 499 l 214 434 l 174 391 q 174 345 152 369 q 220 345 195 326 l 260 388 l 304 345 q 350 345 326 326 q 350 391 369 369 l 307 434 l 350 475 q 350 521 369 499 q 304 521 326 543 l 260 480 l 220 521 q 174 521 195 543 l 174 521 m 825 456 l 825 434 l 825 347 q 868 304 827 307 l 955 304 l 977 304 q 1042 369 1036 309 q 977 434 1036 429 l 955 434 l 955 456 q 890 521 949 515 q 825 456 830 515 l 825 456 z "},"":{"ha":1563,"x_min":0,"x_max":1563,"o":"m 1042 260 q 979 236 1004 260 l 979 236 q 955 174 955 212 q 979 111 955 136 q 1042 87 1004 87 l 1476 87 q 1538 111 1514 87 q 1563 174 1563 136 l 1563 608 q 1538 670 1563 646 q 1476 694 1514 694 q 1413 670 1438 694 q 1389 608 1389 646 l 1389 382 l 930 844 q 868 868 903 868 q 806 844 833 868 l 521 556 l 149 930 q 87 955 122 955 q 24 930 52 955 q 0 868 0 903 q 24 806 0 833 l 458 372 q 521 347 486 347 q 583 372 556 347 l 868 659 l 1267 260 l 1042 260 l 1042 260 z "},"":{"ha":1563,"x_min":0,"x_max":1563,"o":"m 1042 781 q 979 806 1004 781 l 979 806 q 955 868 955 830 q 979 930 955 906 q 1042 955 1004 955 l 1476 955 q 1538 930 1514 955 q 1563 868 1563 906 l 1563 434 q 1538 372 1563 396 q 1476 347 1514 347 q 1413 372 1438 347 q 1389 434 1389 396 l 1389 659 l 930 198 q 868 174 903 174 q 806 198 833 174 l 521 486 l 149 111 q 87 87 122 87 q 24 111 52 87 q 0 174 0 138 q 24 236 0 209 l 458 670 q 521 694 486 694 q 583 670 556 694 l 868 382 l 1267 781 l 1042 781 l 1042 781 z "},"":{"ha":1215,"x_min":0,"x_max":1215,"o":"m 670 1191 q 608 1215 643 1215 l 608 1215 q 545 1191 572 1215 l 198 844 q 174 781 174 817 q 198 719 174 746 q 260 694 225 694 q 323 719 296 694 l 521 920 l 521 347 q 545 285 521 309 q 608 260 570 260 q 670 285 646 260 q 694 347 694 309 l 694 920 l 892 719 q 955 694 920 694 q 1017 719 990 694 q 1042 781 1042 746 q 1017 844 1042 817 l 670 1191 l 670 1191 m 174 260 q 149 323 174 298 l 149 323 q 87 347 125 347 q 24 323 49 347 q 0 260 0 298 l 0 87 q 76 -98 3 -24 q 260 -174 149 -171 l 955 -174 q 1139 -98 1066 -171 q 1215 87 1213 -24 l 1215 260 q 1191 323 1215 298 q 1128 347 1166 347 q 1066 323 1090 347 q 1042 260 1042 298 l 1042 87 q 1017 24 1042 49 q 955 0 993 0 l 260 0 q 198 24 222 0 q 174 87 174 49 l 174 260 l 174 260 z "},"":{"ha":1215,"x_min":0,"x_max":1215,"o":"m 689 1074 q 608 1128 665 1126 q 529 1074 551 1126 l 334 608 l 87 608 q 24 583 49 608 q 0 521 0 559 q 24 458 0 483 q 87 434 49 434 l 260 434 l 225 347 l 87 347 q 24 323 49 347 q 0 260 0 298 q 24 198 0 222 q 87 174 49 174 l 152 174 l 95 33 q 92 -33 81 0 q 141 -81 106 -65 q 206 -81 174 -92 q 255 -33 239 -68 l 339 174 l 876 174 l 963 -33 q 1009 -81 977 -68 q 1074 -81 1042 -92 q 1123 -33 1109 -65 q 1123 33 1134 0 l 1063 174 l 1128 174 q 1191 198 1166 174 q 1215 260 1215 222 q 1191 323 1215 298 q 1128 347 1166 347 l 990 347 l 955 434 l 1128 434 q 1191 458 1166 434 q 1215 521 1215 483 q 1191 583 1215 559 q 1128 608 1166 608 l 882 608 l 689 1074 l 689 1074 m 694 608 l 521 608 l 608 817 l 694 608 l 694 608 m 448 434 l 768 434 l 803 347 l 412 347 l 448 434 l 448 434 z "},"":{"ha":868,"x_min":0,"x_max":868,"o":"m 391 1215 q 328 1191 353 1215 l 328 1191 q 304 1128 304 1166 l 304 1042 l 103 1042 q 30 1012 60 1042 q 0 939 0 982 l 0 608 l 0 494 l 0 434 l 0 114 q 33 33 0 65 q 114 0 65 0 l 304 0 l 304 -87 q 328 -149 304 -125 q 391 -174 353 -174 q 453 -149 429 -174 q 477 -87 477 -125 l 477 0 l 564 0 q 779 90 694 3 q 868 304 865 174 q 830 453 868 385 q 724 562 789 521 q 781 738 779 637 q 692 952 779 868 q 477 1042 608 1039 l 477 1128 q 453 1191 477 1166 q 391 1215 429 1215 l 391 1215 m 304 868 l 304 608 l 174 608 l 174 868 l 304 868 l 304 868 m 477 608 l 477 868 q 570 830 532 865 q 608 738 605 792 q 570 646 605 684 q 477 608 532 610 l 477 608 m 304 434 l 304 174 l 174 174 l 174 434 l 304 434 l 304 434 m 477 174 l 477 434 l 564 434 q 656 396 618 431 q 694 304 692 358 q 656 212 692 250 q 564 174 618 176 l 477 174 l 477 174 z "},"":{"ha":868,"x_min":0,"x_max":868,"o":"m 130 1128 q 155 1191 130 1166 l 155 1191 q 217 1215 179 1215 q 279 1191 255 1215 q 304 1128 304 1166 l 304 1042 l 391 1042 l 391 1128 q 415 1191 391 1166 q 477 1215 439 1215 q 540 1191 515 1215 q 564 1128 564 1166 l 564 1042 q 564 1028 564 1036 q 719 922 659 1001 q 781 738 779 844 q 724 562 779 637 q 830 453 789 521 q 868 304 868 385 q 779 90 865 174 q 564 0 694 3 l 564 -87 q 540 -149 564 -125 q 477 -174 515 -174 q 415 -149 439 -174 q 391 -87 391 -125 l 391 0 l 304 0 l 304 -87 q 279 -149 304 -125 q 217 -174 255 -174 q 155 -149 179 -174 q 130 -87 130 -125 l 130 0 l 114 0 q 33 33 65 0 q 0 114 0 65 l 0 434 l 0 494 l 0 608 l 0 939 q 30 1012 0 982 q 103 1042 60 1042 l 130 1042 l 130 1128 l 130 1128 m 174 608 l 477 608 q 570 646 532 610 q 608 738 605 684 q 570 830 605 792 q 477 868 532 865 l 174 868 l 174 608 l 174 608 m 477 434 l 174 434 l 174 174 l 564 174 q 656 212 618 176 q 694 304 692 250 q 656 396 692 358 q 564 434 618 431 l 477 434 l 477 434 z "},"":{"ha":1042,"x_min":0,"x_max":1042,"o":"m 0 521 l 79 1139 q 163 1215 92 1210 l 621 1215 q 673 1194 651 1215 q 694 1142 694 1172 q 689 1115 694 1128 l 564 781 l 941 781 q 1012 751 985 781 q 1042 681 1042 724 q 1025 627 1042 651 l 502 -136 q 434 -174 477 -174 l 426 -174 q 369 -152 393 -174 q 347 -98 347 -130 q 350 -79 347 -87 l 477 434 l 87 434 q 24 458 49 434 q 0 521 0 483 l 0 521 z "},"":{"ha":1215,"x_min":0,"x_max":1215,"o":"m 0 955 q 76 1139 3 1066 l 76 1139 q 260 1215 149 1213 l 521 1215 l 521 697 q 545 659 524 670 q 591 665 567 648 l 738 781 l 884 665 q 930 659 909 648 q 955 697 952 670 l 955 1215 l 1042 1215 l 1128 1215 q 1191 1191 1166 1215 q 1215 1128 1215 1166 l 1215 260 q 1191 198 1215 222 q 1128 174 1166 174 l 1128 0 q 1191 -24 1166 0 q 1215 -87 1215 -49 q 1191 -149 1215 -125 q 1128 -174 1166 -174 l 1042 -174 l 260 -174 q 76 -98 149 -171 q 0 87 3 -24 l 0 955 l 0 955 m 174 87 q 198 24 174 49 l 198 24 q 260 0 222 0 l 955 0 l 955 174 l 260 174 q 198 149 222 174 q 174 87 174 125 l 174 87 z "},"":{"ha":1389,"x_min":0,"x_max":1389,"o":"m 404 1039 l 377 955 l 174 955 q 52 903 100 952 q 0 781 3 854 l 0 87 q 52 -35 3 14 q 174 -87 100 -84 l 1215 -87 q 1337 -35 1289 -84 q 1389 87 1386 14 l 1389 781 q 1337 903 1386 854 q 1215 955 1289 952 l 1012 955 l 985 1039 q 860 1128 952 1123 l 529 1128 q 404 1039 437 1123 l 404 1039 m 1042 521 q 998 477 1039 480 l 789 477 q 760 507 762 480 q 768 529 760 521 l 833 594 q 694 651 776 651 q 556 594 613 651 l 502 540 q 410 540 456 502 q 410 632 372 586 l 464 686 q 694 781 559 779 q 925 686 827 779 l 990 751 q 1012 760 998 760 q 1042 730 1039 757 l 1042 521 l 1042 521 m 347 347 q 391 391 350 388 l 600 391 q 629 361 627 388 q 621 339 629 347 l 556 274 q 694 217 613 217 q 833 274 776 217 l 887 328 q 979 328 933 366 q 979 236 1017 282 l 925 182 q 694 87 830 90 q 464 182 562 90 l 399 117 q 377 109 391 109 q 347 138 350 111 l 347 347 l 347 347 z "},"":{"ha":1042,"x_min":87,"x_max":955,"o":"m 694 1128 q 670 1191 694 1166 l 670 1191 q 608 1215 646 1215 q 545 1191 570 1215 q 521 1128 521 1166 l 521 1034 q 212 860 331 998 q 87 521 90 719 q 212 182 90 323 q 521 8 331 43 l 521 -87 q 545 -149 521 -125 q 608 -174 570 -174 q 670 -149 646 -174 q 694 -87 694 -125 l 694 8 q 920 103 822 30 q 955 163 949 127 q 939 225 958 195 q 882 260 914 255 q 817 244 846 266 q 694 184 762 203 l 694 857 q 817 798 762 841 q 882 781 846 779 q 939 817 914 787 q 955 882 958 846 q 920 939 949 914 q 694 1034 822 1012 l 694 1128 l 694 1128 m 521 857 l 521 184 q 334 307 407 214 q 260 521 263 396 q 334 735 263 646 q 521 857 407 827 l 521 857 z "},"":{"ha":1389,"x_min":0,"x_max":1389,"o":"m 87 1128 q 149 1104 125 1128 l 149 1104 q 174 1042 174 1080 l 174 130 q 217 87 176 90 l 1302 87 q 1364 62 1340 87 q 1389 0 1389 38 q 1364 -62 1389 -38 q 1302 -87 1340 -87 l 217 -87 q 62 -24 125 -84 q 0 130 3 38 l 0 1042 q 24 1104 0 1080 q 87 1128 49 1128 l 87 1128 m 434 608 q 496 583 472 608 l 496 583 q 521 521 521 559 l 521 347 q 496 285 521 309 q 434 260 472 260 q 372 285 396 260 q 347 347 347 309 l 347 521 q 372 583 347 559 q 434 608 396 608 l 434 608 m 781 781 l 781 347 q 757 285 781 309 q 694 260 732 260 q 632 285 656 260 q 608 347 608 309 l 608 781 q 632 844 608 819 q 694 868 656 868 q 757 844 732 868 q 781 781 781 819 l 781 781 m 955 694 q 1017 670 993 694 l 1017 670 q 1042 608 1042 646 l 1042 347 q 1017 285 1042 309 q 955 260 993 260 q 892 285 917 260 q 868 347 868 309 l 868 608 q 892 670 868 646 q 955 694 917 694 l 955 694 m 1302 955 l 1302 347 q 1278 285 1302 309 q 1215 260 1253 260 q 1153 285 1177 260 q 1128 347 1128 309 l 1128 955 q 1153 1017 1128 993 q 1215 1042 1177 1042 q 1278 1017 1253 1042 q 1302 955 1302 993 l 1302 955 z "},"":{"ha":1389,"x_min":0,"x_max":1389,"o":"m 87 1128 q 149 1104 125 1128 l 149 1104 q 174 1042 174 1080 l 174 130 q 217 87 176 90 l 1302 87 q 1364 62 1340 87 q 1389 0 1389 38 q 1364 -62 1389 -38 q 1302 -87 1340 -87 l 217 -87 q 62 -24 125 -84 q 0 130 3 38 l 0 1042 q 24 1104 0 1080 q 87 1128 49 1128 l 87 1128 m 347 868 q 372 930 347 906 l 372 930 q 434 955 396 955 l 694 955 q 757 930 732 955 q 781 868 781 906 q 757 806 781 830 q 694 781 732 781 l 434 781 q 372 806 396 781 q 347 868 347 830 l 347 868 m 608 694 l 955 694 q 1017 670 993 694 q 1042 608 1042 646 q 1017 545 1042 570 q 955 521 993 521 l 608 521 q 545 545 570 521 q 521 608 521 570 q 545 670 521 646 q 608 694 570 694 l 608 694 m 1042 434 l 1215 434 q 1278 410 1253 434 q 1302 347 1302 385 q 1278 285 1302 309 q 1215 260 1253 260 l 1042 260 q 979 285 1004 260 q 955 347 955 309 q 979 410 955 385 q 1042 434 1004 434 l 1042 434 z "},"":{"ha":1389,"x_min":0,"x_max":1389,"o":"m 1215 1128 l 982 1128 l 979 1126 l 635 781 l 884 781 l 887 784 l 1232 1128 q 1215 1128 1223 1128 l 1215 1128 m 1389 781 l 1389 955 q 1351 1063 1389 1017 l 1069 781 l 1389 781 l 1389 781 m 798 1128 l 548 1128 l 545 1126 l 201 781 l 450 781 l 453 784 l 798 1128 l 798 1128 m 174 1128 q 52 1077 100 1126 l 52 1077 q 0 955 3 1028 l 0 781 l 16 781 l 19 784 l 363 1128 l 174 1128 l 174 1128 m 1389 694 l 0 694 l 0 87 q 52 -35 3 14 q 174 -87 100 -84 l 1215 -87 q 1337 -35 1289 -84 q 1389 87 1386 14 l 1389 694 l 1389 694 z "},"":{"ha":1215,"x_min":0,"x_max":1215,"o":"m 469 1128 q 353 1080 399 1126 l 353 1080 q 304 963 307 1034 l 304 949 q 328 857 304 901 l 380 770 q 382 760 385 765 q 377 751 382 754 q 369 746 372 746 q 355 749 363 743 l 271 798 q 179 825 228 825 l 165 825 q 49 776 95 822 q 0 659 3 730 q 49 540 0 591 l 52 537 q 52 505 65 521 l 49 502 q 0 382 0 450 q 49 266 3 312 q 165 217 95 220 l 179 217 q 271 241 228 217 l 358 293 q 369 296 363 298 q 377 290 374 296 q 382 282 382 285 q 380 269 385 277 l 331 184 q 304 92 304 141 l 304 79 q 353 -38 307 8 q 469 -87 399 -84 q 589 -38 540 -87 l 591 -35 q 624 -35 608 -22 l 627 -38 q 746 -87 678 -87 q 863 -38 817 -84 q 911 79 909 8 l 911 92 q 887 184 911 141 l 836 269 q 833 282 830 277 q 838 290 833 285 q 849 296 844 296 q 860 293 852 298 l 944 241 q 1036 217 987 217 l 1050 217 q 1166 266 1120 220 q 1215 382 1215 312 q 1166 502 1215 450 l 1164 505 q 1164 537 1150 521 l 1166 540 q 1215 659 1215 591 q 1166 776 1215 730 q 1050 825 1120 822 l 1036 825 q 944 800 987 825 l 860 749 q 849 746 852 743 q 838 751 844 746 q 833 760 833 757 q 836 773 830 765 l 887 857 q 911 949 911 901 l 911 963 q 863 1080 909 1034 q 746 1128 817 1126 q 627 1080 678 1128 l 624 1077 q 591 1077 608 1063 l 589 1080 q 469 1128 537 1128 l 469 1128 z "},"":{"ha":1389,"x_min":0,"x_max":1389,"o":"m 868 -109 q 830 -168 865 -149 q 760 -157 792 -182 l 543 38 q 521 87 521 57 q 543 136 521 117 l 760 331 q 830 342 792 355 q 868 282 865 323 l 868 174 l 911 174 q 1034 225 985 176 q 1085 347 1082 274 l 1085 800 q 990 879 1025 825 q 955 998 955 930 q 1017 1153 958 1090 q 1172 1215 1080 1213 q 1326 1153 1264 1213 q 1389 998 1386 1090 q 1354 879 1389 930 q 1259 800 1318 825 l 1259 347 q 1158 100 1256 201 q 911 0 1058 3 l 868 0 l 868 -109 l 868 -109 m 1237 998 q 1172 1063 1232 1058 q 1107 998 1112 1058 q 1172 933 1112 939 q 1237 998 1232 939 l 1237 998 m 521 1150 q 559 1210 524 1191 q 629 1199 597 1223 l 846 1004 q 868 955 868 985 q 846 906 868 925 l 629 711 q 559 700 597 686 q 521 760 524 719 l 521 868 l 477 868 q 355 817 404 865 q 304 694 307 768 l 304 241 q 399 163 363 217 q 434 43 434 111 q 372 -111 431 -49 q 217 -174 309 -171 q 62 -111 125 -171 q 0 43 3 -49 q 35 163 0 111 q 130 241 71 217 l 130 694 q 231 941 133 841 q 477 1042 331 1039 l 521 1042 l 521 1150 l 521 1150 m 152 43 q 217 -22 157 -16 q 282 43 277 -16 q 217 109 277 103 q 152 43 157 103 l 152 43 z "},"":{"ha":1215,"x_min":0,"x_max":1215,"o":"m 217 933 q 282 998 277 939 q 217 1063 277 1058 q 152 998 157 1058 q 217 933 157 939 l 217 933 m 434 998 q 399 879 434 930 l 399 879 q 304 800 363 825 l 304 694 q 328 632 304 656 q 391 608 353 608 l 825 608 q 887 632 863 608 q 911 694 911 656 l 911 800 q 817 879 852 825 q 781 998 781 930 q 844 1153 784 1090 q 998 1215 906 1213 q 1153 1153 1090 1213 q 1215 998 1213 1090 q 1180 879 1215 930 q 1085 800 1145 825 l 1085 694 q 1009 510 1082 583 q 825 434 936 437 l 694 434 l 694 241 q 789 163 754 217 q 825 43 825 111 q 762 -111 822 -49 q 608 -174 700 -171 q 453 -111 515 -171 q 391 43 393 -49 q 426 163 391 111 q 521 241 461 217 l 521 434 l 391 434 q 206 510 279 437 q 130 694 133 583 l 130 800 q 35 879 71 825 q 0 998 0 930 q 62 1153 3 1090 q 217 1215 125 1213 q 372 1153 309 1213 q 434 998 431 1090 l 434 998 m 998 933 q 1063 998 1058 939 q 998 1063 1058 1058 q 933 998 939 1058 q 998 933 939 939 l 998 933 m 673 43 q 608 109 667 103 q 543 43 548 103 q 608 -22 548 -16 q 673 43 667 -16 l 673 43 z "},"":{"ha":1389,"x_min":0,"x_max":1389,"o":"m 830 1210 q 868 1150 865 1191 l 868 1042 l 911 1042 q 1158 941 1058 1039 q 1259 694 1256 841 l 1259 241 q 1354 163 1318 217 q 1389 43 1389 111 q 1326 -111 1386 -49 q 1172 -174 1264 -171 q 1017 -111 1080 -171 q 955 43 958 -49 q 990 163 955 111 q 1085 241 1025 217 l 1085 694 q 1034 817 1082 768 q 911 868 985 865 l 868 868 l 868 760 q 830 700 865 719 q 760 711 792 686 l 543 906 q 521 955 521 925 q 543 1004 521 985 l 760 1199 q 830 1210 792 1223 l 830 1210 m 282 998 q 217 1063 277 1058 q 152 998 157 1058 q 217 933 157 939 q 282 998 277 939 l 282 998 m 304 800 l 304 241 q 399 163 363 217 q 434 43 434 111 q 372 -111 431 -49 q 217 -174 309 -171 q 62 -111 125 -171 q 0 43 3 -49 q 35 163 0 111 q 130 241 71 217 l 130 800 q 35 879 71 825 q 0 998 0 930 q 62 1153 3 1090 q 217 1215 125 1213 q 372 1153 309 1213 q 434 998 431 1090 q 399 879 434 930 q 304 800 363 825 l 304 800 m 282 43 q 217 109 277 103 q 152 43 157 103 q 217 -22 157 -16 q 282 43 277 -16 l 282 43 m 1172 -22 q 1237 43 1232 -16 q 1172 109 1232 103 q 1107 43 1112 103 q 1172 -22 1112 -16 l 1172 -22 z "},"":{"ha":1042,"x_min":87,"x_max":955,"o":"m 692 1107 q 681 1172 700 1142 l 681 1172 q 629 1213 665 1202 q 562 1202 591 1221 q 524 1150 534 1185 l 494 1028 q 203 849 315 987 q 87 521 90 711 q 136 301 87 401 q 269 127 184 198 l 220 -65 q 231 -130 212 -100 q 282 -171 247 -160 q 350 -160 320 -179 q 388 -109 377 -144 l 423 33 q 499 11 461 19 l 480 -65 q 491 -130 472 -100 q 543 -171 507 -160 q 610 -160 581 -179 q 648 -109 637 -144 l 678 5 q 920 103 814 24 q 955 160 949 127 q 939 225 960 195 q 882 260 914 255 q 817 244 846 263 q 724 193 773 212 l 871 781 q 939 817 911 784 q 955 882 958 846 q 920 939 949 914 q 917 939 920 939 q 911 944 914 941 l 952 1107 q 941 1172 960 1142 q 890 1213 925 1202 q 822 1202 852 1221 q 784 1150 795 1185 l 751 1020 q 675 1036 713 1031 l 692 1107 l 692 1107 m 442 827 l 317 328 q 260 521 263 412 q 312 700 260 621 q 442 827 361 781 l 442 827 m 467 203 l 632 868 q 711 854 673 865 l 543 179 q 467 203 502 187 l 467 203 z "},"":{"ha":1215,"x_min":87,"x_max":1128,"o":"m 260 521 q 388 827 266 705 l 388 827 q 694 955 510 949 q 985 844 865 952 q 1047 822 1012 819 q 1107 852 1082 825 q 1128 914 1131 879 q 1099 974 1126 949 q 694 1128 933 1123 q 388 1044 524 1126 q 171 827 250 966 q 87 521 90 692 q 171 214 90 350 q 388 -3 250 76 q 694 -87 524 -84 q 1099 68 933 -81 q 1128 127 1126 92 q 1107 190 1131 163 q 1047 220 1080 217 q 985 198 1012 222 q 694 87 865 90 l 694 347 l 694 372 q 757 434 700 429 q 792 423 776 434 l 819 404 q 884 393 852 385 q 941 429 920 399 q 952 494 960 461 q 917 551 947 529 l 890 567 q 757 608 830 608 q 662 589 708 608 q 608 608 640 608 q 545 583 570 608 q 521 521 521 559 l 521 372 l 521 347 l 521 122 q 334 279 404 176 q 260 521 263 385 l 260 521 z "},"":{"ha":1563,"x_min":0,"x_max":1563,"o":"m 174 1215 q 52 1164 100 1213 l 52 1164 q 0 1042 3 1115 l 0 260 q 52 138 3 187 q 174 87 100 90 l 651 87 l 621 0 l 434 0 q 372 -24 396 0 q 347 -87 347 -49 q 372 -149 347 -125 q 434 -174 396 -174 l 1128 -174 q 1191 -149 1166 -174 q 1215 -87 1215 -125 q 1191 -24 1215 -49 q 1128 0 1166 0 l 941 0 l 911 87 l 1389 87 q 1511 138 1462 90 q 1563 260 1560 187 l 1563 1042 q 1511 1164 1560 1115 q 1389 1215 1462 1213 l 174 1215 l 174 1215 m 1389 1042 l 1389 260 l 174 260 l 174 1042 l 1389 1042 l 1389 1042 z "},"":{"ha":1042,"x_min":0,"x_max":1042,"o":"m 781 1128 q 719 1104 743 1128 l 719 1104 q 694 1042 694 1080 l 608 1042 q 545 1017 570 1042 q 521 955 521 993 q 545 892 521 917 q 608 868 570 868 l 694 868 l 694 735 q 521 781 616 781 q 274 681 374 779 q 174 434 176 581 q 274 187 176 288 q 521 87 374 90 q 703 138 621 87 q 781 87 724 90 q 844 111 819 87 q 868 174 868 136 l 868 434 l 868 868 q 930 892 906 868 q 955 955 955 917 q 930 1017 955 993 q 868 1042 906 1042 q 844 1104 868 1080 q 781 1128 819 1128 l 781 1128 m 694 434 q 643 312 692 361 l 643 312 q 521 260 594 263 q 399 312 448 263 q 347 434 350 361 q 399 556 350 507 q 521 608 448 605 q 643 556 594 605 q 694 434 692 507 l 694 434 m 87 0 q 24 -24 49 0 l 24 -24 q 0 -87 0 -49 q 24 -149 0 -125 q 87 -174 49 -174 l 955 -174 q 1017 -149 993 -174 q 1042 -87 1042 -125 q 1017 -24 1042 -49 q 955 0 993 0 l 87 0 l 87 0 z "},"":{"ha":1389,"x_min":0,"x_max":1389,"o":"m 361 1202 l 187 1028 q 176 982 168 1009 q 217 955 190 958 l 564 955 q 605 982 591 955 q 594 1028 613 1009 l 420 1202 q 361 1202 391 1229 l 361 1202 m 174 868 q 52 817 100 865 l 52 817 q 0 694 3 768 l 0 0 q 52 -122 3 -73 q 174 -174 100 -171 l 1215 -174 q 1337 -122 1289 -171 q 1389 0 1386 -73 l 1389 694 q 1337 817 1386 768 q 1215 868 1289 865 l 174 868 l 174 868 m 434 347 q 342 385 380 350 l 342 385 q 304 477 307 423 q 342 570 307 532 q 434 608 380 605 q 526 570 488 605 q 564 477 562 532 q 526 385 562 423 q 434 347 488 350 l 434 347 m 217 130 q 255 222 220 184 l 255 222 q 347 260 293 258 l 521 260 q 613 222 575 258 q 651 130 648 184 l 651 87 q 627 24 651 49 q 564 0 602 0 l 304 0 q 241 24 266 0 q 217 87 217 49 l 217 130 l 217 130 m 738 130 q 776 222 741 184 l 776 222 q 868 260 814 258 l 1042 260 q 1134 222 1096 258 q 1172 130 1169 184 l 1172 87 q 1147 24 1172 49 q 1085 0 1123 0 l 825 0 q 762 24 787 0 q 738 87 738 49 l 738 130 l 738 130 m 1085 477 q 1047 385 1082 423 l 1047 385 q 955 347 1009 350 q 863 385 901 350 q 825 477 827 423 q 863 570 827 532 q 955 608 901 605 q 1047 570 1009 605 q 1085 477 1082 532 l 1085 477 m 968 968 q 1028 968 998 941 l 1202 1142 q 1213 1188 1221 1161 q 1172 1215 1199 1213 l 825 1215 q 784 1188 798 1215 q 795 1142 776 1161 l 968 968 l 968 968 z "},"":{"ha":1563,"x_min":0,"x_max":1563,"o":"m 11 1153 q 109 1215 41 1213 l 1280 1215 q 1378 1153 1348 1213 q 1364 1039 1405 1090 l 1074 684 q 803 521 909 648 q 694 217 697 393 q 743 8 694 106 q 730 16 735 14 l 556 146 q 521 217 521 174 l 521 431 l 24 1039 q 11 1153 -16 1090 l 11 1153 m 1172 -174 q 895 -60 1006 -168 l 895 -60 q 781 217 787 52 q 895 494 787 382 q 1172 608 1006 602 q 1449 494 1337 602 q 1563 217 1557 382 q 1449 -60 1557 52 q 1172 -174 1337 -168 l 1172 -174 m 1332 317 q 1332 377 1359 347 q 1272 377 1302 404 l 1172 279 l 1072 377 q 1012 377 1042 404 q 1012 317 985 347 l 1109 217 l 1012 117 q 1012 57 985 87 q 1072 57 1042 30 l 1172 155 l 1272 57 q 1332 57 1302 30 q 1332 117 1359 87 l 1234 217 l 1332 317 l 1332 317 z "},"":{"ha":1042,"x_min":0,"x_max":1042,"o":"m 854 1128 q 708 1085 773 1128 l 708 1085 q 613 968 646 1042 l 464 608 l 174 608 q 111 583 136 608 q 87 521 87 559 q 111 458 87 483 q 174 434 136 434 l 391 434 l 269 141 q 187 87 244 90 l 87 87 q 24 62 49 87 q 0 0 0 38 q 24 -62 0 -38 q 87 -87 49 -87 l 187 -87 q 334 -43 269 -87 q 429 73 396 0 l 578 434 l 868 434 q 930 458 906 434 q 955 521 955 483 q 930 583 955 559 q 868 608 906 608 l 651 608 l 773 901 q 854 955 798 952 l 955 955 q 1017 979 993 955 q 1042 1042 1042 1004 q 1017 1104 1042 1080 q 955 1128 993 1128 l 854 1128 l 854 1128 z "},"":{"ha":1389,"x_min":0,"x_max":1389,"o":"m 1215 -87 l 174 -87 q 52 -35 100 -84 q 0 87 3 14 l 0 694 l 1389 694 l 1389 87 q 1337 -35 1386 14 q 1215 -87 1289 -84 l 1215 -87 m 1389 781 l 0 781 l 0 955 q 52 1077 3 1028 q 174 1128 100 1126 l 494 1128 q 616 1077 564 1128 l 686 1006 q 811 955 738 955 l 1215 955 q 1337 903 1289 952 q 1389 781 1386 854 l 1389 781 z "},"":{"ha":868,"x_min":0,"x_max":868,"o":"m 217 1128 q 155 1104 179 1128 l 155 1104 q 130 1042 130 1080 l 130 608 l 130 347 l 87 347 q 24 323 49 347 q 0 260 0 298 q 24 198 0 222 q 87 174 49 174 l 130 174 l 130 0 q 155 -62 130 -38 q 217 -87 179 -87 q 279 -62 255 -87 q 304 0 304 -38 l 304 174 l 521 174 q 583 198 559 174 q 608 260 608 222 q 583 323 608 298 q 521 347 559 347 l 304 347 l 304 521 l 694 521 q 757 545 732 521 q 781 608 781 570 q 757 670 781 646 q 694 694 732 694 l 304 694 l 304 955 l 781 955 q 844 979 819 955 q 868 1042 868 1004 q 844 1104 868 1080 q 781 1128 819 1128 l 217 1128 l 217 1128 z "},"":{"ha":1042,"x_min":0,"x_max":1042,"o":"m 521 1215 q 458 1191 483 1215 l 458 1191 q 434 1128 434 1166 l 434 1034 q 125 860 244 998 q 0 521 3 719 q 125 182 3 323 q 434 8 244 43 l 434 -87 q 458 -149 434 -125 q 521 -174 483 -174 q 583 -149 559 -174 q 608 -87 608 -125 l 608 8 q 917 182 798 43 q 1042 521 1039 323 q 1017 583 1042 559 q 955 608 993 608 l 608 608 l 608 857 q 765 768 700 833 q 825 743 792 743 q 887 770 860 743 q 911 833 911 798 q 884 892 911 865 q 608 1034 770 1004 l 608 1128 q 583 1191 608 1166 q 521 1215 559 1215 l 521 1215 m 434 857 l 434 184 q 247 307 320 214 q 174 521 176 396 q 247 735 176 646 q 434 857 320 827 l 434 857 m 608 184 l 608 434 l 857 434 q 768 274 833 342 q 608 184 700 209 l 608 184 z "},"":{"ha":1563,"x_min":0,"x_max":1563,"o":"m 1432 1063 q 1367 1128 1427 1123 q 1302 1063 1308 1123 l 1302 1042 l 87 1042 q 24 1017 49 1042 q 0 955 0 993 l 0 651 q 24 589 0 613 q 87 564 49 564 l 114 564 q 182 532 157 562 q 198 456 206 499 l 90 22 q 106 -54 81 -19 q 174 -87 130 -87 l 434 -87 q 518 -22 499 -84 l 589 260 l 871 260 q 960 288 922 260 q 1015 361 998 315 l 1088 564 l 1172 564 q 1234 589 1207 564 l 1294 651 l 1476 651 q 1538 675 1514 651 q 1563 738 1563 700 l 1563 955 q 1538 1017 1563 993 q 1476 1042 1514 1042 l 1432 1042 l 1432 1063 l 1432 1063 m 871 391 l 621 391 l 665 564 l 949 564 l 892 404 q 873 391 887 391 l 871 391 m 217 868 l 1259 868 q 1302 825 1299 865 q 1259 781 1299 784 l 217 781 q 174 825 176 784 q 217 868 176 865 l 217 868 z "},"":{"ha":1563,"x_min":87,"x_max":1476,"o":"m 998 1172 l 998 998 q 955 955 996 958 q 911 998 914 958 l 911 1172 q 955 1215 914 1213 q 998 1172 996 1213 l 998 1172 m 730 1153 l 817 1023 q 806 963 836 987 q 746 974 770 944 l 659 1104 q 670 1164 640 1139 q 730 1153 705 1183 l 730 1153 m 453 892 q 545 892 499 930 l 882 556 q 928 548 903 537 q 955 589 952 559 l 955 694 q 979 757 955 732 q 1042 781 1004 781 q 1104 757 1080 781 q 1128 694 1128 732 l 1128 277 q 1072 60 1128 160 q 914 -100 1015 -38 q 635 -160 781 -179 q 377 -35 488 -141 l 106 236 q 106 328 68 282 q 198 328 152 366 l 342 184 q 401 184 372 160 q 401 244 426 214 l 149 496 q 149 589 111 543 q 241 589 195 627 l 494 336 q 553 336 524 312 q 553 396 578 366 l 236 713 q 236 806 198 760 q 328 806 282 844 l 646 488 q 705 488 675 464 q 705 548 730 518 l 453 800 q 453 892 415 846 l 453 892 m 1261 -100 q 1050 -163 1161 -160 q 1204 33 1150 -81 q 1259 277 1259 146 l 1259 543 q 1302 586 1297 545 l 1302 694 q 1326 757 1302 732 q 1389 781 1351 781 q 1451 757 1427 781 q 1476 694 1476 732 l 1476 277 q 1419 60 1476 160 q 1261 -100 1362 -38 l 1261 -100 m 1240 1164 q 1251 1104 1270 1139 l 1164 974 q 1104 963 1139 944 q 1093 1023 1074 987 l 1180 1153 q 1240 1164 1204 1183 l 1240 1164 z "},"":{"ha":1563,"x_min":0,"x_max":1563,"o":"m 1563 521 q 1535 461 1560 486 l 1535 461 q 1476 434 1511 437 l 1389 434 l 1392 0 q 1340 -122 1389 -73 q 1218 -174 1291 -171 l 347 -174 q 225 -122 274 -171 q 174 0 176 -73 l 174 434 l 87 434 q 24 461 49 437 q 0 521 0 486 q 27 586 0 559 l 722 1194 q 781 1215 751 1218 q 838 1196 814 1215 l 1533 586 q 1563 521 1565 559 l 1563 521 m 955 608 q 903 730 952 681 l 903 730 q 781 781 854 779 q 659 730 708 779 q 608 608 610 681 q 659 486 610 534 q 781 434 708 437 q 903 486 854 437 q 955 608 952 534 l 955 608 m 694 347 q 540 285 602 345 l 540 285 q 477 130 480 222 q 521 87 480 90 l 1042 87 q 1085 130 1082 90 q 1023 285 1082 222 q 868 347 960 345 l 694 347 l 694 347 z "},"":{"ha":868,"x_min":0,"x_max":868,"o":"m 0 1042 q 24 1104 0 1080 l 24 1104 q 87 1128 49 1128 l 260 1128 l 304 1128 l 781 1128 q 844 1104 819 1128 q 868 1042 868 1080 q 844 979 868 1004 q 781 955 819 955 l 629 955 q 686 825 667 895 l 781 825 q 844 800 819 825 q 868 738 868 776 q 844 675 868 700 q 781 651 819 651 l 684 651 q 567 450 656 532 q 353 350 477 369 l 746 71 q 781 14 773 49 q 765 -52 787 -19 q 708 -87 743 -79 q 643 -71 675 -92 l 35 363 q 5 461 -11 401 q 87 521 24 518 l 304 521 q 423 556 372 521 q 502 651 477 591 l 87 651 q 24 675 49 651 q 0 738 0 700 q 24 800 0 776 q 87 825 49 825 l 502 825 q 423 920 477 884 q 304 955 372 955 l 260 955 l 87 955 q 24 979 49 955 q 0 1042 0 1004 l 0 1042 z "},"":{"ha":1042,"x_min":0,"x_max":1042,"o":"m 925 977 q 955 1036 952 1001 l 955 1036 q 933 1099 958 1069 q 873 1128 909 1126 q 811 1107 841 1131 l 347 711 l 347 1042 q 323 1104 347 1080 q 260 1128 298 1128 q 198 1104 222 1128 q 174 1042 174 1080 l 174 608 l 87 608 q 24 583 49 608 q 0 521 0 559 q 24 458 0 483 q 87 434 49 434 l 174 434 l 174 0 q 198 -62 174 -38 q 260 -87 222 -87 q 323 -62 298 -87 q 347 0 347 -38 l 347 331 l 811 -65 q 873 -87 841 -90 q 933 -57 909 -84 q 955 5 958 -27 q 925 65 952 41 l 496 434 l 955 434 q 1017 458 993 434 q 1042 521 1042 483 q 1017 583 1042 559 q 955 608 993 608 l 496 608 l 925 977 l 925 977 z "},"":{"ha":1042,"x_min":0,"x_max":1042,"o":"m 391 1128 q 453 1104 429 1128 l 453 1104 q 477 1042 477 1080 l 477 952 q 521 955 499 955 q 564 952 543 955 l 564 1042 q 589 1104 564 1080 q 651 1128 613 1128 q 713 1104 689 1128 q 738 1042 738 1080 l 738 909 q 928 760 852 854 q 1031 537 1004 662 q 1020 472 1039 502 q 963 437 998 445 q 898 448 928 429 q 863 505 871 467 q 738 705 833 627 l 738 521 q 713 458 738 483 q 651 434 689 434 q 589 458 613 434 q 564 521 564 483 l 564 779 q 521 781 543 781 q 477 779 499 781 l 477 521 q 453 458 477 483 q 391 434 429 434 q 328 458 353 434 q 304 521 304 483 l 304 705 q 174 434 179 605 q 274 187 176 288 q 521 87 374 90 l 955 87 q 1017 62 993 87 q 1042 0 1042 38 q 1017 -62 1042 -38 q 955 -87 993 -87 l 521 -87 l 87 -87 q 24 -62 49 -87 q 0 0 0 -38 q 24 62 0 38 q 87 87 49 87 l 133 87 q 0 434 5 231 q 84 719 3 594 q 304 909 168 844 l 304 1042 q 328 1104 304 1080 q 391 1128 353 1128 l 391 1128 z "},"":{"ha":1215,"x_min":87,"x_max":1128,"o":"m 434 1042 q 410 1104 434 1080 l 410 1104 q 347 1128 385 1128 q 285 1104 309 1128 q 260 1042 260 1080 l 260 635 l 149 605 q 98 564 114 594 q 90 496 81 532 q 130 445 100 461 q 198 437 163 429 l 260 456 l 260 0 q 285 -62 260 -38 q 347 -87 309 -87 l 1042 -87 q 1104 -62 1080 -87 q 1128 0 1128 -38 q 1104 62 1128 38 q 1042 87 1080 87 l 434 87 l 434 505 l 806 610 q 857 651 841 621 q 865 719 873 684 q 825 770 854 754 q 757 779 792 787 l 434 686 l 434 1042 l 434 1042 z "},"":{"ha":1042,"x_min":0,"x_max":1042,"o":"m 521 1128 q 458 1104 483 1128 l 458 1104 q 434 1042 434 1080 l 434 947 q 125 773 244 911 q 0 434 3 632 l 0 0 q 24 -62 0 -38 q 87 -87 49 -87 q 149 -62 125 -87 q 174 0 174 -38 l 174 434 q 247 648 176 559 q 434 770 320 741 l 434 0 q 458 -62 434 -38 q 521 -87 483 -87 q 583 -62 559 -87 q 608 0 608 -38 l 608 770 q 795 648 722 741 q 868 434 865 559 l 868 0 q 892 -62 868 -38 q 955 -87 917 -87 q 1017 -62 993 -87 q 1042 0 1042 -38 l 1042 434 q 917 773 1039 632 q 608 947 798 911 l 608 1042 q 583 1104 608 1080 q 521 1128 559 1128 l 521 1128 z "},"":{"ha":1736,"x_min":0,"x_max":1736,"o":"m 868 1042 q 662 979 754 1042 l 562 911 q 415 868 494 868 l 391 868 l 347 868 l 152 868 q 43 825 87 865 q 0 716 3 781 l 0 486 q 68 285 3 372 q 247 171 136 198 l 540 98 q 868 0 684 3 q 1196 95 1053 3 l 1489 168 q 1668 285 1600 198 q 1736 486 1733 372 l 1736 716 q 1693 825 1733 781 q 1584 868 1649 865 l 1389 868 l 1345 868 l 1321 868 q 1177 911 1242 868 l 1074 979 q 868 1042 982 1042 l 868 1042 m 358 277 l 279 296 q 171 366 212 315 q 130 486 130 418 l 130 716 q 152 738 133 735 l 260 738 l 260 608 q 358 277 263 420 l 358 277 m 1457 296 l 1378 277 q 1476 608 1473 420 l 1476 738 l 1584 738 q 1606 716 1603 735 l 1606 486 q 1565 366 1603 418 q 1457 296 1525 315 l 1457 296 m 521 651 q 564 694 524 692 l 1172 694 q 1215 651 1213 692 q 1172 608 1213 610 l 564 608 q 521 651 524 610 l 521 651 m 564 521 l 1172 521 q 1215 477 1213 518 q 1172 434 1213 437 l 564 434 q 521 477 524 437 q 564 521 524 518 l 564 521 m 608 304 q 651 347 610 345 l 1085 347 q 1128 304 1126 345 q 1085 260 1126 263 l 651 260 q 608 304 610 263 l 608 304 z "},"":{"ha":1042,"x_min":0,"x_max":1042,"o":"m 819 1099 q 817 1166 830 1134 l 817 1166 q 768 1210 800 1196 q 700 1207 732 1221 q 656 1158 670 1191 l 564 901 q 521 863 540 884 q 304 955 434 952 q 157 917 222 955 q 87 955 133 952 q 24 930 49 955 q 0 868 0 906 l 0 651 l 0 87 q 24 24 0 49 q 87 0 49 0 q 149 24 125 0 q 174 87 174 49 l 174 651 q 212 743 176 705 q 304 781 250 779 q 396 743 358 779 q 434 651 431 705 l 434 534 l 222 -57 q 225 -125 212 -92 q 274 -168 241 -155 q 342 -165 309 -179 q 385 -117 372 -149 l 445 46 q 521 0 467 3 q 583 24 559 0 q 608 87 608 49 l 608 505 l 705 776 q 738 781 722 781 q 830 743 792 781 q 868 651 865 705 l 868 87 q 892 24 868 49 q 955 0 917 0 q 1017 24 993 0 q 1042 87 1042 49 l 1042 651 q 963 857 1039 773 q 768 952 884 939 l 819 1099 l 819 1099 z "},"":{"ha":1736,"x_min":0,"x_max":1736,"o":"m 260 955 l 260 347 q 312 225 263 274 q 434 174 361 176 l 1563 174 q 1685 225 1636 176 q 1736 347 1733 274 l 1736 955 q 1685 1077 1733 1028 q 1563 1128 1636 1126 l 434 1128 q 312 1077 361 1126 q 260 955 263 1028 l 260 955 m 434 521 q 556 469 507 518 l 556 469 q 608 347 605 420 l 434 347 l 434 521 l 434 521 m 608 955 q 556 833 605 882 l 556 833 q 434 781 507 784 l 434 955 l 608 955 l 608 955 m 1563 521 l 1563 347 l 1389 347 q 1440 469 1392 420 q 1563 521 1489 518 l 1563 521 m 1389 955 l 1563 955 l 1563 781 q 1440 833 1489 784 q 1389 955 1392 882 l 1389 955 m 1215 651 q 1153 496 1213 559 l 1153 496 q 998 434 1090 437 q 844 496 906 437 q 781 651 784 559 q 844 806 784 743 q 998 868 906 865 q 1153 806 1090 865 q 1215 651 1213 743 l 1215 651 m 130 890 q 65 955 125 949 q 0 890 5 949 l 0 239 q 95 8 3 100 q 326 -87 187 -84 l 1411 -87 q 1476 -22 1470 -81 q 1411 43 1470 38 l 326 43 q 187 100 241 46 q 130 239 133 155 l 130 890 l 130 890 z "},"":{"ha":1215,"x_min":0,"x_max":1215,"o":"m 334 1090 q 236 1126 296 1139 q 174 1042 176 1104 l 174 521 l 87 521 q 24 496 49 521 q 0 434 0 472 q 24 372 0 396 q 87 347 49 347 l 174 347 l 174 0 q 198 -62 174 -38 q 260 -87 222 -87 q 323 -62 298 -87 q 347 0 347 -38 l 347 347 l 618 347 l 882 -49 q 979 -84 920 -98 q 1042 0 1039 -62 l 1042 347 l 1128 347 q 1191 372 1166 347 q 1215 434 1215 396 q 1191 496 1215 472 q 1128 521 1166 521 l 1042 521 l 1042 1042 q 1017 1104 1042 1080 q 955 1128 993 1128 q 892 1104 917 1128 q 868 1042 868 1080 l 868 521 l 713 521 l 334 1090 l 334 1090 m 827 347 l 868 347 l 868 288 l 827 347 l 827 347 m 505 521 l 347 521 l 347 754 l 505 521 l 505 521 z "},"":{"ha":1042,"x_min":0,"x_max":1042,"o":"m 174 157 l 418 521 l 174 884 l 174 157 l 174 157 m 279 0 l 765 0 l 521 363 l 279 0 l 279 0 m 627 521 l 868 157 l 868 884 l 627 521 l 627 521 m 765 1042 l 279 1042 l 521 678 l 765 1042 l 765 1042 m 0 1085 q 38 1177 3 1139 l 38 1177 q 130 1215 76 1213 l 911 1215 q 1004 1177 966 1213 q 1042 1085 1039 1139 l 1042 -43 q 1004 -136 1039 -98 q 911 -174 966 -171 l 130 -174 q 38 -136 76 -171 q 0 -43 3 -98 l 0 1085 l 0 1085 z "},"":{"ha":1736,"x_min":0,"x_max":1736,"o":"m 125 1128 q 35 1093 71 1128 l 35 1093 q 0 1004 0 1058 l 0 38 q 35 -52 0 -16 q 125 -87 71 -87 q 163 -81 144 -87 q 385 -24 198 -65 q 868 22 575 16 q 1351 -24 1161 16 q 1573 -81 1538 -65 q 1611 -87 1592 -87 q 1701 -52 1666 -87 q 1736 38 1733 -16 l 1736 1004 q 1701 1093 1733 1058 q 1611 1128 1666 1128 q 1573 1123 1592 1128 q 1351 1066 1538 1107 q 868 1020 1161 1025 q 385 1066 575 1025 q 163 1123 198 1107 q 125 1128 144 1128 l 125 1128 m 434 781 q 410 719 434 743 l 410 719 q 347 694 385 694 q 285 719 309 694 q 260 781 260 743 q 285 844 260 819 q 347 868 309 868 q 410 844 385 868 q 434 781 434 819 l 434 781 m 998 781 q 1053 751 1034 781 l 1389 258 q 1392 184 1411 222 q 1326 157 1367 152 q 868 195 1137 193 q 410 157 600 193 q 342 187 366 152 q 347 260 323 225 l 534 496 q 586 521 556 521 q 637 496 616 521 l 708 407 l 944 751 q 998 781 963 781 l 998 781 z "},"":{"ha":1042,"x_min":0,"x_max":1042,"o":"m 174 1128 q 111 1104 136 1128 l 111 1104 q 87 1042 87 1080 l 87 781 q 24 757 49 781 q 0 694 0 732 q 24 632 0 656 q 87 608 49 608 l 87 347 l 87 0 q 111 -62 87 -38 q 174 -87 136 -87 q 236 -62 212 -87 q 260 0 260 -38 l 260 260 l 521 260 q 798 361 681 263 q 947 608 914 456 l 955 608 q 1017 632 993 608 q 1042 694 1042 656 q 1017 757 1042 732 q 955 781 993 781 l 947 781 q 798 1028 914 933 q 521 1128 681 1126 l 174 1128 l 174 1128 m 768 781 l 260 781 l 260 955 l 521 955 q 673 906 608 952 q 768 781 738 857 l 768 781 m 260 608 l 768 608 q 673 483 738 532 q 521 434 608 437 l 260 434 l 260 608 l 260 608 z "},"":{"ha":1042,"x_min":0,"x_max":1042,"o":"m 174 1128 q 111 1104 136 1128 l 111 1104 q 87 1042 87 1080 l 87 868 q 24 844 49 868 q 0 781 0 819 q 24 719 0 743 q 87 694 49 694 l 87 608 q 24 583 49 608 q 0 521 0 559 q 24 458 0 483 q 87 434 49 434 l 87 260 l 87 0 q 111 -62 87 -38 q 174 -87 136 -87 q 236 -62 212 -87 q 260 0 260 -38 l 260 174 l 477 174 q 730 247 618 176 q 903 434 841 317 l 955 434 q 1017 458 993 434 q 1042 521 1042 483 q 1017 583 1042 559 q 955 608 993 608 l 952 608 q 955 651 955 629 q 952 694 955 673 l 955 694 q 1017 719 993 694 q 1042 781 1042 743 q 1017 844 1042 819 q 955 868 993 868 l 903 868 q 730 1055 841 985 q 477 1128 618 1126 l 174 1128 l 174 1128 m 689 868 l 260 868 l 260 955 l 477 955 q 689 868 605 952 l 689 868 m 260 694 l 779 694 q 781 651 781 673 q 779 608 781 629 l 260 608 l 260 694 l 260 694 m 689 434 q 477 347 605 350 l 260 347 l 260 434 l 689 434 l 689 434 z "},"":{"ha":1389,"x_min":0,"x_max":1389,"o":"m 521 960 q 572 1123 524 1039 l 572 1123 q 694 1215 621 1207 q 819 1123 770 1207 q 868 960 865 1039 l 868 781 l 1351 458 q 1389 388 1389 434 l 1389 233 q 1370 198 1389 212 q 1332 193 1354 187 l 868 347 l 868 130 l 1025 14 q 1042 -22 1042 0 l 1042 -136 q 1004 -174 1039 -171 q 993 -174 998 -174 l 694 -87 l 396 -174 q 385 -174 391 -174 q 347 -136 350 -171 l 347 -22 q 363 14 347 0 l 521 130 l 521 347 l 57 193 q 19 198 35 187 q 0 233 0 212 l 0 388 q 38 458 0 434 l 521 781 l 521 960 l 521 960 z "},"":{"ha":1389,"x_min":0,"x_max":1389,"o":"m 0 1042 q 24 1104 0 1080 l 24 1104 q 87 1128 49 1128 l 304 1128 q 581 1015 469 1123 q 694 738 689 903 q 629 521 692 616 q 461 380 567 429 l 602 33 q 600 -35 613 -3 q 553 -81 586 -65 q 486 -79 518 -92 q 439 -33 456 -65 l 288 347 l 174 347 l 174 0 q 149 -62 174 -38 q 87 -87 125 -87 q 24 -62 49 -87 q 0 0 0 -38 l 0 434 l 0 1042 l 0 1042 m 174 521 l 304 521 q 458 583 396 524 q 521 738 518 646 q 458 892 518 830 q 304 955 396 952 l 174 955 l 174 521 l 174 521 m 868 781 l 1085 781 q 1299 692 1215 779 q 1389 477 1386 608 q 1299 263 1386 347 q 1085 174 1215 176 l 955 174 l 955 -87 q 930 -149 955 -125 q 868 -174 906 -174 q 806 -149 830 -174 q 781 -87 781 -125 l 781 260 l 781 694 q 806 757 781 732 q 868 781 830 781 l 868 781 m 1085 347 q 1177 385 1139 350 l 1177 385 q 1215 477 1213 423 q 1177 570 1213 532 q 1085 608 1139 605 l 955 608 l 955 347 l 1085 347 l 1085 347 z "},"":{"ha":1563,"x_min":0,"x_max":1563,"o":"m 1042 1042 q 1066 1104 1042 1080 l 1066 1104 q 1128 1128 1090 1128 l 1476 1128 q 1538 1104 1514 1128 q 1563 1042 1563 1080 q 1538 979 1563 1004 q 1476 955 1514 955 l 1215 955 l 1215 694 q 1191 632 1215 656 q 1128 608 1166 608 l 868 608 l 868 347 q 844 285 868 309 q 781 260 819 260 l 521 260 l 521 0 q 496 -62 521 -38 q 434 -87 472 -87 l 87 -87 q 24 -62 49 -87 q 0 0 0 -38 q 24 62 0 38 q 87 87 49 87 l 347 87 l 347 347 q 372 410 347 385 q 434 434 396 434 l 694 434 l 694 694 q 719 757 694 732 q 781 781 743 781 l 1042 781 l 1042 1042 l 1042 1042 z "},"":{"ha":1736,"x_min":0,"x_max":1736,"o":"m 347 890 q 282 955 288 895 q 347 1020 288 1015 q 412 955 407 1015 q 347 890 407 895 l 347 890 m 434 757 q 529 836 494 781 l 529 836 q 564 955 564 887 q 502 1109 562 1047 q 347 1172 439 1169 q 193 1109 255 1169 q 130 955 133 1047 q 165 836 130 887 q 260 757 201 781 l 260 608 l 87 608 q 24 583 49 608 q 0 521 0 559 q 24 458 0 483 q 87 434 49 434 l 781 434 l 781 285 q 686 206 722 260 q 651 87 651 155 q 713 -68 654 -5 q 868 -130 776 -127 q 1023 -68 960 -127 q 1085 87 1082 -5 q 1050 206 1085 155 q 955 285 1015 260 l 955 434 l 1649 434 q 1712 458 1687 434 q 1736 521 1736 483 q 1712 583 1736 559 q 1649 608 1687 608 l 1476 608 l 1476 757 q 1571 836 1535 781 q 1606 955 1606 887 q 1544 1109 1603 1047 q 1389 1172 1481 1169 q 1234 1109 1297 1169 q 1172 955 1175 1047 q 1207 836 1172 887 q 1302 757 1242 781 l 1302 608 l 434 608 l 434 757 l 434 757 m 1454 955 q 1389 890 1449 895 q 1324 955 1329 895 q 1389 1020 1329 1015 q 1454 955 1449 1015 l 1454 955 m 868 22 q 803 87 808 27 q 868 152 808 146 q 933 87 928 146 q 868 22 928 27 l 868 22 z "},"":{"ha":1389,"x_min":0,"x_max":1389,"o":"m 0 998 q 62 1153 3 1090 l 62 1153 q 217 1215 125 1213 l 1172 1215 q 1326 1153 1264 1213 q 1389 998 1386 1090 l 1389 217 q 1302 43 1386 106 l 1302 -87 q 1278 -149 1302 -125 q 1215 -174 1253 -174 l 1128 -174 q 1066 -149 1090 -174 q 1042 -87 1042 -125 l 1042 0 l 347 0 l 347 -87 q 323 -149 347 -125 q 260 -174 298 -174 l 174 -174 q 111 -149 136 -174 q 87 -87 87 -125 l 87 43 q 0 217 3 106 l 0 998 l 0 998 m 353 803 l 304 608 l 1085 608 l 1036 803 q 952 868 1017 865 l 437 868 q 353 803 372 865 l 353 803 m 347 347 q 323 410 347 385 l 323 410 q 260 434 298 434 q 198 410 222 434 q 174 347 174 385 q 198 285 174 309 q 260 260 222 260 q 323 285 298 260 q 347 347 347 309 l 347 347 m 1128 260 q 1191 285 1166 260 l 1191 285 q 1215 347 1215 309 q 1191 410 1215 385 q 1128 434 1166 434 q 1066 410 1090 434 q 1042 347 1042 385 q 1066 285 1042 309 q 1128 260 1090 260 l 1128 260 z "},"":{"ha":1215,"x_min":84,"x_max":1128,"o":"m 347 1128 q 410 1104 385 1128 l 410 1104 q 434 1042 434 1080 l 434 947 l 757 1039 q 825 1031 792 1047 q 865 979 854 1015 q 857 911 873 944 q 806 871 841 882 l 434 765 l 434 686 l 757 779 q 825 770 792 787 q 865 719 854 754 q 857 651 873 684 q 806 610 841 621 l 434 505 l 434 87 l 608 87 q 846 182 749 90 q 955 418 944 274 l 955 439 q 985 499 958 475 q 1047 521 1009 521 q 1107 494 1082 518 q 1128 429 1128 467 l 1128 407 q 966 57 1112 195 q 608 -87 819 -81 l 347 -87 q 285 -62 309 -87 q 260 0 260 -38 l 260 456 l 198 437 q 130 445 163 429 q 90 496 100 461 q 98 564 81 532 q 149 605 114 594 l 260 635 l 260 716 l 198 697 q 130 705 163 689 q 90 757 100 722 q 98 825 81 792 q 149 865 114 854 l 260 895 l 260 1042 q 285 1104 260 1080 q 347 1128 309 1128 l 347 1128 z "},"":{"ha":1563,"x_min":0,"x_max":1563,"o":"m 174 1215 q 52 1164 100 1213 l 52 1164 q 0 1042 3 1115 l 0 87 q 52 -35 3 14 q 174 -87 100 -84 l 217 -87 l 260 -174 l 434 -174 l 477 -87 l 1085 -87 l 1128 -174 l 1302 -174 l 1345 -87 l 1389 -87 q 1511 -35 1462 -84 q 1563 87 1560 14 l 1563 1042 q 1511 1164 1560 1115 q 1389 1215 1462 1213 l 174 1215 l 174 1215 m 608 347 q 762 410 700 350 l 762 410 q 825 564 822 472 q 762 719 822 656 q 608 781 700 779 q 453 719 515 779 q 391 564 393 656 q 453 410 393 472 q 608 347 515 350 l 608 347 m 608 130 q 301 258 423 136 l 301 258 q 174 564 179 380 q 301 871 179 749 q 608 998 423 993 q 914 871 792 993 q 1042 564 1036 749 q 914 258 1036 380 q 608 130 792 136 l 608 130 m 1302 616 l 1302 304 q 1259 260 1299 263 q 1215 304 1218 263 l 1215 616 q 1128 738 1134 648 q 1166 830 1131 792 q 1259 868 1204 865 q 1351 830 1313 865 q 1389 738 1386 792 q 1302 616 1383 648 l 1302 616 z "},"":{"ha":1563,"x_min":0,"x_max":1476,"o":"m 637 1099 l 534 1061 q 521 1042 521 1055 q 534 1023 521 1028 l 637 985 l 675 882 q 694 868 681 868 q 713 882 708 868 l 751 985 l 854 1023 q 868 1042 868 1028 q 854 1061 868 1055 l 751 1099 l 713 1202 q 694 1215 708 1215 q 675 1202 681 1215 l 637 1099 l 637 1099 m 125 144 q 87 52 87 103 l 87 52 q 125 -41 87 0 l 220 -136 q 312 -174 258 -174 q 404 -136 363 -174 l 1438 898 q 1476 990 1476 939 q 1438 1082 1476 1044 l 1343 1177 q 1251 1215 1305 1215 q 1158 1177 1199 1215 l 125 144 l 125 144 m 1316 990 l 1031 705 l 966 770 l 1251 1055 l 1316 990 l 1316 990 m 22 898 q 0 868 0 890 q 22 838 0 846 l 174 781 l 231 627 q 260 608 239 608 q 290 627 282 608 l 347 781 l 502 838 q 521 868 521 846 q 502 898 521 890 l 347 955 l 290 1107 q 260 1128 282 1128 q 231 1107 239 1128 l 174 955 l 22 898 l 22 898 m 977 203 q 955 174 955 195 q 977 144 955 152 l 1128 87 l 1185 -68 q 1215 -87 1194 -87 q 1245 -68 1237 -87 l 1302 87 l 1457 144 q 1476 174 1476 152 q 1457 203 1476 195 l 1302 260 l 1245 412 q 1215 434 1237 434 q 1185 412 1194 434 l 1128 260 l 977 203 l 977 203 z "},"":{"ha":1389,"x_min":0,"x_max":1389,"o":"m 1370 1104 q 1370 1196 1408 1150 q 1278 1196 1324 1234 l 1039 958 q 1039 865 1001 911 q 1131 865 1085 827 l 1370 1104 l 1370 1104 m 830 1142 q 768 1142 798 1166 l 738 1109 q 659 925 659 1031 q 738 743 659 822 l 765 713 l 681 632 q 583 836 667 746 l 553 865 q 491 865 521 890 l 461 836 q 385 651 385 754 q 461 467 385 545 l 488 437 l 407 355 q 307 559 393 469 l 277 589 q 214 589 247 613 l 184 559 q 109 374 109 477 q 184 190 109 269 l 212 160 l 24 -24 q 0 -87 0 -52 q 24 -149 0 -122 q 87 -174 52 -174 q 149 -149 122 -174 l 336 38 l 369 5 q 553 -71 448 -71 q 738 5 656 -71 l 768 35 q 768 98 792 68 l 738 127 q 526 228 646 217 l 610 315 l 646 282 q 827 206 724 206 q 1012 282 933 206 l 1044 312 q 1044 374 1069 342 l 1012 404 q 800 505 920 494 l 887 591 l 920 559 q 1104 480 1001 480 q 1289 559 1210 480 l 1321 589 q 1321 651 1345 618 l 1289 681 q 1245 719 1267 703 l 1370 844 q 1370 936 1408 890 q 1278 936 1324 974 l 1118 773 q 947 768 1031 792 q 952 947 974 857 l 1109 1104 q 1109 1196 1147 1150 q 1017 1196 1063 1234 l 892 1072 q 860 1109 879 1093 l 830 1142 l 830 1142 z "},"":{"ha":1215,"x_min":0,"x_max":1204,"o":"m 1128 1085 q 1090 993 1126 1031 l 1090 993 q 998 955 1053 958 q 906 993 944 958 q 868 1085 871 1031 q 906 1177 871 1139 q 998 1215 944 1213 q 1090 1177 1053 1213 q 1128 1085 1126 1139 l 1128 1085 m 556 887 q 510 882 532 895 l 399 798 q 334 781 369 776 q 277 817 301 787 q 260 879 258 846 q 296 936 266 914 l 407 1020 q 629 1044 510 1093 l 873 928 q 947 836 933 898 q 914 724 958 776 l 811 608 l 1077 608 q 1177 559 1139 605 q 1204 453 1213 515 l 1126 71 q 1090 14 1118 33 q 1025 3 1061 -5 q 968 38 987 11 q 958 103 949 68 l 1023 434 l 833 434 q 868 260 868 353 q 741 -46 863 76 q 434 -174 618 -168 q 127 -46 250 -168 q 0 260 5 76 q 127 567 5 445 q 434 694 250 689 q 521 686 480 694 l 670 833 l 556 887 l 556 887 m 434 0 q 618 76 545 3 l 618 76 q 694 260 692 149 q 618 445 692 372 q 434 521 545 518 q 250 445 323 518 q 174 260 176 372 q 250 76 176 149 q 434 0 323 3 l 434 0 z "},"":{"ha":1042,"x_min":0,"x_max":1042,"o":"m 98 1128 q 33 1109 60 1131 l 33 1109 q 0 1053 5 1088 q 19 987 -3 1015 q 76 955 41 960 l 98 952 q 174 865 168 939 l 174 781 l 87 781 q 24 757 49 781 q 0 694 0 732 q 24 632 0 656 q 87 608 49 608 l 174 608 l 174 174 q 250 -11 176 62 q 434 -87 323 -84 l 521 -87 q 890 65 743 -81 q 1042 434 1036 212 l 1042 521 q 966 705 1039 632 q 781 781 892 779 l 738 781 q 675 757 700 781 q 651 694 651 732 q 675 632 651 656 q 738 608 700 608 l 781 608 q 844 583 819 608 q 868 521 868 559 l 868 434 q 768 187 865 288 q 521 87 667 90 l 434 87 q 372 111 396 87 q 347 174 347 136 l 347 608 l 434 608 q 496 632 472 608 q 521 694 521 656 q 496 757 521 732 q 434 781 472 781 l 347 781 l 347 865 q 282 1039 345 968 q 119 1126 220 1109 l 98 1128 l 98 1128 z "},"":{"ha":1389,"x_min":0,"x_max":1389,"o":"m 477 1063 q 543 1128 483 1123 l 586 1128 q 651 1063 646 1123 q 586 998 646 1004 l 543 998 q 477 1063 483 1004 l 477 1063 m 543 933 l 586 933 q 651 868 646 928 q 586 803 646 808 l 543 803 q 477 868 483 808 q 543 933 483 928 l 543 933 m 152 738 l 195 738 q 260 673 255 732 q 195 608 255 613 l 152 608 q 87 673 92 613 q 152 738 92 732 l 152 738 m 0 448 q 22 499 0 477 l 22 499 q 73 521 43 521 l 1316 521 q 1367 499 1345 521 q 1389 448 1389 477 q 1308 190 1386 301 q 1099 27 1229 79 l 1096 -11 q 1009 -87 1080 -81 l 380 -87 q 293 -11 309 -81 l 290 27 q 81 190 160 79 q 0 448 3 301 l 0 448 m 608 673 q 673 738 613 732 l 716 738 q 781 673 776 732 q 716 608 776 613 l 673 608 q 608 673 613 613 l 608 673 m 347 673 q 412 738 353 732 l 456 738 q 521 673 515 732 q 456 608 515 613 l 412 608 q 347 673 353 613 l 347 673 m 282 933 l 326 933 q 391 868 385 928 q 326 803 385 808 l 282 803 q 217 868 222 808 q 282 933 222 928 l 282 933 m 868 673 q 933 738 873 732 l 977 738 q 1042 673 1036 732 q 977 608 1036 613 l 933 608 q 868 673 873 613 l 868 673 m 803 933 l 846 933 q 911 868 906 928 q 846 803 906 808 l 803 803 q 738 868 743 808 q 803 933 743 928 l 803 933 m 1128 673 q 1194 738 1134 732 l 1237 738 q 1302 673 1297 732 q 1237 608 1297 613 l 1194 608 q 1128 673 1134 613 l 1128 673 m 1063 933 l 1107 933 q 1172 868 1166 928 q 1107 803 1166 808 l 1063 803 q 998 868 1004 808 q 1063 933 1004 928 l 1063 933 m 803 1128 l 846 1128 q 911 1063 906 1123 q 846 998 906 1004 l 803 998 q 738 1063 743 1004 q 803 1128 743 1123 l 803 1128 z "},"":{"ha":1042,"x_min":87,"x_max":955,"o":"m 521 955 q 429 993 467 958 l 429 993 q 391 1085 393 1031 q 429 1177 393 1139 q 521 1215 467 1213 q 613 1177 575 1213 q 651 1085 648 1139 q 613 993 648 1031 q 521 955 575 958 l 521 955 m 326 176 q 260 260 266 195 l 260 410 l 247 388 q 195 350 228 358 q 130 361 160 342 q 90 412 98 380 q 100 477 81 448 l 258 741 q 445 865 323 846 q 477 868 461 868 l 480 868 l 515 868 l 521 868 q 532 868 526 868 q 659 814 605 860 q 727 692 713 765 l 743 602 q 895 513 836 583 q 955 347 952 445 l 955 260 q 930 198 955 222 q 868 174 906 174 l 825 174 l 716 174 l 716 -87 q 692 -149 716 -125 q 629 -174 667 -174 q 567 -149 591 -174 q 543 -87 543 -125 l 543 174 l 521 174 l 499 174 l 499 -87 q 475 -149 499 -125 q 412 -174 450 -174 q 350 -149 374 -174 q 326 -87 326 -125 l 326 176 l 326 176 z "},"":{"ha":1563,"x_min":0,"x_max":1563,"o":"m 1476 434 q 1535 461 1511 437 l 1535 461 q 1563 521 1560 486 q 1533 586 1565 559 l 1389 713 l 1389 1042 q 1364 1104 1389 1080 q 1302 1128 1340 1128 l 1215 1128 q 1153 1104 1177 1128 q 1128 1042 1128 1080 l 1128 941 l 841 1196 q 784 1215 814 1215 q 724 1194 754 1218 l 27 586 q 0 521 0 559 q 24 461 0 486 q 87 434 49 437 l 174 434 l 174 247 q 174 239 174 241 q 174 239 174 239 l 174 -65 q 206 -141 174 -111 q 282 -174 236 -174 l 326 -174 q 336 -174 331 -174 q 342 -174 339 -174 q 347 -174 345 -174 l 434 -174 l 499 -174 q 575 -141 545 -174 q 608 -65 608 -111 l 608 0 l 608 174 q 632 236 608 212 q 694 260 656 260 l 868 260 q 930 236 906 260 q 955 174 955 212 l 955 0 l 955 -65 q 987 -141 955 -111 q 1063 -174 1017 -174 l 1128 -174 l 1218 -174 q 1229 -174 1223 -174 q 1237 -174 1232 -174 l 1280 -174 q 1356 -141 1326 -174 q 1389 -65 1389 -111 l 1389 -22 q 1392 0 1389 -11 l 1389 434 l 1476 434 l 1476 434 z "},"":{"ha":1563,"x_min":0,"x_max":1563,"o":"m 1476 434 q 1535 461 1511 437 l 1535 461 q 1563 521 1560 486 q 1533 586 1565 559 l 841 1196 q 784 1215 814 1215 q 724 1194 754 1218 l 27 586 q 0 521 0 559 q 24 461 0 486 q 87 434 49 437 l 174 434 l 174 0 q 225 -122 176 -73 q 347 -174 274 -171 l 624 -174 l 540 -33 q 551 24 524 0 l 781 217 l 618 442 q 624 499 600 475 q 681 502 648 521 l 1001 250 q 1001 182 1034 217 l 781 0 l 884 -174 l 1218 -174 q 1340 -122 1291 -171 q 1392 0 1389 -73 l 1389 434 l 1476 434 l 1476 434 z "},"":{"ha":1563,"x_min":0,"x_max":1563,"o":"m 1476 434 q 1535 461 1511 437 l 1535 461 q 1563 521 1560 486 q 1533 586 1565 559 l 841 1196 q 784 1215 814 1215 q 724 1194 754 1218 l 27 586 q 0 521 0 559 q 24 461 0 486 q 87 434 49 437 l 174 434 l 174 0 q 225 -122 176 -73 q 347 -174 274 -171 l 1218 -174 q 1340 -122 1291 -171 q 1392 0 1389 -73 l 1389 434 l 1476 434 l 1476 434 m 694 651 q 738 694 697 692 l 825 694 q 868 651 865 692 l 868 521 l 998 521 q 1042 477 1039 518 l 1042 391 q 998 347 1039 350 l 868 347 l 868 217 q 825 174 865 176 l 738 174 q 694 217 697 176 l 694 347 l 564 347 q 521 391 524 350 l 521 477 q 564 521 524 518 l 694 521 l 694 651 l 694 651 z "},"":{"ha":1042,"x_min":87,"x_max":955,"o":"m 608 1215 q 670 1191 646 1215 l 670 1191 q 694 1128 694 1166 l 694 1034 q 920 936 822 1012 q 955 879 949 914 q 939 817 958 846 q 882 781 914 787 q 817 798 846 776 q 608 868 727 865 q 361 768 461 865 q 260 521 263 667 q 361 274 263 374 q 608 174 461 176 q 817 244 727 176 q 882 260 846 263 q 939 225 914 255 q 955 160 958 195 q 920 103 949 127 q 694 8 822 30 l 694 -87 q 670 -149 694 -125 q 608 -174 646 -174 q 545 -149 570 -174 q 521 -87 521 -125 l 521 8 q 212 182 331 43 q 87 521 90 323 q 212 860 90 719 q 521 1034 331 998 l 521 1128 q 545 1191 521 1166 q 608 1215 570 1215 l 608 1215 z "},"":{"ha":1042,"x_min":0,"x_max":1042,"o":"m 608 1128 q 583 1191 608 1166 l 583 1191 q 521 1215 559 1215 q 458 1191 483 1215 q 434 1128 434 1166 l 434 825 l 130 825 q 68 800 92 825 q 43 738 43 776 q 68 675 43 700 q 130 651 92 651 l 434 651 l 434 347 q 458 285 434 309 q 521 260 483 260 q 583 285 559 260 q 608 347 608 309 l 608 651 l 911 651 q 974 675 949 651 q 998 738 998 700 q 974 800 998 776 q 911 825 949 825 l 608 825 l 608 1128 l 608 1128 m 0 -87 q 24 -149 0 -125 l 24 -149 q 87 -174 49 -174 l 955 -174 q 1017 -149 993 -174 q 1042 -87 1042 -125 q 1017 -24 1042 -49 q 955 0 993 0 l 87 0 q 24 -24 49 0 q 0 -87 0 -49 l 0 -87 z "},"":{"ha":1563,"x_min":14,"x_max":1546,"o":"m 694 1172 q 724 1213 697 1202 q 773 1196 754 1221 l 1381 328 q 1383 285 1394 307 q 1345 260 1373 260 l 738 260 q 694 304 697 263 l 694 1172 l 694 1172 m 575 952 q 608 911 605 944 l 608 304 q 564 260 605 263 l 217 260 q 179 282 193 260 q 179 326 168 304 l 526 933 q 575 952 545 960 l 575 952 m 16 119 q 57 174 8 165 l 1506 174 q 1546 119 1554 165 l 1535 79 q 1411 -103 1503 -35 q 1202 -174 1321 -171 l 361 -174 q 152 -103 241 -171 q 27 79 60 -35 l 16 119 l 16 119 z "},"":{"ha":868,"x_min":87,"x_max":779,"o":"m 263 955 q 320 1023 271 1001 q 486 1036 377 1053 q 548 1025 507 1034 q 605 1012 586 1015 q 673 1017 640 1001 q 713 1072 703 1036 q 705 1137 722 1107 q 654 1177 689 1166 q 583 1194 627 1185 q 515 1207 537 1204 q 250 1183 369 1232 q 92 982 122 1126 q 90 977 92 979 q 114 830 81 895 q 201 730 146 765 q 203 727 201 730 q 206 727 203 727 q 92 556 114 670 q 92 556 92 556 q 92 551 92 553 q 114 407 81 472 q 201 312 149 345 q 301 260 247 282 q 407 228 358 241 l 407 228 l 415 225 q 578 160 526 195 q 602 130 600 144 q 605 81 610 119 q 548 16 600 41 q 380 5 491 -8 q 315 22 353 11 q 233 49 274 35 l 233 49 q 212 57 222 54 q 201 60 206 60 q 136 57 165 71 q 92 5 103 41 q 95 -60 81 -30 q 146 -103 111 -92 q 165 -111 155 -106 q 171 -111 168 -111 q 179 -114 174 -114 q 266 -144 217 -127 q 353 -165 315 -160 l 353 -165 l 355 -165 q 618 -141 499 -190 q 776 52 746 -90 q 762 198 789 130 q 689 293 735 258 q 776 450 757 350 q 762 602 789 532 q 681 708 735 667 q 578 765 635 743 q 472 803 521 787 l 467 803 q 301 871 355 836 q 269 903 277 890 q 263 955 260 920 l 263 955 m 472 388 q 469 391 469 391 l 469 391 q 469 391 469 391 l 467 391 q 298 456 355 420 q 269 486 274 472 q 263 529 260 496 q 317 591 269 567 q 486 602 377 616 l 532 594 q 575 570 556 583 q 602 537 597 553 q 605 480 610 521 q 505 396 600 418 l 472 388 l 472 388 z "},"":{"ha":1389,"x_min":0,"x_max":1389,"o":"m 174 1128 q 52 1077 100 1126 l 52 1077 q 0 955 3 1028 q 52 833 3 882 q 174 781 100 784 l 176 781 q 315 475 187 597 q 629 347 442 353 l 781 347 l 781 868 l 716 868 l 241 868 l 174 868 q 111 892 136 868 q 87 955 87 917 q 111 1017 87 993 q 174 1042 136 1042 l 1259 1042 q 1302 1085 1299 1044 q 1259 1128 1299 1126 l 174 1128 l 174 1128 m 608 -22 q 673 -87 613 -81 l 868 -87 l 868 109 l 694 171 q 610 130 637 184 q 651 46 597 73 l 662 43 q 608 -22 613 33 l 608 -22 m 955 -84 q 1215 22 1104 -71 l 982 117 q 955 106 968 109 l 955 -84 l 955 -84 m 1283 90 q 1389 391 1386 217 q 1378 488 1389 439 l 1039 252 q 1042 222 1042 239 q 1036 187 1042 203 l 1283 90 l 1283 90 m 911 868 l 868 868 l 868 347 l 917 347 q 990 323 958 347 l 1351 575 q 1180 787 1297 705 q 911 868 1063 865 l 911 868 m 586 694 q 521 629 581 635 q 456 694 461 635 q 521 760 461 754 q 586 694 581 754 l 586 694 z "},"":{"ha":1389,"x_min":0,"x_max":1389,"o":"m 1085 1215 q 1147 1191 1123 1215 l 1147 1191 q 1172 1128 1172 1166 l 1172 1080 q 1270 1047 1223 1069 l 1297 1034 q 1340 982 1329 1015 q 1337 917 1351 949 q 1286 873 1318 884 q 1221 876 1253 863 l 1194 890 q 1107 911 1150 911 l 1101 911 q 998 868 1039 909 q 955 765 955 827 q 1047 629 958 670 l 1188 572 q 1335 456 1280 534 q 1389 277 1386 377 l 1389 266 q 1326 81 1386 160 q 1172 -30 1267 3 l 1172 -87 q 1147 -149 1172 -125 q 1085 -174 1123 -174 q 1023 -149 1047 -174 q 998 -87 998 -125 l 998 -35 q 884 16 936 -19 l 819 57 q 784 114 789 79 q 795 179 776 146 q 852 214 817 209 q 917 203 884 222 l 979 160 q 1080 130 1025 130 q 1175 171 1137 133 q 1215 266 1213 209 l 1215 277 q 1123 412 1210 372 l 982 469 q 836 586 890 507 q 781 765 781 665 q 844 952 784 873 q 998 1069 901 1034 l 998 1128 q 1023 1191 998 1166 q 1085 1215 1047 1215 l 1085 1215 m 0 1042 q 24 1104 0 1080 l 24 1104 q 87 1128 49 1128 l 304 1128 q 581 1015 469 1123 q 694 738 689 903 q 629 521 692 616 q 461 380 567 429 l 602 33 q 600 -35 613 -3 q 553 -81 586 -65 q 486 -79 518 -92 q 439 -33 456 -65 l 288 347 l 174 347 l 174 0 q 149 -62 174 -38 q 87 -87 125 -87 q 24 -62 49 -87 q 0 0 0 -38 l 0 434 l 0 1042 l 0 1042 m 174 521 l 304 521 q 458 583 396 524 q 521 738 518 646 q 458 892 518 830 q 304 955 396 952 l 174 955 l 174 521 l 174 521 z "},"":{"ha":1215,"x_min":0,"x_max":1215,"o":"m 434 998 q 472 1090 437 1053 l 472 1090 q 564 1128 510 1126 l 651 1128 q 743 1090 705 1126 q 781 998 779 1053 l 781 43 q 743 -49 779 -11 q 651 -87 705 -84 l 564 -87 q 472 -49 510 -84 q 434 43 437 -11 l 434 998 l 434 998 m 0 477 q 38 570 3 532 l 38 570 q 130 608 76 605 l 217 608 q 309 570 271 605 q 347 477 345 532 l 347 43 q 309 -49 345 -11 q 217 -87 271 -84 l 130 -87 q 38 -49 76 -84 q 0 43 3 -11 l 0 477 l 0 477 m 998 955 l 1085 955 q 1177 917 1139 952 q 1215 825 1213 879 l 1215 43 q 1177 -49 1213 -11 q 1085 -87 1139 -84 l 998 -87 q 906 -49 944 -84 q 868 43 871 -11 l 868 825 q 906 917 871 879 q 998 955 944 952 l 998 955 z "},"":{"ha":1389,"x_min":0,"x_max":1389,"o":"m 1389 781 q 1337 659 1386 708 l 1337 659 q 1215 608 1289 610 l 760 608 l 760 434 l 884 434 q 944 393 930 431 q 930 323 960 355 l 741 133 q 648 133 694 95 l 458 323 q 445 393 429 355 q 505 434 458 431 l 629 434 l 629 608 l 174 608 q 52 659 100 610 q 0 781 3 708 l 0 955 q 52 1077 3 1028 q 174 1128 100 1126 l 1215 1128 q 1337 1077 1289 1126 q 1389 955 1386 1028 l 1389 781 l 1389 781 m 1215 87 l 1215 260 l 990 260 l 993 260 q 1036 347 1028 301 q 1023 434 1042 393 l 1215 434 q 1337 382 1289 431 q 1389 260 1386 334 l 1389 87 q 1337 -35 1386 14 q 1215 -87 1289 -84 l 174 -87 q 52 -35 100 -84 q 0 87 3 14 l 0 260 q 52 382 3 334 q 174 434 100 431 l 366 434 q 353 347 347 393 q 396 260 361 301 l 399 260 l 174 260 l 174 87 l 572 87 l 586 71 q 694 27 635 27 q 803 71 754 27 l 817 87 l 1215 87 l 1215 87 z "},"":{"ha":1389,"x_min":0,"x_max":1389,"o":"m 1215 87 l 1215 260 l 174 260 l 174 87 l 1215 87 l 1215 87 m 1215 -87 l 174 -87 q 52 -35 100 -84 q 0 87 3 14 l 0 260 q 52 382 3 334 q 174 434 100 431 l 1215 434 q 1337 382 1289 431 q 1389 260 1386 334 l 1389 87 q 1337 -35 1386 14 q 1215 -87 1289 -84 l 1215 -87 m 781 781 q 730 659 779 708 l 730 659 q 608 608 681 610 l 174 608 q 52 659 100 610 q 0 781 3 708 l 0 955 q 52 1077 3 1028 q 174 1128 100 1126 l 564 1128 l 608 1128 l 998 1128 q 1153 1066 1090 1126 q 1215 911 1213 1004 l 1215 868 l 1318 868 q 1378 827 1364 865 q 1364 757 1394 789 l 1175 567 q 1082 567 1128 529 l 892 757 q 879 827 863 789 q 939 868 892 865 l 1042 868 l 1042 911 q 998 955 1039 952 l 781 955 l 781 781 l 781 781 z "},"":{"ha":1389,"x_min":0,"x_max":1389,"o":"m 1389 87 l 1389 260 q 1337 382 1386 334 q 1215 434 1289 431 l 174 434 q 52 382 100 431 q 0 260 3 334 l 0 87 q 52 -35 3 14 q 174 -87 100 -84 l 1215 -87 q 1337 -35 1289 -84 q 1389 87 1386 14 l 1389 87 m 174 781 l 174 955 l 564 955 l 608 955 l 608 781 l 174 781 l 174 781 m 781 781 l 781 955 l 998 955 q 1042 911 1039 952 l 1042 868 l 939 868 q 879 827 892 865 q 892 757 863 789 l 1082 567 q 1175 567 1128 529 l 1364 757 q 1378 827 1394 789 q 1318 868 1364 865 l 1215 868 l 1215 911 q 1153 1066 1213 1004 q 998 1128 1090 1126 l 608 1128 l 564 1128 l 174 1128 q 52 1077 100 1126 q 0 955 3 1028 l 0 781 q 52 659 3 708 q 174 608 100 610 l 608 608 q 730 659 681 610 q 781 781 779 708 l 781 781 z "},"":{"ha":1389,"x_min":0,"x_max":1389,"o":"m 694 -174 q 1044 -79 890 -171 l 1044 -79 q 1294 171 1202 14 l 1294 171 q 1389 521 1386 326 q 1294 871 1386 716 q 1044 1120 1202 1028 q 694 1215 890 1213 q 345 1120 499 1213 q 95 871 187 1028 q 0 521 3 716 q 95 171 3 326 q 345 -79 187 14 q 694 -174 499 -171 l 694 -174 m 567 247 l 461 282 q 407 282 434 293 l 363 271 q 290 274 326 258 q 236 323 255 288 l 225 339 q 220 426 206 382 q 277 488 233 467 l 372 534 q 388 548 380 540 l 401 567 q 486 608 434 605 q 567 567 537 605 l 581 551 q 602 534 589 537 q 656 556 637 529 l 686 597 q 711 608 694 608 q 738 589 730 608 l 765 518 q 795 464 776 488 l 844 401 q 868 331 868 372 q 844 260 868 293 l 811 220 q 719 174 776 174 q 654 193 684 174 l 586 236 q 567 247 575 241 l 567 247 m 743 830 l 803 768 q 811 722 822 746 q 773 694 803 697 l 692 694 q 648 703 667 694 l 532 754 q 505 800 502 770 q 540 838 510 827 l 646 857 q 743 827 703 868 l 743 830 m 673 43 q 716 87 675 84 l 760 87 q 803 43 800 84 q 760 0 800 3 l 716 0 q 673 43 675 3 l 673 43 m 1169 404 l 1191 339 q 1164 285 1202 301 q 1109 312 1126 277 l 1088 377 q 1115 431 1080 415 q 1169 404 1153 442 l 1169 404 m 1115 187 l 1028 100 q 968 100 998 73 q 968 160 941 130 l 1055 247 q 1115 247 1085 274 q 1115 187 1142 217 l 1115 187 z "},"":{"ha":1736,"x_min":0,"x_max":1736,"o":"m 106 1202 q 14 1191 54 1234 q 24 1099 -19 1139 l 1630 -160 q 1723 -149 1682 -193 q 1712 -57 1755 -98 l 1294 269 q 1302 347 1302 307 l 1476 347 q 1538 372 1514 347 q 1563 434 1563 396 q 1538 496 1563 472 q 1476 521 1514 521 l 1302 521 q 1272 627 1297 578 q 1278 632 1275 629 l 1451 806 q 1476 868 1476 833 q 1451 930 1476 903 q 1389 955 1424 955 q 1326 930 1354 955 l 1153 757 q 1150 751 1150 754 q 1020 781 1090 781 l 716 781 q 651 773 684 781 l 106 1202 l 106 1202 m 868 1215 q 684 1139 757 1213 l 684 1139 q 608 955 610 1066 l 608 944 q 629 890 608 911 q 684 868 651 868 l 1053 868 q 1107 890 1085 868 q 1128 944 1128 911 l 1128 955 q 1053 1139 1126 1066 q 868 1215 979 1213 l 868 1215 m 434 521 l 260 521 q 198 496 222 521 q 174 434 174 472 q 198 372 174 396 q 260 347 222 347 l 434 347 q 475 160 434 247 q 458 149 467 155 l 285 -24 q 260 -87 260 -52 q 285 -149 260 -122 q 347 -174 312 -174 q 410 -149 382 -174 l 581 22 q 825 -84 681 -68 l 825 304 l 453 600 q 434 521 439 562 l 434 521 m 911 -84 q 1169 35 1063 -68 l 911 236 l 911 -84 l 911 -84 z "},"":{"ha":1563,"x_min":0,"x_max":1563,"o":"m 0 1042 q 52 1164 3 1115 l 52 1164 q 174 1215 100 1213 l 608 1215 l 608 868 q 632 806 608 830 q 694 781 656 781 l 1042 781 l 1042 675 q 792 507 890 632 q 694 217 697 385 q 749 -5 694 95 q 895 -171 803 -106 q 868 -174 882 -174 l 174 -174 q 52 -122 100 -171 q 0 0 3 -73 l 0 1042 l 0 1042 m 1042 868 l 694 868 l 694 1215 l 1042 868 l 1042 868 m 1172 -174 q 895 -60 1006 -168 l 895 -60 q 781 217 787 52 q 895 494 787 382 q 1172 608 1006 602 q 1449 494 1337 602 q 1563 217 1557 382 q 1449 -60 1557 52 q 1172 -174 1337 -168 l 1172 -174 m 1215 391 q 1172 434 1213 431 q 1128 391 1131 431 l 1128 260 l 998 260 q 955 217 958 258 q 998 174 958 176 l 1128 174 l 1128 43 q 1172 0 1131 3 q 1215 43 1213 3 l 1215 174 l 1345 174 q 1389 217 1386 176 q 1345 260 1386 258 l 1215 260 l 1215 391 l 1215 391 z "},"":{"ha":1736,"x_min":0,"x_max":1736,"o":"m 100 694 l 1221 694 q 1432 781 1305 779 q 1644 694 1560 779 q 1709 727 1685 700 q 1736 795 1736 754 q 1720 849 1736 825 l 1514 1158 q 1405 1215 1476 1213 l 331 1215 q 222 1158 260 1213 l 16 849 q 0 795 0 825 q 30 724 0 751 q 100 694 57 694 l 100 694 m 1042 608 l 868 608 l 868 174 l 347 174 l 347 608 l 174 608 l 174 174 l 174 -43 q 212 -136 176 -98 q 304 -174 250 -171 l 911 -174 q 1004 -136 966 -171 q 1042 -43 1039 -98 l 1042 174 l 1042 260 l 1042 608 l 1042 608 m 1432 564 q 1495 540 1470 564 l 1495 540 q 1519 477 1519 515 l 1519 347 l 1345 347 l 1345 477 q 1370 540 1345 515 q 1432 564 1394 564 l 1432 564 m 1215 477 l 1215 347 q 1153 323 1177 347 q 1128 260 1128 298 l 1128 -87 q 1153 -149 1128 -125 q 1215 -174 1177 -174 l 1649 -174 q 1712 -149 1687 -174 q 1736 -87 1736 -125 l 1736 260 q 1712 323 1736 298 q 1649 347 1687 347 l 1649 477 q 1587 632 1647 570 q 1432 694 1525 692 q 1278 632 1340 692 q 1215 477 1218 570 l 1215 477 z "},"":{"ha":1389,"x_min":0,"x_max":1389,"o":"m 521 1150 q 586 1215 526 1210 l 803 1215 q 868 1150 863 1210 q 803 1085 863 1090 l 760 1085 l 760 993 q 982 901 887 977 l 1047 966 l 1017 996 q 1017 1088 979 1042 q 1109 1088 1063 1126 l 1261 936 q 1261 844 1299 890 q 1169 844 1215 806 l 1139 873 l 1074 808 q 1166 586 1150 711 l 1259 586 l 1259 629 q 1324 694 1264 689 q 1389 629 1383 689 l 1389 412 q 1324 347 1383 353 q 1259 412 1264 353 l 1259 456 l 1166 456 q 1074 233 1150 328 l 1139 168 l 1169 198 q 1261 198 1215 236 q 1261 106 1299 152 l 1109 -46 q 1017 -46 1063 -84 q 1017 46 979 0 l 1047 76 l 982 141 q 760 49 884 65 l 760 -43 l 803 -43 q 868 -109 863 -49 q 803 -174 863 -168 l 586 -174 q 521 -109 526 -168 q 586 -43 526 -49 l 629 -43 l 629 49 q 407 141 502 65 l 342 76 l 372 46 q 372 -46 410 0 q 279 -46 326 -84 l 127 106 q 127 198 90 152 q 220 198 174 236 l 250 168 l 315 233 q 222 456 239 328 l 130 456 l 130 412 q 65 347 125 353 q 0 412 5 353 l 0 629 q 65 694 5 689 q 130 629 125 689 l 130 586 l 222 586 q 315 808 239 713 l 250 873 l 220 844 q 127 844 174 806 q 127 936 90 890 l 279 1088 q 372 1088 326 1126 q 372 996 410 1042 l 342 966 l 407 901 q 629 993 505 977 l 629 1085 l 586 1085 q 521 1150 526 1090 l 521 1150 m 651 608 q 613 700 648 662 l 613 700 q 521 738 575 735 q 429 700 467 735 q 391 608 393 662 q 429 515 393 553 q 521 477 467 480 q 613 515 575 480 q 651 608 648 553 l 651 608 m 825 326 q 890 391 884 331 q 825 456 884 450 q 760 391 765 450 q 825 326 765 331 l 825 326 z "},"":{"ha":1736,"x_min":0,"x_max":1736,"o":"m 106 1202 q 14 1191 54 1234 q 24 1099 -19 1139 l 1630 -160 q 1723 -149 1682 -193 q 1712 -57 1755 -98 l 1280 279 q 1340 456 1326 361 l 1432 456 l 1432 412 q 1497 347 1438 353 q 1563 412 1557 353 l 1563 629 q 1497 694 1557 689 q 1432 629 1438 689 l 1432 586 l 1340 586 q 1248 808 1324 713 l 1313 873 l 1343 844 q 1435 844 1389 806 q 1435 936 1473 890 l 1283 1088 q 1191 1088 1237 1126 q 1191 996 1153 1042 l 1221 966 l 1156 901 q 933 993 1061 977 l 933 1085 l 977 1085 q 1042 1150 1036 1090 q 977 1215 1036 1210 l 760 1215 q 694 1150 700 1210 q 760 1085 700 1090 l 803 1085 l 803 993 q 581 901 675 977 l 515 966 l 545 996 q 545 1088 583 1042 q 453 1088 499 1126 l 363 998 l 106 1202 l 106 1202 m 404 635 q 396 586 399 610 l 304 586 l 304 629 q 239 694 298 689 q 174 629 179 689 l 174 412 q 239 347 179 353 q 304 412 298 353 l 304 456 l 396 456 q 488 233 412 328 l 423 168 l 393 198 q 301 198 347 236 q 301 106 263 152 l 453 -46 q 545 -46 499 -84 q 545 46 583 0 l 515 76 l 581 141 q 803 49 678 65 l 803 -43 l 760 -43 q 694 -109 700 -49 q 760 -174 700 -168 l 977 -174 q 1042 -109 1036 -168 q 977 -43 1036 -49 l 933 -43 l 933 49 q 1088 98 1017 60 l 404 635 l 404 635 z "},"":{"ha":1736,"x_min":0,"x_max":1736,"o":"m 694 955 q 719 1017 694 993 l 719 1017 q 781 1042 743 1042 q 844 1017 819 1042 q 868 955 868 993 q 844 892 868 917 q 781 868 819 868 q 719 892 743 868 q 694 955 694 917 l 694 955 m 925 738 q 1042 955 1036 814 q 966 1139 1039 1066 q 781 1215 892 1213 q 597 1139 670 1213 q 521 955 524 1066 q 637 738 526 814 l 608 738 q 545 713 570 738 q 521 651 521 689 q 545 589 521 613 q 608 564 570 564 l 694 564 l 694 0 l 564 0 q 380 76 453 3 q 304 260 307 149 l 304 277 l 323 258 q 415 258 369 220 q 415 350 453 304 l 263 502 q 171 502 217 540 l 19 350 q 19 258 -19 304 q 111 258 65 220 l 130 277 l 130 260 q 258 -46 136 76 q 564 -174 380 -168 l 781 -174 l 998 -174 q 1063 -168 1031 -174 q 920 0 971 -100 l 868 0 l 868 217 l 868 564 l 955 564 q 1017 589 993 564 q 1042 651 1042 613 q 1017 713 1042 689 q 955 738 993 738 l 925 738 l 925 738 m 1736 217 q 1622 494 1731 382 l 1622 494 q 1345 608 1511 602 q 1069 494 1180 602 q 955 217 960 382 q 1069 -60 960 52 q 1345 -174 1180 -168 q 1622 -60 1511 -168 q 1736 217 1731 52 l 1736 217 m 1527 334 q 1527 274 1554 304 l 1332 79 q 1272 79 1302 52 l 1164 187 q 1164 247 1137 217 q 1223 247 1194 274 l 1302 171 l 1468 334 q 1527 334 1497 361 l 1527 334 z "},"":{"ha":1736,"x_min":0,"x_max":1736,"o":"m 694 955 q 719 1017 694 993 l 719 1017 q 781 1042 743 1042 q 844 1017 819 1042 q 868 955 868 993 q 844 892 868 917 q 781 868 819 868 q 719 892 743 868 q 694 955 694 917 l 694 955 m 925 738 q 1042 955 1036 814 q 966 1139 1039 1066 q 781 1215 892 1213 q 597 1139 670 1213 q 521 955 524 1066 q 637 738 526 814 l 608 738 q 545 713 570 738 q 521 651 521 689 q 545 589 521 613 q 608 564 570 564 l 694 564 l 694 0 l 564 0 q 380 76 453 3 q 304 260 307 149 l 304 277 l 323 258 q 415 258 369 220 q 415 350 453 304 l 263 502 q 171 502 217 540 l 19 350 q 19 258 -19 304 q 111 258 65 220 l 130 277 l 130 260 q 258 -46 136 76 q 564 -174 380 -168 l 781 -174 l 998 -174 q 1063 -168 1031 -174 q 920 0 971 -100 l 868 0 l 868 217 l 868 564 l 955 564 q 1017 589 993 564 q 1042 651 1042 613 q 1017 713 1042 689 q 955 738 993 738 l 925 738 l 925 738 m 1345 -174 q 1622 -60 1511 -168 l 1622 -60 q 1736 217 1731 52 q 1622 494 1731 382 q 1345 608 1511 602 q 1069 494 1180 602 q 955 217 960 382 q 1069 -60 960 52 q 1345 -174 1180 -168 l 1345 -174 m 1345 -43 q 1280 22 1286 -38 q 1345 87 1286 81 q 1411 22 1405 81 q 1345 -43 1405 -38 l 1345 -43 m 1345 477 q 1389 434 1386 475 l 1389 217 q 1345 174 1386 176 q 1302 217 1305 176 l 1302 434 q 1345 477 1305 475 l 1345 477 z "},"":{"ha":1736,"x_min":0,"x_max":1736,"o":"m 694 955 q 719 1017 694 993 l 719 1017 q 781 1042 743 1042 q 844 1017 819 1042 q 868 955 868 993 q 844 892 868 917 q 781 868 819 868 q 719 892 743 868 q 694 955 694 917 l 694 955 m 925 738 q 1042 955 1036 814 q 966 1139 1039 1066 q 781 1215 892 1213 q 597 1139 670 1213 q 521 955 524 1066 q 637 738 526 814 l 608 738 q 545 713 570 738 q 521 651 521 689 q 545 589 521 613 q 608 564 570 564 l 694 564 l 694 0 l 564 0 q 380 76 453 3 q 304 260 307 149 l 304 277 l 323 258 q 415 258 369 220 q 415 350 453 304 l 263 502 q 171 502 217 540 l 19 350 q 19 258 -19 304 q 111 258 65 220 l 130 277 l 130 260 q 258 -46 136 76 q 564 -174 380 -168 l 781 -174 l 998 -174 q 1063 -168 1031 -174 q 920 0 971 -100 l 868 0 l 868 217 l 868 564 l 955 564 q 1017 589 993 564 q 1042 651 1042 613 q 1017 713 1042 689 q 955 738 993 738 l 925 738 l 925 738 m 1345 -174 q 1622 -60 1511 -168 l 1622 -60 q 1736 217 1731 52 q 1622 494 1731 382 q 1345 608 1511 602 q 1069 494 1180 602 q 955 217 960 382 q 1069 -60 960 52 q 1345 -174 1180 -168 l 1345 -174 m 1506 317 l 1408 217 l 1506 117 q 1506 57 1533 87 q 1446 57 1476 30 l 1345 155 l 1245 57 q 1185 57 1215 30 q 1185 117 1158 87 l 1283 217 l 1185 317 q 1185 377 1158 347 q 1245 377 1215 404 l 1345 279 l 1446 377 q 1506 377 1476 404 q 1506 317 1533 347 l 1506 317 z "},"":{"ha":1736,"x_min":0,"x_max":1736,"o":"m 694 955 q 719 1017 694 993 l 719 1017 q 781 1042 743 1042 q 844 1017 819 1042 q 868 955 868 993 q 844 892 868 917 q 781 868 819 868 q 719 892 743 868 q 694 955 694 917 l 694 955 m 925 738 q 1042 955 1036 814 q 966 1139 1039 1066 q 781 1215 892 1213 q 597 1139 670 1213 q 521 955 524 1066 q 637 738 526 814 l 608 738 q 545 713 570 738 q 521 651 521 689 q 545 589 521 613 q 608 564 570 564 l 694 564 l 694 0 l 564 0 q 380 76 453 3 q 304 260 307 149 l 304 277 l 323 258 q 415 258 369 220 q 415 350 453 304 l 263 502 q 171 502 217 540 l 19 350 q 19 258 -19 304 q 111 258 65 220 l 130 277 l 130 260 q 258 -46 136 76 q 564 -174 380 -168 l 781 -174 l 998 -174 q 1063 -168 1031 -174 q 1042 -87 1042 -133 l 1042 3 q 998 0 1020 0 l 868 0 l 868 564 l 955 564 q 1017 589 993 564 q 1042 651 1042 613 q 1017 713 1042 689 q 955 738 993 738 l 925 738 l 925 738 m 1432 564 q 1495 540 1470 564 l 1495 540 q 1519 477 1519 515 l 1519 347 l 1345 347 l 1345 477 q 1370 540 1345 515 q 1432 564 1394 564 l 1432 564 m 1215 477 l 1215 347 q 1153 323 1177 347 q 1128 260 1128 298 l 1128 -87 q 1153 -149 1128 -125 q 1215 -174 1177 -174 l 1649 -174 q 1712 -149 1687 -174 q 1736 -87 1736 -125 l 1736 260 q 1712 323 1736 298 q 1649 347 1687 347 l 1649 477 q 1587 632 1647 570 q 1432 694 1525 692 q 1278 632 1340 692 q 1215 477 1218 570 l 1215 477 z "},"":{"ha":1563,"x_min":0,"x_max":1563,"o":"m 372 -149 q 434 -174 399 -174 l 434 -174 q 496 -149 469 -174 l 757 111 q 781 174 781 138 q 757 236 781 209 q 694 260 730 260 q 632 236 659 260 l 521 122 l 521 434 l 1476 434 q 1538 458 1514 434 q 1563 521 1563 483 q 1538 583 1563 559 q 1476 608 1514 608 l 1215 608 l 1215 920 l 1326 806 q 1389 781 1354 781 q 1451 806 1424 781 q 1476 868 1476 833 q 1451 930 1476 903 l 1191 1191 q 1128 1215 1164 1215 q 1066 1191 1093 1215 l 806 930 q 781 868 781 903 q 806 806 781 833 q 868 781 833 781 q 930 806 903 781 l 1042 920 l 1042 608 l 521 608 l 347 608 l 87 608 q 24 583 49 608 q 0 521 0 559 q 24 458 0 483 q 87 434 49 434 l 347 434 l 347 122 l 236 236 q 174 260 209 260 q 111 236 138 260 q 87 174 87 209 q 111 111 87 138 l 372 -149 l 372 -149 m 347 694 l 521 694 l 521 1042 q 496 1104 521 1080 q 434 1128 472 1128 q 372 1104 396 1128 q 347 1042 347 1080 l 347 694 l 347 694 m 1215 347 l 1042 347 l 1042 0 q 1066 -62 1042 -38 q 1128 -87 1090 -87 q 1191 -62 1166 -87 q 1215 0 1215 -38 l 1215 347 l 1215 347 z "},"":{"ha":1736,"x_min":0,"x_max":1736,"o":"m 410 -149 l 670 111 q 694 174 694 138 q 670 236 694 209 q 608 260 643 260 q 545 236 572 260 l 434 122 l 434 434 l 1128 434 l 1128 477 q 1158 608 1128 548 l 955 608 l 955 920 l 1066 806 q 1128 781 1093 781 q 1191 806 1164 781 q 1215 868 1215 833 q 1191 930 1215 903 l 930 1191 q 868 1215 903 1215 q 806 1191 833 1215 l 545 930 q 521 868 521 903 q 545 806 521 833 q 608 781 572 781 q 670 806 643 781 l 781 920 l 781 608 l 434 608 l 260 608 l 87 608 q 24 583 49 608 q 0 521 0 559 q 24 458 0 483 q 87 434 49 434 l 260 434 l 260 122 l 149 236 q 87 260 122 260 q 24 236 52 260 q 0 174 0 209 q 24 111 0 138 l 285 -149 q 347 -174 312 -174 q 410 -149 382 -174 l 410 -149 m 434 694 l 434 1042 q 410 1104 434 1080 q 347 1128 385 1128 q 285 1104 309 1128 q 260 1042 260 1080 l 260 694 l 434 694 l 434 694 m 781 347 l 781 0 q 806 -62 781 -38 q 868 -87 830 -87 q 930 -62 906 -87 q 955 0 955 -38 l 955 347 l 781 347 l 781 347 m 1432 564 q 1495 540 1470 564 l 1495 540 q 1519 477 1519 515 l 1519 347 l 1345 347 l 1345 477 q 1370 540 1345 515 q 1432 564 1394 564 l 1432 564 m 1215 477 l 1215 347 q 1153 323 1177 347 q 1128 260 1128 298 l 1128 -87 q 1153 -149 1128 -125 q 1215 -174 1177 -174 l 1649 -174 q 1712 -149 1687 -174 q 1736 -87 1736 -125 l 1736 260 q 1712 323 1736 298 q 1649 347 1687 347 l 1649 477 q 1587 632 1647 570 q 1432 694 1525 692 q 1278 632 1340 692 q 1215 477 1218 570 l 1215 477 z "},"":{"ha":1736,"x_min":0,"x_max":1736,"o":"m 781 1085 q 819 1177 784 1139 l 819 1177 q 911 1215 857 1213 l 1172 1215 q 1264 1177 1226 1213 q 1302 1085 1299 1139 l 1302 694 l 1411 694 l 1411 890 q 1476 955 1416 949 q 1541 890 1535 949 l 1541 694 l 1606 694 q 1698 656 1660 692 q 1736 564 1733 618 l 1736 -43 q 1698 -136 1733 -98 q 1606 -174 1660 -171 l 1172 -174 l 911 -174 q 819 -136 857 -171 q 781 -43 784 -98 l 781 1085 l 781 1085 m 955 998 l 955 911 q 998 868 958 871 l 1085 868 q 1128 911 1126 871 l 1128 998 q 1085 1042 1126 1039 l 998 1042 q 955 998 958 1039 l 955 998 m 998 781 q 955 738 958 779 l 955 651 q 998 608 958 610 l 1085 608 q 1128 651 1126 610 l 1128 738 q 1085 781 1126 779 l 998 781 l 998 781 m 955 477 l 955 391 q 998 347 958 350 l 1085 347 q 1128 391 1126 350 l 1128 477 q 1085 521 1126 518 l 998 521 q 955 477 958 518 l 955 477 m 1432 521 q 1389 477 1392 518 l 1389 391 q 1432 347 1392 350 l 1519 347 q 1563 391 1560 350 l 1563 477 q 1519 521 1560 518 l 1432 521 l 1432 521 m 1389 217 l 1389 130 q 1432 87 1392 90 l 1519 87 q 1563 130 1560 90 l 1563 217 q 1519 260 1560 258 l 1432 260 q 1389 217 1392 258 l 1389 217 m 453 800 l 670 583 q 694 521 694 556 q 670 458 694 486 l 453 241 q 391 217 426 217 q 328 241 355 217 q 304 304 304 269 q 328 366 304 339 l 399 434 l 87 434 q 24 458 49 434 q 0 521 0 483 q 24 583 0 559 q 87 608 49 608 l 399 608 l 328 675 q 304 738 304 703 q 328 800 304 773 q 391 825 355 825 q 453 800 426 825 l 453 800 z "},"":{"ha":1563,"x_min":0,"x_max":1563,"o":"m 781 260 q 844 285 819 260 l 844 285 q 868 347 868 309 l 868 920 l 936 849 q 998 825 963 825 q 1061 849 1034 825 q 1085 911 1085 876 q 1061 974 1085 947 l 844 1191 q 781 1215 817 1215 q 719 1191 746 1215 l 502 974 q 477 911 477 947 q 502 849 477 876 q 564 825 529 825 q 627 849 600 825 l 694 920 l 694 347 q 719 285 694 309 q 781 260 743 260 l 781 260 m 732 71 q 521 0 637 3 q 312 71 407 5 l 312 71 q 203 65 255 106 q 68 -3 144 16 q 14 -41 33 -11 q 3 -106 -5 -71 q 41 -160 11 -141 q 106 -171 71 -179 q 266 -103 209 -144 q 521 -174 385 -171 q 738 -122 654 -165 q 781 -100 762 -111 q 825 -122 800 -111 q 1042 -174 909 -165 q 1299 -103 1177 -171 q 1457 -171 1354 -144 q 1522 -160 1492 -179 q 1560 -106 1552 -141 q 1549 -41 1568 -71 q 1495 -3 1530 -11 q 1359 65 1419 16 q 1251 71 1308 103 l 1251 71 q 1042 0 1156 5 q 833 71 928 3 q 732 71 781 103 l 732 71 m 521 694 l 130 694 q 38 656 76 692 q 0 564 3 618 l 0 62 q 49 81 22 76 q 149 130 103 95 q 252 171 195 171 q 361 141 309 174 q 521 87 439 87 l 521 694 l 521 694 m 1563 564 q 1525 656 1560 618 l 1525 656 q 1432 694 1487 692 l 1042 694 l 1042 84 l 1042 84 q 1202 141 1123 87 q 1310 171 1253 174 q 1413 130 1367 168 q 1516 81 1459 95 q 1563 62 1541 76 l 1563 564 l 1563 564 z "},"":{"ha":1563,"x_min":0,"x_max":1563,"o":"m 304 1215 q 212 1177 250 1213 l 212 1177 q 174 1085 176 1139 l 174 521 l 130 521 q 38 483 76 518 q 0 391 3 445 l 0 130 q 14 71 0 98 q 46 81 30 76 q 149 130 103 95 q 252 171 195 171 q 361 141 309 174 q 521 87 439 87 q 681 141 610 90 q 781 174 727 174 q 882 141 836 174 q 1042 87 960 87 q 1202 141 1123 87 q 1310 171 1253 174 q 1413 130 1367 171 q 1516 81 1459 95 q 1549 71 1533 76 q 1563 130 1563 98 l 1563 391 q 1525 483 1560 445 q 1432 521 1487 518 l 1302 521 l 1302 920 l 1370 849 q 1432 825 1397 825 q 1495 849 1468 825 q 1519 911 1519 876 q 1495 974 1519 947 l 1278 1191 q 1215 1215 1251 1215 q 1153 1191 1180 1215 l 936 974 q 911 911 911 947 q 936 849 911 876 q 998 825 963 825 q 1061 849 1034 825 l 1128 920 l 1128 521 l 781 521 l 781 1085 q 743 1177 779 1139 q 651 1215 705 1213 l 304 1215 l 304 1215 m 833 71 q 732 71 781 103 q 521 0 637 3 q 312 71 407 5 l 312 71 q 203 65 255 106 q 68 -3 144 16 q 14 -41 33 -11 q 3 -106 -5 -71 q 41 -160 11 -141 q 106 -171 71 -179 q 266 -103 209 -144 q 521 -174 385 -171 q 738 -122 654 -165 q 781 -100 762 -111 q 825 -122 800 -111 q 1042 -174 909 -165 q 1299 -103 1177 -171 q 1457 -171 1354 -144 q 1522 -160 1492 -179 q 1560 -106 1552 -141 q 1549 -41 1568 -71 q 1495 -3 1530 -11 q 1359 65 1419 16 q 1251 71 1308 103 l 1251 71 q 1042 0 1156 5 q 833 71 928 3 l 833 71 z "},"":{"ha":1563,"x_min":0,"x_max":1563,"o":"m 434 1215 q 372 1191 396 1215 l 372 1191 q 347 1128 347 1166 q 372 1066 347 1090 q 434 1042 396 1042 l 572 1042 l 24 496 q 0 434 0 469 q 24 372 0 399 q 87 347 52 347 q 149 372 122 347 l 694 920 l 694 781 q 719 719 694 743 q 781 694 743 694 q 844 719 819 694 q 868 781 868 743 l 868 1128 q 844 1191 868 1166 q 781 1215 819 1215 l 434 1215 l 434 1215 m 1563 998 q 1525 1090 1560 1053 l 1525 1090 q 1432 1128 1487 1126 q 1340 1090 1378 1126 q 1302 998 1305 1053 q 1340 906 1305 944 q 1432 868 1378 871 q 1525 906 1487 871 q 1563 998 1560 944 l 1563 998 m 1215 651 q 1177 743 1213 705 l 1177 743 q 1085 781 1139 779 q 993 743 1031 779 q 955 651 958 705 q 993 559 958 597 q 1085 521 1031 524 q 1177 559 1139 524 q 1215 651 1213 597 l 1215 651 m 1085 174 q 1177 212 1139 176 l 1177 212 q 1215 304 1213 250 q 1177 396 1213 358 q 1085 434 1139 431 q 993 396 1031 431 q 955 304 958 358 q 993 212 958 250 q 1085 174 1031 176 l 1085 174 m 1215 -43 q 1177 49 1213 11 l 1177 49 q 1085 87 1139 84 q 993 49 1031 84 q 955 -43 958 11 q 993 -136 958 -98 q 1085 -174 1031 -171 q 1177 -136 1139 -171 q 1215 -43 1213 -98 l 1215 -43 m 1563 -43 q 1525 49 1560 11 l 1525 49 q 1432 87 1487 84 q 1340 49 1378 84 q 1302 -43 1305 11 q 1340 -136 1305 -98 q 1432 -174 1378 -171 q 1525 -136 1487 -171 q 1563 -43 1560 -98 l 1563 -43 m 738 174 q 830 212 792 176 l 830 212 q 868 304 865 250 q 830 396 865 358 q 738 434 792 431 q 646 396 684 431 q 608 304 610 358 q 646 212 610 250 q 738 174 684 176 l 738 174 m 868 -43 q 830 49 865 11 l 830 49 q 738 87 792 84 q 646 49 684 84 q 608 -43 610 11 q 646 -136 610 -98 q 738 -174 684 -171 q 830 -136 792 -171 q 868 -43 865 -98 l 868 -43 m 391 -174 q 483 -136 445 -171 l 483 -136 q 521 -43 518 -98 q 483 49 518 11 q 391 87 445 84 q 298 49 336 84 q 260 -43 263 11 q 298 -136 263 -98 q 391 -174 336 -171 l 391 -174 m 1563 304 q 1525 396 1560 358 l 1525 396 q 1432 434 1487 431 q 1340 396 1378 431 q 1302 304 1305 358 q 1340 212 1305 250 q 1432 174 1378 176 q 1525 212 1487 176 q 1563 304 1560 250 l 1563 304 m 1432 521 q 1525 559 1487 524 l 1525 559 q 1563 651 1560 597 q 1525 743 1560 705 q 1432 781 1487 779 q 1340 743 1378 779 q 1302 651 1305 705 q 1340 559 1305 597 q 1432 521 1378 524 l 1432 521 z "},"":{"ha":1736,"x_min":87,"x_max":1649,"o":"m 1563 87 l 174 87 q 111 62 136 87 q 87 0 87 38 q 111 -62 87 -38 q 174 -87 136 -87 l 1563 -87 q 1625 -62 1600 -87 q 1649 0 1649 -38 q 1625 62 1649 38 q 1563 87 1600 87 l 1563 87 m 1625 458 q 1649 521 1649 486 l 1649 521 q 1625 583 1649 556 q 1563 608 1598 608 q 1500 583 1527 608 l 1389 469 l 1389 1042 q 1364 1104 1389 1080 q 1302 1128 1340 1128 q 1240 1104 1264 1128 q 1215 1042 1215 1080 l 1215 469 l 1104 583 q 1042 608 1077 608 q 979 583 1006 608 q 955 521 955 556 q 979 458 955 486 l 1240 198 q 1302 174 1267 174 q 1364 198 1337 174 l 1625 458 l 1625 458 m 757 583 q 694 608 730 608 l 694 608 q 632 583 659 608 l 521 469 l 521 1042 q 496 1104 521 1080 q 434 1128 472 1128 q 372 1104 396 1128 q 347 1042 347 1080 l 347 469 l 236 583 q 174 608 209 608 q 111 583 138 608 q 87 521 87 556 q 111 458 87 486 l 372 198 q 434 174 399 174 q 496 198 469 174 l 757 458 q 781 521 781 486 q 757 583 781 556 l 757 583 z "},"":{"ha":1736,"x_min":43,"x_max":1690,"o":"m 391 1215 q 326 1150 331 1210 l 326 830 l 263 892 q 171 892 217 930 q 171 800 133 846 l 345 627 q 437 627 391 589 l 610 800 q 610 892 648 846 q 518 892 564 930 l 456 830 l 456 1150 q 391 1215 450 1210 l 391 1215 m 977 673 q 944 749 977 719 l 944 749 q 868 781 914 781 q 792 749 822 781 q 760 673 760 719 q 792 597 760 627 q 868 564 822 564 q 944 597 914 564 q 977 673 977 627 l 977 673 m 499 412 q 467 488 499 458 l 467 488 q 391 521 437 521 q 315 488 345 521 q 282 412 282 458 q 315 336 282 366 q 391 304 345 304 q 467 336 437 304 q 499 412 499 366 l 499 412 m 1345 304 q 1421 336 1392 304 l 1421 336 q 1454 412 1454 366 q 1421 488 1454 458 q 1345 521 1392 521 q 1270 488 1299 521 q 1237 412 1237 458 q 1270 336 1237 366 q 1345 304 1299 304 l 1345 304 m 543 16 l 616 -117 q 703 -144 648 -168 q 730 -57 754 -111 l 632 127 q 643 144 637 133 l 716 277 l 716 130 q 741 68 716 92 q 803 43 765 43 l 933 43 q 996 68 971 43 q 1020 130 1020 92 l 1020 277 l 1093 144 q 1104 127 1099 133 l 1006 -57 q 1034 -144 982 -111 q 1120 -117 1088 -168 l 1194 16 l 1194 -87 q 1218 -149 1194 -125 q 1280 -174 1242 -174 l 1411 -174 q 1473 -149 1449 -174 q 1497 -87 1497 -125 l 1497 16 l 1571 -117 q 1657 -144 1603 -168 q 1685 -57 1709 -111 l 1581 136 q 1495 225 1549 193 q 1373 260 1438 260 l 1318 260 q 1196 225 1251 260 l 1104 396 q 1017 486 1072 453 q 895 521 960 521 l 841 521 q 719 486 776 521 q 632 396 665 453 l 540 225 q 418 260 486 260 l 363 260 q 241 225 298 260 q 155 136 187 193 l 52 -57 q 79 -144 27 -111 q 165 -117 133 -168 l 239 16 l 239 -87 q 263 -149 239 -125 q 326 -174 288 -174 l 456 -174 q 518 -149 494 -174 q 543 -87 543 -125 l 543 16 l 543 16 m 1126 800 l 1299 627 q 1392 627 1345 589 l 1565 800 q 1565 892 1603 846 q 1473 892 1519 930 l 1411 830 l 1411 1150 q 1345 1215 1405 1210 q 1280 1150 1286 1210 l 1280 830 l 1218 892 q 1126 892 1172 930 q 1126 800 1088 846 l 1126 800 z "},"":{"ha":1736,"x_min":0,"x_max":1736,"o":"m 87 1042 q 149 1017 125 1042 l 149 1017 q 174 955 174 993 l 174 87 q 149 24 174 49 q 87 0 125 0 q 24 24 49 0 q 0 87 0 49 l 0 955 q 24 1017 0 993 q 87 1042 49 1042 l 87 1042 m 670 844 q 694 781 694 817 l 694 781 q 670 719 694 746 l 556 608 l 1180 608 l 1066 719 q 1042 781 1042 746 q 1066 844 1042 817 q 1128 868 1093 868 q 1191 844 1164 868 l 1451 583 q 1476 521 1476 556 q 1451 458 1476 486 l 1191 198 q 1128 174 1164 174 q 1066 198 1093 174 q 1042 260 1042 225 q 1066 323 1042 296 l 1180 434 l 556 434 l 670 323 q 694 260 694 296 q 670 198 694 225 q 608 174 643 174 q 545 198 572 174 l 285 458 q 260 521 260 486 q 285 583 260 556 l 545 844 q 608 868 572 868 q 670 844 643 868 l 670 844 m 1736 955 l 1736 87 q 1712 24 1736 49 q 1649 0 1687 0 q 1587 24 1611 0 q 1563 87 1563 49 l 1563 955 q 1587 1017 1563 993 q 1649 1042 1611 1042 q 1712 1017 1687 1042 q 1736 955 1736 993 l 1736 955 z "},"":{"ha":1215,"x_min":0,"x_max":1215,"o":"m 608 955 q 882 857 768 952 l 795 768 q 784 722 776 749 q 825 694 798 697 l 1128 694 q 1172 738 1169 697 l 1172 1042 q 1145 1082 1172 1069 q 1099 1072 1118 1090 l 1006 979 q 608 1128 841 1123 q 521 1123 564 1128 l 521 947 q 608 955 562 955 l 608 955 m 271 795 l 361 708 q 407 697 380 689 q 434 738 431 711 l 434 1042 q 391 1085 431 1082 l 87 1085 q 46 1058 60 1085 q 57 1012 38 1031 l 149 920 q 0 521 5 754 q 5 434 0 477 l 182 434 q 174 521 174 475 q 271 795 176 681 l 271 795 m 1210 608 l 1034 608 q 1042 521 1042 567 q 944 247 1039 361 l 854 334 q 808 345 836 353 q 781 304 784 331 l 781 0 q 825 -43 784 -41 l 1128 -43 q 1169 -16 1156 -43 q 1158 30 1177 11 l 1066 122 q 1215 521 1210 288 q 1210 608 1215 564 l 1210 608 m 608 87 q 334 184 448 90 l 420 274 q 431 320 439 293 q 391 347 418 345 l 87 347 q 43 304 46 345 l 43 0 q 71 -41 43 -27 q 117 -30 98 -49 l 209 62 q 608 -87 374 -81 q 694 -81 651 -87 l 694 95 q 608 87 654 87 l 608 87 z "},"":{"ha":1389,"x_min":0,"x_max":1389,"o":"m 670 806 q 608 781 643 781 l 608 781 q 545 806 572 781 q 521 868 521 833 q 545 930 521 903 l 806 1191 q 868 1215 833 1215 q 930 1191 903 1215 l 1191 930 q 1215 868 1215 903 q 1191 806 1215 833 q 1128 781 1164 781 q 1066 806 1093 781 l 955 920 l 955 174 q 1006 52 958 100 q 1128 0 1055 3 l 1302 0 q 1364 -24 1340 0 q 1389 -87 1389 -49 q 1364 -149 1389 -125 q 1302 -174 1340 -174 l 1128 -174 q 882 -73 982 -171 q 781 174 784 27 q 730 296 779 247 q 608 347 681 345 l 296 347 l 410 236 q 434 174 434 209 q 410 111 434 138 q 347 87 382 87 q 285 111 312 87 l 24 372 q 0 434 0 399 q 24 496 0 469 l 285 757 q 347 781 312 781 q 410 757 382 781 q 434 694 434 730 q 410 632 434 659 l 296 521 l 608 521 q 781 475 703 521 l 781 920 l 670 806 l 670 806 z "},"":{"ha":1736,"x_min":0,"x_max":1736,"o":"m 24 1191 q 87 1215 52 1215 l 87 1215 q 149 1191 122 1215 l 434 903 l 434 955 q 458 1017 434 993 q 521 1042 483 1042 q 583 1017 559 1042 q 608 955 608 993 l 608 694 q 602 662 608 675 q 583 632 594 646 l 583 632 q 553 613 570 621 q 521 608 540 608 l 260 608 q 198 632 222 608 q 174 694 174 656 q 198 757 174 732 q 260 781 222 781 l 312 781 l 24 1066 q 0 1128 0 1093 q 24 1191 0 1164 l 24 1191 m 1042 521 q 990 399 1039 448 l 990 399 q 868 347 941 350 q 746 399 795 350 q 694 521 697 448 q 746 643 697 594 q 868 694 795 692 q 990 643 941 692 q 1042 521 1039 594 l 1042 521 m 312 260 l 260 260 q 198 285 222 260 q 174 347 174 309 q 198 410 174 385 q 260 434 222 434 l 521 434 l 521 434 l 521 434 q 583 410 559 434 l 583 410 q 602 380 594 396 q 608 347 608 366 l 608 87 q 583 24 608 49 q 521 0 559 0 q 458 24 483 0 q 434 87 434 49 l 434 138 l 149 -149 q 87 -174 122 -174 q 24 -149 52 -174 q 0 -87 0 -122 q 24 -24 0 -52 l 312 260 l 312 260 m 1128 955 q 1153 1017 1128 993 l 1153 1017 q 1215 1042 1177 1042 q 1278 1017 1253 1042 q 1302 955 1302 993 l 1302 903 l 1587 1191 q 1649 1215 1614 1215 q 1712 1191 1685 1215 q 1736 1128 1736 1164 q 1712 1066 1736 1093 l 1424 781 l 1476 781 q 1538 757 1514 781 q 1563 694 1563 732 q 1538 632 1563 656 q 1476 608 1514 608 l 1215 608 q 1153 632 1177 608 l 1153 632 q 1134 662 1142 646 q 1128 694 1128 675 l 1128 694 l 1128 694 l 1128 955 l 1128 955 m 1424 260 l 1712 -24 q 1736 -87 1736 -52 q 1712 -149 1736 -122 q 1649 -174 1685 -174 q 1587 -149 1614 -174 l 1302 138 l 1302 87 q 1278 24 1302 49 q 1215 0 1253 0 q 1153 24 1177 0 q 1128 87 1128 49 l 1128 347 l 1128 347 q 1128 347 1128 347 q 1128 347 1128 347 q 1134 380 1128 366 q 1153 410 1142 396 q 1215 434 1177 434 q 1215 434 1215 434 l 1215 434 l 1476 434 q 1538 410 1514 434 q 1563 347 1563 385 q 1538 285 1563 309 q 1476 260 1514 260 l 1424 260 l 1424 260 z "},"":{"ha":1389,"x_min":0,"x_max":1389,"o":"m 694 1215 q 757 1191 732 1215 l 757 1191 q 781 1128 781 1166 l 781 1042 l 868 1042 q 949 987 925 1039 q 930 892 968 936 l 757 719 q 694 694 730 694 q 632 719 659 694 l 458 892 q 442 987 420 936 q 521 1042 464 1039 l 608 1042 l 608 1128 q 632 1191 608 1166 q 694 1215 656 1215 l 694 1215 m 458 149 l 632 323 q 694 347 659 347 q 757 323 730 347 l 930 149 q 949 54 968 106 q 868 0 925 3 l 781 0 l 781 -87 q 757 -149 781 -125 q 694 -174 732 -174 q 632 -149 656 -174 q 608 -87 608 -125 l 608 0 l 521 0 q 439 54 464 3 q 458 149 420 106 l 458 149 m 87 608 l 174 608 l 174 694 q 228 776 176 751 q 323 757 279 795 l 496 583 q 521 521 521 556 q 496 458 521 486 l 323 285 q 228 269 279 247 q 174 347 176 290 l 174 434 l 87 434 q 24 458 49 434 q 0 521 0 483 q 24 583 0 559 q 87 608 49 608 l 87 608 m 892 458 q 868 521 868 486 l 868 521 q 892 583 868 556 l 1066 757 q 1161 776 1109 795 q 1215 694 1213 751 l 1215 608 l 1302 608 q 1364 583 1340 608 q 1389 521 1389 559 q 1364 458 1389 483 q 1302 434 1340 434 l 1215 434 l 1215 347 q 1161 266 1213 290 q 1066 285 1109 247 l 892 458 l 892 458 m 694 434 q 632 458 656 434 l 632 458 q 608 521 608 483 q 632 583 608 559 q 694 608 656 608 q 757 583 732 608 q 781 521 781 559 q 757 458 781 483 q 694 434 732 434 l 694 434 z "},"":{"ha":1736,"x_min":22,"x_max":1714,"o":"m 41 1175 q 133 1175 87 1213 l 304 1004 l 304 1107 q 369 1172 309 1166 q 434 1107 429 1166 l 434 846 q 369 781 429 787 l 109 781 q 43 846 49 787 q 109 911 49 906 l 212 911 l 41 1082 q 41 1175 3 1128 l 41 1175 m 363 553 q 464 708 396 624 l 464 708 q 635 849 534 789 l 635 849 q 868 911 735 909 q 1101 849 1001 909 q 1272 708 1202 789 q 1375 553 1340 624 q 1375 488 1389 521 q 1272 334 1340 418 q 1101 193 1202 252 q 868 130 1001 133 q 635 193 735 133 q 464 334 534 252 q 363 488 396 418 q 363 553 347 521 l 363 553 m 868 347 q 990 399 941 350 l 990 399 q 1042 521 1039 448 q 990 643 1039 594 q 868 694 941 692 q 746 643 795 692 q 694 521 697 594 q 746 399 697 448 q 868 347 795 350 l 868 347 m 1603 1175 q 1695 1175 1649 1213 q 1695 1082 1733 1128 l 1525 911 l 1628 911 q 1693 846 1687 906 q 1628 781 1687 787 l 1367 781 q 1302 846 1308 787 l 1302 1107 q 1367 1172 1308 1166 q 1432 1107 1427 1166 l 1432 1004 l 1603 1175 l 1603 1175 m 41 -133 q 41 -41 3 -87 l 212 130 l 109 130 q 43 195 49 136 q 109 260 49 255 l 369 260 q 434 195 429 255 l 434 -65 q 369 -130 429 -125 q 304 -65 309 -125 l 304 38 l 133 -133 q 41 -133 87 -171 l 41 -133 m 1603 -133 l 1432 38 l 1432 -65 q 1367 -130 1427 -125 q 1302 -65 1308 -125 l 1302 195 q 1367 260 1308 255 l 1628 260 q 1693 195 1687 255 q 1628 130 1687 136 l 1525 130 l 1695 -41 q 1695 -133 1733 -87 q 1603 -133 1649 -171 l 1603 -133 z "},"":{"ha":1389,"x_min":87,"x_max":1302,"o":"m 892 1191 q 955 1215 920 1215 l 955 1215 q 1017 1191 990 1215 l 1278 930 q 1302 868 1302 903 q 1278 806 1302 833 l 1017 545 q 955 521 990 521 q 892 545 920 521 q 868 608 868 572 q 892 670 868 643 l 1006 781 l 434 781 q 312 730 361 779 q 260 608 263 681 l 260 521 q 236 458 260 483 q 174 434 212 434 q 111 458 136 434 q 87 521 87 483 l 87 608 q 187 854 90 754 q 434 955 288 952 l 1006 955 l 892 1066 q 868 1128 868 1093 q 892 1191 868 1164 l 892 1191 m 632 496 q 694 521 659 521 l 694 521 q 757 496 730 521 l 1017 236 q 1042 174 1042 209 q 1017 111 1042 138 l 757 -149 q 694 -174 730 -174 q 632 -149 659 -174 q 608 -87 608 -122 q 632 -24 608 -52 l 746 87 l 347 87 q 285 62 309 87 q 260 0 260 38 l 260 -87 q 236 -149 260 -125 q 174 -174 212 -174 q 111 -149 136 -174 q 87 -87 87 -125 l 87 0 q 163 184 90 111 q 347 260 236 258 l 746 260 l 632 372 q 608 434 608 399 q 632 496 608 469 l 632 496 z "},"":{"ha":1389,"x_min":0,"x_max":1389,"o":"m 675 1147 q 738 1172 703 1172 l 738 1172 q 800 1147 773 1172 q 825 1085 825 1120 q 800 1023 825 1050 l 730 955 l 1128 955 q 1313 879 1240 952 q 1389 694 1386 806 l 1389 608 q 1364 545 1389 570 q 1302 521 1340 521 q 1240 545 1264 521 q 1215 608 1215 570 l 1215 694 q 1191 757 1215 732 q 1128 781 1166 781 l 730 781 l 800 713 q 825 651 825 686 q 800 589 825 616 q 738 564 773 564 q 675 589 703 564 l 458 806 q 434 868 434 833 q 458 930 434 903 l 675 1147 l 675 1147 m 713 453 l 930 236 q 955 174 955 209 q 930 111 955 138 l 713 -106 q 651 -130 686 -130 q 589 -106 616 -130 q 564 -43 564 -79 q 589 19 564 -8 l 659 87 l 260 87 q 198 62 222 87 q 174 0 174 38 l 174 -87 q 149 -149 174 -125 q 87 -174 125 -174 q 24 -149 49 -174 q 0 -87 0 -125 l 0 0 q 76 184 3 111 q 260 260 149 258 l 659 260 l 589 328 q 564 391 564 355 q 589 453 564 426 q 651 477 616 477 q 713 453 686 477 l 713 453 m 1389 174 q 1337 52 1386 100 l 1337 52 q 1215 0 1289 3 q 1093 52 1142 3 q 1042 174 1044 100 q 1093 296 1044 247 q 1215 347 1142 345 q 1337 296 1289 345 q 1389 174 1386 247 l 1389 174 m 174 1042 q 296 990 247 1039 l 296 990 q 347 868 345 941 q 296 746 345 795 q 174 694 247 697 q 52 746 100 697 q 0 868 3 795 q 52 990 3 941 q 174 1042 100 1039 l 174 1042 z "},"":{"ha":1736,"x_min":87,"x_max":1649,"o":"m 174 955 l 1563 955 q 1625 979 1600 955 q 1649 1042 1649 1004 q 1625 1104 1649 1080 q 1563 1128 1600 1128 l 174 1128 q 111 1104 136 1128 q 87 1042 87 1080 q 111 979 87 1004 q 174 955 136 955 l 174 955 m 111 583 q 87 521 87 556 l 87 521 q 111 458 87 486 q 174 434 138 434 q 236 458 209 434 l 347 572 l 347 0 q 372 -62 347 -38 q 434 -87 396 -87 q 496 -62 472 -87 q 521 0 521 -38 l 521 572 l 632 458 q 694 434 659 434 q 757 458 730 434 q 781 521 781 486 q 757 583 781 556 l 496 844 q 434 868 469 868 q 372 844 399 868 l 111 583 l 111 583 m 979 458 q 1042 434 1006 434 l 1042 434 q 1104 458 1077 434 l 1215 572 l 1215 0 q 1240 -62 1215 -38 q 1302 -87 1264 -87 q 1364 -62 1340 -87 q 1389 0 1389 -38 l 1389 572 l 1500 458 q 1563 434 1527 434 q 1625 458 1598 434 q 1649 521 1649 486 q 1625 583 1649 556 l 1364 844 q 1302 868 1337 868 q 1240 844 1267 868 l 979 583 q 955 521 955 556 q 979 458 955 486 l 979 458 z "},"":{"ha":1389,"x_min":0,"x_max":1389,"o":"m 694 1215 q 632 1191 656 1215 l 632 1191 q 608 1128 608 1166 l 608 410 q 521 260 526 361 q 572 138 524 187 q 694 87 621 90 q 817 138 768 90 q 868 260 865 187 q 781 410 863 361 l 781 1128 q 757 1191 781 1166 q 694 1215 732 1215 l 694 1215 m 130 868 q 38 830 76 865 l 38 830 q 0 738 3 792 l 0 -43 q 38 -136 3 -98 q 130 -174 76 -171 l 1259 -174 q 1351 -136 1313 -171 q 1389 -43 1386 -98 l 1389 738 q 1351 830 1386 792 q 1259 868 1313 865 l 955 868 l 955 260 q 879 76 952 149 q 694 0 806 3 q 510 76 583 3 q 434 260 437 149 l 434 868 l 130 868 l 130 868 z "},"":{"ha":694,"x_min":0,"x_max":694,"o":"m 174 1215 q 109 1150 114 1210 q 174 1085 114 1090 q 195 1063 193 1082 l 195 887 q 149 806 193 836 q 41 684 81 757 q 0 521 0 610 l 0 0 q 52 -122 3 -73 q 174 -174 100 -171 l 521 -174 q 643 -122 594 -171 q 694 0 692 -73 l 694 521 q 654 684 694 610 q 545 806 613 757 q 499 887 502 836 l 499 1063 q 521 1085 502 1082 q 586 1150 581 1090 q 521 1215 581 1210 l 499 1215 l 499 1215 l 499 1215 l 195 1215 l 195 1215 l 195 1215 l 174 1215 l 174 1215 m 347 179 q 255 214 293 179 l 255 214 q 217 301 220 250 q 252 391 220 336 q 315 480 285 442 q 380 480 347 513 q 442 391 410 442 q 477 301 475 336 q 439 214 475 250 q 347 179 401 179 l 347 179 z "},"":{"ha":694,"x_min":0,"x_max":694,"o":"m 239 1215 l 456 1215 q 521 1150 515 1210 l 521 1042 l 174 1042 l 174 1150 q 239 1215 179 1210 l 239 1215 m 0 803 q 62 903 3 871 l 130 933 q 225 955 174 955 l 469 955 q 564 933 521 955 l 632 903 q 694 803 692 871 q 643 711 692 743 q 694 608 692 673 q 635 499 692 537 q 694 391 692 461 q 635 282 692 320 q 694 174 692 244 q 635 65 692 103 q 694 -43 692 27 q 656 -136 692 -98 q 564 -174 618 -171 l 130 -174 q 38 -136 76 -171 q 0 -43 3 -98 q 60 65 3 27 q 0 174 3 103 q 60 282 3 244 q 0 391 3 320 q 60 499 3 461 q 0 608 3 537 q 52 711 3 673 q 0 803 3 743 l 0 803 m 174 564 q 217 521 176 524 l 477 521 q 521 564 518 524 q 477 608 518 605 l 217 608 q 174 564 176 605 l 174 564 m 217 260 q 174 217 176 258 q 217 174 176 176 l 477 174 q 521 217 518 176 q 477 260 518 258 l 217 260 l 217 260 z "},"":{"ha":1389,"x_min":0,"x_max":1389,"o":"m 0 694 q 52 817 3 768 l 52 817 q 174 868 100 865 q 176 868 174 868 q 179 868 176 868 q 252 993 195 944 q 391 1042 309 1039 q 502 1012 453 1042 q 581 1096 529 1063 q 694 1128 632 1128 q 808 1096 757 1128 q 887 1012 860 1063 q 998 1042 936 1042 q 1137 993 1080 1039 q 1210 868 1194 944 q 1213 868 1213 868 q 1215 868 1215 868 q 1337 817 1289 865 q 1389 694 1386 768 q 1364 608 1389 646 l 24 608 q 0 694 0 646 l 0 694 m 0 448 q 22 499 0 477 l 22 499 q 73 521 43 521 l 1316 521 q 1367 499 1345 521 q 1389 448 1389 477 q 1308 190 1386 301 q 1099 27 1229 79 l 1096 -11 q 1009 -87 1080 -81 l 380 -87 q 293 -11 309 -81 l 290 27 q 81 190 160 79 q 0 448 3 301 l 0 448 z "},"":{"ha":1736,"x_min":0,"x_max":1736,"o":"m 694 1085 q 732 1177 697 1139 l 732 1177 q 825 1215 770 1213 l 1606 1215 q 1698 1177 1660 1213 q 1736 1085 1733 1139 l 1736 -43 q 1698 -136 1733 -98 q 1606 -174 1660 -171 l 1034 -174 q 1042 -130 1042 -152 l 1042 529 q 1128 651 1123 562 l 1128 738 q 1090 830 1126 792 q 998 868 1053 865 l 694 868 l 694 1085 l 694 1085 m 1549 274 q 1549 334 1576 304 l 1375 507 q 1316 507 1345 534 l 1142 334 q 1142 274 1115 304 q 1202 274 1172 247 l 1302 372 l 1302 43 q 1345 0 1305 3 q 1389 43 1386 3 l 1389 372 l 1489 274 q 1549 274 1519 247 l 1549 274 m 0 738 q 43 781 3 779 l 998 781 q 1042 738 1039 779 l 1042 651 q 998 608 1039 610 l 43 608 q 0 651 3 610 l 0 738 l 0 738 m 955 521 l 955 -87 q 930 -149 955 -125 q 868 -174 906 -174 l 174 -174 q 111 -149 136 -174 q 87 -87 87 -125 l 87 521 l 955 521 l 955 521 m 391 347 q 347 304 350 345 q 391 260 350 263 l 651 260 q 694 304 692 263 q 651 347 692 345 l 391 347 l 391 347 z "},"":{"ha":1563,"x_min":0,"x_max":1563,"o":"m 87 1128 q 24 1104 49 1128 l 24 1104 q 0 1042 0 1080 q 24 979 0 1004 q 87 955 49 955 l 195 955 l 195 781 l 0 781 l 0 434 q 184 358 111 431 q 260 174 258 285 l 260 0 q 285 -62 260 -38 q 347 -87 309 -87 l 434 -87 q 496 -62 472 -87 q 521 0 521 -38 l 521 174 q 597 358 524 285 q 781 434 670 431 q 966 358 892 431 q 1042 174 1039 285 l 1042 0 q 1066 -62 1042 -38 q 1128 -87 1090 -87 l 1215 -87 q 1278 -62 1253 -87 q 1302 0 1302 -38 l 1302 174 q 1378 358 1305 285 q 1563 434 1451 431 l 1563 781 l 1367 781 l 1367 955 l 1476 955 q 1538 979 1514 955 q 1563 1042 1563 1004 q 1538 1104 1563 1080 q 1476 1128 1514 1128 l 87 1128 l 87 1128 m 1237 955 l 1237 781 l 1020 781 l 1020 955 l 1237 955 l 1237 955 m 890 955 l 890 781 l 673 781 l 673 955 l 890 955 l 890 955 m 543 955 l 543 781 l 326 781 l 326 955 l 543 955 l 543 955 z "},"":{"ha":1736,"x_min":87,"x_max":1736,"o":"m 174 1128 q 111 1104 136 1128 l 111 1104 q 87 1042 87 1080 q 111 979 87 1004 q 174 955 136 955 l 282 955 l 282 781 l 87 781 l 87 434 q 271 358 198 431 q 347 174 345 285 l 347 0 q 372 -62 347 -38 q 434 -87 396 -87 l 521 -87 q 583 -62 559 -87 q 608 0 608 -38 l 608 174 q 684 358 610 285 q 868 434 757 431 q 917 429 892 434 q 1090 621 979 548 q 1345 694 1202 692 q 1649 586 1522 692 l 1649 781 l 1454 781 l 1454 955 l 1563 955 q 1625 979 1600 955 q 1649 1042 1649 1004 q 1625 1104 1649 1080 q 1563 1128 1600 1128 l 174 1128 l 174 1128 m 1324 955 l 1324 781 l 1107 781 l 1107 955 l 1324 955 l 1324 955 m 977 955 l 977 781 l 760 781 l 760 955 l 977 955 l 977 955 m 629 955 l 629 781 l 412 781 l 412 955 l 629 955 l 629 955 m 1736 217 q 1622 494 1731 382 l 1622 494 q 1345 608 1511 602 q 1069 494 1180 602 q 955 217 960 382 q 1069 -60 960 52 q 1345 -174 1180 -168 q 1622 -60 1511 -168 q 1736 217 1731 52 l 1736 217 m 1527 334 q 1527 274 1554 304 l 1332 79 q 1272 79 1302 52 l 1164 187 q 1164 247 1137 217 q 1223 247 1194 274 l 1302 171 l 1468 334 q 1527 334 1497 361 l 1527 334 z "},"":{"ha":1736,"x_min":87,"x_max":1736,"o":"m 174 1128 q 111 1104 136 1128 l 111 1104 q 87 1042 87 1080 q 111 979 87 1004 q 174 955 136 955 l 282 955 l 282 781 l 87 781 l 87 434 q 271 358 198 431 q 347 174 345 285 l 347 0 q 372 -62 347 -38 q 434 -87 396 -87 l 521 -87 q 583 -62 559 -87 q 608 0 608 -38 l 608 174 q 684 358 610 285 q 868 434 757 431 q 917 429 892 434 q 1090 621 979 548 q 1345 694 1202 692 q 1649 586 1522 692 l 1649 781 l 1454 781 l 1454 955 l 1563 955 q 1625 979 1600 955 q 1649 1042 1649 1004 q 1625 1104 1649 1080 q 1563 1128 1600 1128 l 174 1128 l 174 1128 m 1324 955 l 1324 781 l 1107 781 l 1107 955 l 1324 955 l 1324 955 m 977 955 l 977 781 l 760 781 l 760 955 l 977 955 l 977 955 m 629 955 l 629 781 l 412 781 l 412 955 l 629 955 l 629 955 m 1345 -174 q 1622 -60 1511 -168 l 1622 -60 q 1736 217 1731 52 q 1622 494 1731 382 q 1345 608 1511 602 q 1069 494 1180 602 q 955 217 960 382 q 1069 -60 960 52 q 1345 -174 1180 -168 l 1345 -174 m 1345 -43 q 1280 22 1286 -38 q 1345 87 1286 81 q 1411 22 1405 81 q 1345 -43 1405 -38 l 1345 -43 m 1345 477 q 1389 434 1386 475 l 1389 217 q 1345 174 1386 176 q 1302 217 1305 176 l 1302 434 q 1345 477 1305 475 l 1345 477 z "},"":{"ha":1736,"x_min":87,"x_max":1736,"o":"m 174 1128 q 111 1104 136 1128 l 111 1104 q 87 1042 87 1080 q 111 979 87 1004 q 174 955 136 955 l 282 955 l 282 781 l 87 781 l 87 434 q 271 358 198 431 q 347 174 345 285 l 347 0 q 372 -62 347 -38 q 434 -87 396 -87 l 521 -87 q 583 -62 559 -87 q 608 0 608 -38 l 608 174 q 684 358 610 285 q 868 434 757 431 q 917 429 892 434 q 1090 621 979 548 q 1345 694 1202 692 q 1649 586 1522 692 l 1649 781 l 1454 781 l 1454 955 l 1563 955 q 1625 979 1600 955 q 1649 1042 1649 1004 q 1625 1104 1649 1080 q 1563 1128 1600 1128 l 174 1128 l 174 1128 m 1324 955 l 1324 781 l 1107 781 l 1107 955 l 1324 955 l 1324 955 m 977 955 l 977 781 l 760 781 l 760 955 l 977 955 l 977 955 m 629 955 l 629 781 l 412 781 l 412 955 l 629 955 l 629 955 m 1345 -174 q 1622 -60 1511 -168 l 1622 -60 q 1736 217 1731 52 q 1622 494 1731 382 q 1345 608 1511 602 q 1069 494 1180 602 q 955 217 960 382 q 1069 -60 960 52 q 1345 -174 1180 -168 l 1345 -174 m 1506 317 l 1408 217 l 1506 117 q 1506 57 1533 87 q 1446 57 1476 30 l 1345 155 l 1245 57 q 1185 57 1215 30 q 1185 117 1158 87 l 1283 217 l 1185 317 q 1185 377 1158 347 q 1245 377 1215 404 l 1345 279 l 1446 377 q 1506 377 1476 404 q 1506 317 1533 347 l 1506 317 z "},"":{"ha":1736,"x_min":87,"x_max":1736,"o":"m 87 1042 q 111 1104 87 1080 l 111 1104 q 174 1128 136 1128 l 1563 1128 q 1625 1104 1600 1128 q 1649 1042 1649 1080 q 1625 979 1649 1004 q 1563 955 1600 955 l 1454 955 l 1454 781 l 1432 781 q 1218 692 1302 779 q 1128 477 1131 608 l 1128 410 q 1063 345 1088 388 q 868 434 987 431 q 684 358 757 431 q 608 174 610 285 l 608 0 q 583 -62 608 -38 q 521 -87 559 -87 l 434 -87 q 372 -62 396 -87 q 347 0 347 -38 l 347 174 q 271 358 345 285 q 87 434 198 431 l 87 781 l 282 781 l 282 955 l 174 955 q 111 979 136 955 q 87 1042 87 1004 l 87 1042 m 1107 955 l 1107 781 l 1324 781 l 1324 955 l 1107 955 l 1107 955 m 977 781 l 977 955 l 760 955 l 760 781 l 977 781 l 977 781 m 412 955 l 412 781 l 629 781 l 629 955 l 412 955 l 412 955 m 1432 564 q 1370 540 1394 564 l 1370 540 q 1345 477 1345 515 l 1345 347 l 1519 347 l 1519 477 q 1495 540 1519 515 q 1432 564 1470 564 l 1432 564 m 1215 477 q 1278 632 1218 570 l 1278 632 q 1432 694 1340 692 q 1587 632 1525 692 q 1649 477 1647 570 l 1649 347 q 1712 323 1687 347 q 1736 260 1736 298 l 1736 -87 q 1712 -149 1736 -125 q 1649 -174 1687 -174 l 1215 -174 q 1153 -149 1177 -174 q 1128 -87 1128 -125 l 1128 260 q 1153 323 1128 298 q 1215 347 1177 347 l 1215 477 l 1215 477 z "},"":{"ha":1563,"x_min":0,"x_max":1563,"o":"m 0 955 q 24 1017 0 993 l 24 1017 q 87 1042 49 1042 l 1476 1042 q 1538 1017 1514 1042 q 1563 955 1563 993 l 1563 857 q 1541 803 1563 825 q 1487 781 1519 781 q 1356 727 1408 779 q 1302 597 1305 675 l 1302 258 q 1202 228 1248 258 q 1042 171 1123 174 l 1042 171 l 1042 174 l 1042 521 q 966 705 1039 632 q 781 781 892 779 q 597 705 670 779 q 521 521 524 632 l 521 174 l 521 171 q 361 228 439 174 q 260 258 315 258 l 260 597 q 206 727 258 675 q 76 781 155 779 q 22 803 43 781 q 0 857 0 825 l 0 955 l 0 955 m 833 157 q 1042 87 928 90 q 1251 157 1156 92 l 1251 157 q 1359 152 1308 193 q 1495 84 1419 103 q 1549 46 1530 76 q 1560 -19 1568 16 q 1522 -73 1552 -54 q 1457 -84 1492 -92 q 1299 -16 1354 -57 q 1042 -87 1177 -84 q 825 -35 909 -79 q 781 -14 800 -24 q 738 -35 762 -24 q 521 -87 654 -79 q 266 -16 385 -84 q 106 -84 209 -57 q 41 -73 71 -92 q 3 -19 11 -54 q 14 46 -5 16 q 68 84 33 76 q 203 152 144 103 q 312 157 255 190 l 312 157 q 521 87 407 92 q 732 157 637 90 q 833 157 781 190 l 833 157 z "},"":{"ha":1215,"x_min":0,"x_max":1215,"o":"m 260 803 l 260 781 l 130 781 l 130 803 q 252 1093 136 979 q 543 1215 366 1210 l 673 1215 q 963 1093 849 1210 q 1085 803 1080 979 l 1085 781 l 955 781 l 955 803 q 873 1004 952 922 q 673 1085 792 1082 l 543 1085 q 342 1004 423 1082 q 260 803 263 922 l 260 803 m 0 608 q 24 670 0 646 l 24 670 q 87 694 49 694 l 1128 694 q 1191 670 1166 694 q 1215 608 1215 646 q 1191 545 1215 570 q 1128 521 1166 521 l 1115 521 l 1055 -57 q 1012 -141 1047 -109 q 925 -174 977 -174 l 290 -174 q 203 -141 239 -174 q 160 -57 168 -109 l 100 521 l 87 521 q 24 545 49 521 q 0 608 0 570 l 0 608 z "},"":{"ha":1736,"x_min":84,"x_max":1638,"o":"m 534 925 l 624 1123 q 591 1210 643 1180 q 505 1177 534 1229 l 434 1020 l 363 1177 q 277 1210 334 1229 q 244 1123 225 1180 l 336 925 q 274 846 293 895 l 228 846 l 217 903 q 138 952 198 960 q 90 876 81 936 l 111 768 q 174 716 122 719 l 260 716 l 260 654 l 157 627 q 109 572 117 616 l 87 420 q 144 347 84 361 q 217 401 203 345 l 233 510 l 282 524 q 434 434 331 439 q 586 524 537 439 l 637 513 l 651 404 q 724 347 665 345 q 781 420 784 361 l 760 572 q 711 627 751 616 l 608 654 l 608 716 l 694 716 q 760 768 746 719 l 781 876 q 730 952 787 936 q 654 903 670 960 l 640 846 l 594 846 q 532 925 575 895 l 534 925 m 1432 437 l 1611 564 q 1625 656 1655 605 q 1535 673 1587 703 l 1394 572 l 1411 743 q 1354 814 1411 803 q 1283 754 1294 814 l 1261 537 q 1169 502 1210 532 l 1128 524 l 1147 578 q 1107 662 1161 637 q 1023 621 1047 675 l 987 515 q 1017 437 974 467 l 1093 393 l 1061 339 l 960 369 q 890 347 917 380 l 795 225 q 806 133 762 176 q 898 146 857 103 l 966 231 l 1015 217 q 1101 62 1015 119 q 1278 65 1194 16 l 1316 30 l 1275 -73 q 1310 -157 1259 -130 q 1394 -122 1367 -174 l 1454 22 q 1438 92 1468 62 l 1362 165 l 1394 220 l 1468 176 q 1549 190 1514 155 l 1622 274 q 1617 366 1657 323 q 1525 361 1568 401 l 1487 317 l 1446 339 q 1432 437 1454 391 l 1432 437 z "},"":{"ha":1736,"x_min":0,"x_max":1736,"o":"m 0 1085 q 38 1177 3 1139 l 38 1177 q 130 1215 76 1213 l 911 1215 q 1004 1177 966 1213 q 1042 1085 1039 1139 l 1042 586 q 914 423 960 518 q 868 217 868 328 q 1012 -125 873 11 q 911 -174 974 -171 l 651 -174 l 651 43 q 613 136 648 98 q 521 174 575 171 q 429 136 467 171 q 391 43 393 98 l 391 -174 l 130 -174 q 38 -136 76 -171 q 0 -43 3 -98 l 0 1085 l 0 1085 m 217 608 q 174 564 176 605 l 174 477 q 217 434 176 437 l 304 434 q 347 477 345 437 l 347 564 q 304 608 345 605 l 217 608 l 217 608 m 434 564 l 434 477 q 477 434 437 437 l 564 434 q 608 477 605 437 l 608 564 q 564 608 605 605 l 477 608 q 434 564 437 605 l 434 564 m 738 608 q 694 564 697 605 l 694 477 q 738 434 697 437 l 825 434 q 868 477 865 437 l 868 564 q 825 608 865 605 l 738 608 l 738 608 m 174 911 l 174 825 q 217 781 176 784 l 304 781 q 347 825 345 784 l 347 911 q 304 955 345 952 l 217 955 q 174 911 176 952 l 174 911 m 477 955 q 434 911 437 952 l 434 825 q 477 781 437 784 l 564 781 q 608 825 605 784 l 608 911 q 564 955 605 952 l 477 955 l 477 955 m 694 911 l 694 825 q 738 781 697 784 l 825 781 q 868 825 865 784 l 868 911 q 825 955 865 952 l 738 955 q 694 911 697 952 l 694 911 m 1736 217 q 1622 -60 1731 52 l 1622 -60 q 1345 -174 1511 -168 q 1069 -60 1180 -168 q 955 217 960 52 q 1069 494 960 382 q 1345 608 1180 602 q 1622 494 1511 602 q 1736 217 1731 382 l 1736 217 m 1337 399 q 1337 339 1310 369 l 1413 260 l 1172 260 q 1128 217 1131 258 q 1172 174 1131 176 l 1413 174 l 1337 95 q 1337 35 1310 65 q 1397 35 1367 8 l 1549 187 q 1549 247 1576 217 l 1397 399 q 1337 399 1367 426 l 1337 399 z "},"":{"ha":1736,"x_min":0,"x_max":1736,"o":"m 130 1215 q 38 1177 76 1213 l 38 1177 q 0 1085 3 1139 l 0 -43 q 38 -136 3 -98 q 130 -174 76 -171 l 391 -174 l 391 43 q 429 136 393 98 q 521 174 467 171 q 613 136 575 171 q 651 43 648 98 l 651 -174 l 911 -174 q 1012 -125 974 -171 q 868 217 873 11 q 914 423 868 328 q 1042 586 960 518 l 1042 1085 q 1004 1177 1039 1139 q 911 1215 966 1213 l 130 1215 l 130 1215 m 174 564 q 217 608 176 605 l 304 608 q 347 564 345 605 l 347 477 q 304 434 345 437 l 217 434 q 174 477 176 437 l 174 564 l 174 564 m 477 608 l 564 608 q 608 564 605 605 l 608 477 q 564 434 605 437 l 477 434 q 434 477 437 437 l 434 564 q 477 608 437 605 l 477 608 m 694 564 q 738 608 697 605 l 825 608 q 868 564 865 605 l 868 477 q 825 434 865 437 l 738 434 q 694 477 697 437 l 694 564 l 694 564 m 217 955 l 304 955 q 347 911 345 952 l 347 825 q 304 781 345 784 l 217 781 q 174 825 176 784 l 174 911 q 217 955 176 952 l 217 955 m 434 911 q 477 955 437 952 l 564 955 q 608 911 605 952 l 608 825 q 564 781 605 784 l 477 781 q 434 825 437 784 l 434 911 l 434 911 m 738 955 l 825 955 q 868 911 865 952 l 868 825 q 825 781 865 784 l 738 781 q 694 825 697 784 l 694 911 q 738 955 697 952 l 738 955 m 1736 217 q 1622 494 1731 382 l 1622 494 q 1345 608 1511 602 q 1069 494 1180 602 q 955 217 960 382 q 1069 -60 960 52 q 1345 -174 1180 -168 q 1622 -60 1511 -168 q 1736 217 1731 52 l 1736 217 m 1527 334 q 1527 274 1554 304 l 1332 79 q 1272 79 1302 52 l 1164 187 q 1164 247 1137 217 q 1223 247 1194 274 l 1302 171 l 1468 334 q 1527 334 1497 361 l 1527 334 z "},"":{"ha":1736,"x_min":0,"x_max":1736,"o":"m 130 1215 q 38 1177 76 1213 l 38 1177 q 0 1085 3 1139 l 0 -43 q 38 -136 3 -98 q 130 -174 76 -171 l 391 -174 l 391 43 q 429 136 393 98 q 521 174 467 171 q 613 136 575 171 q 651 43 648 98 l 651 -174 l 911 -174 q 1012 -125 974 -171 q 868 217 873 11 q 914 423 868 328 q 1042 586 960 518 l 1042 1085 q 1004 1177 1039 1139 q 911 1215 966 1213 l 130 1215 l 130 1215 m 174 564 q 217 608 176 605 l 304 608 q 347 564 345 605 l 347 477 q 304 434 345 437 l 217 434 q 174 477 176 437 l 174 564 l 174 564 m 477 608 l 564 608 q 608 564 605 605 l 608 477 q 564 434 605 437 l 477 434 q 434 477 437 437 l 434 564 q 477 608 437 605 l 477 608 m 694 564 q 738 608 697 605 l 825 608 q 868 564 865 605 l 868 477 q 825 434 865 437 l 738 434 q 694 477 697 437 l 694 564 l 694 564 m 217 955 l 304 955 q 347 911 345 952 l 347 825 q 304 781 345 784 l 217 781 q 174 825 176 784 l 174 911 q 217 955 176 952 l 217 955 m 434 911 q 477 955 437 952 l 564 955 q 608 911 605 952 l 608 825 q 564 781 605 784 l 477 781 q 434 825 437 784 l 434 911 l 434 911 m 738 955 l 825 955 q 868 911 865 952 l 868 825 q 825 781 865 784 l 738 781 q 694 825 697 784 l 694 911 q 738 955 697 952 l 738 955 m 1345 -174 q 1622 -60 1511 -168 l 1622 -60 q 1736 217 1731 52 q 1622 494 1731 382 q 1345 608 1511 602 q 1069 494 1180 602 q 955 217 960 382 q 1069 -60 960 52 q 1345 -174 1180 -168 l 1345 -174 m 1345 -43 q 1280 22 1286 -38 q 1345 87 1286 81 q 1411 22 1405 81 q 1345 -43 1405 -38 l 1345 -43 m 1345 477 q 1389 434 1386 475 l 1389 217 q 1345 174 1386 176 q 1302 217 1305 176 l 1302 434 q 1345 477 1305 475 l 1345 477 z "},"":{"ha":1736,"x_min":0,"x_max":1736,"o":"m 130 1215 q 38 1177 76 1213 l 38 1177 q 0 1085 3 1139 l 0 -43 q 38 -136 3 -98 q 130 -174 76 -171 l 391 -174 l 391 43 q 429 136 393 98 q 521 174 467 171 q 613 136 575 171 q 651 43 648 98 l 651 -174 l 911 -174 q 1012 -125 974 -171 q 868 217 873 11 q 914 423 868 328 q 1042 586 960 518 l 1042 1085 q 1004 1177 1039 1139 q 911 1215 966 1213 l 130 1215 l 130 1215 m 174 564 q 217 608 176 605 l 304 608 q 347 564 345 605 l 347 477 q 304 434 345 437 l 217 434 q 174 477 176 437 l 174 564 l 174 564 m 477 608 l 564 608 q 608 564 605 605 l 608 477 q 564 434 605 437 l 477 434 q 434 477 437 437 l 434 564 q 477 608 437 605 l 477 608 m 694 564 q 738 608 697 605 l 825 608 q 868 564 865 605 l 868 477 q 825 434 865 437 l 738 434 q 694 477 697 437 l 694 564 l 694 564 m 217 955 l 304 955 q 347 911 345 952 l 347 825 q 304 781 345 784 l 217 781 q 174 825 176 784 l 174 911 q 217 955 176 952 l 217 955 m 434 911 q 477 955 437 952 l 564 955 q 608 911 605 952 l 608 825 q 564 781 605 784 l 477 781 q 434 825 437 784 l 434 911 l 434 911 m 738 955 l 825 955 q 868 911 865 952 l 868 825 q 825 781 865 784 l 738 781 q 694 825 697 784 l 694 911 q 738 955 697 952 l 738 955 m 1345 -174 q 1622 -60 1511 -168 l 1622 -60 q 1736 217 1731 52 q 1622 494 1731 382 q 1345 608 1511 602 q 1069 494 1180 602 q 955 217 960 382 q 1069 -60 960 52 q 1345 -174 1180 -168 l 1345 -174 m 1506 317 l 1408 217 l 1506 117 q 1506 57 1533 87 q 1446 57 1476 30 l 1345 155 l 1245 57 q 1185 57 1215 30 q 1185 117 1158 87 l 1283 217 l 1185 317 q 1185 377 1158 347 q 1245 377 1215 404 l 1345 279 l 1446 377 q 1506 377 1476 404 q 1506 317 1533 347 l 1506 317 z "},"":{"ha":1736,"x_min":0,"x_max":1736,"o":"m 130 1215 q 38 1177 76 1213 l 38 1177 q 0 1085 3 1139 l 0 -43 q 38 -136 3 -98 q 130 -174 76 -171 l 391 -174 l 391 43 q 429 136 393 98 q 521 174 467 171 q 613 136 575 171 q 651 43 648 98 l 651 -174 l 911 -174 q 1004 -136 966 -171 q 1042 -43 1039 -98 l 1042 1085 q 1004 1177 1039 1139 q 911 1215 966 1213 l 130 1215 l 130 1215 m 174 564 q 217 608 176 605 l 304 608 q 347 564 345 605 l 347 477 q 304 434 345 437 l 217 434 q 174 477 176 437 l 174 564 l 174 564 m 477 608 l 564 608 q 608 564 605 605 l 608 477 q 564 434 605 437 l 477 434 q 434 477 437 437 l 434 564 q 477 608 437 605 l 477 608 m 694 564 q 738 608 697 605 l 825 608 q 868 564 865 605 l 868 477 q 825 434 865 437 l 738 434 q 694 477 697 437 l 694 564 l 694 564 m 217 955 l 304 955 q 347 911 345 952 l 347 825 q 304 781 345 784 l 217 781 q 174 825 176 784 l 174 911 q 217 955 176 952 l 217 955 m 434 911 q 477 955 437 952 l 564 955 q 608 911 605 952 l 608 825 q 564 781 605 784 l 477 781 q 434 825 437 784 l 434 911 l 434 911 m 738 955 l 825 955 q 868 911 865 952 l 868 825 q 825 781 865 784 l 738 781 q 694 825 697 784 l 694 911 q 738 955 697 952 l 738 955 m 1215 1215 q 1153 1191 1177 1215 l 1153 1191 q 1128 1128 1128 1166 l 1128 -174 l 1302 -174 l 1302 694 l 1693 694 q 1736 738 1733 697 l 1736 1085 q 1693 1128 1733 1126 l 1302 1128 q 1278 1191 1302 1166 q 1215 1215 1253 1215 l 1215 1215 z "},"":{"ha":1563,"x_min":0,"x_max":1563,"o":"m 130 1215 q 38 1177 76 1213 l 38 1177 q 0 1085 3 1139 l 0 -43 q 38 -136 3 -98 q 130 -174 76 -171 l 391 -174 l 391 43 q 429 136 393 98 q 521 174 467 171 q 613 136 575 171 q 651 43 648 98 l 651 -174 l 892 -174 q 868 -87 868 -136 l 868 260 q 955 410 873 361 l 955 477 q 1042 689 958 605 l 1042 1085 q 1004 1177 1039 1139 q 911 1215 966 1213 l 130 1215 l 130 1215 m 174 564 q 217 608 176 605 l 304 608 q 347 564 345 605 l 347 477 q 304 434 345 437 l 217 434 q 174 477 176 437 l 174 564 l 174 564 m 477 608 l 564 608 q 608 564 605 605 l 608 477 q 564 434 605 437 l 477 434 q 434 477 437 437 l 434 564 q 477 608 437 605 l 477 608 m 694 564 q 738 608 697 605 l 825 608 q 868 564 865 605 l 868 477 q 825 434 865 437 l 738 434 q 694 477 697 437 l 694 564 l 694 564 m 217 955 l 304 955 q 347 911 345 952 l 347 825 q 304 781 345 784 l 217 781 q 174 825 176 784 l 174 911 q 217 955 176 952 l 217 955 m 434 911 q 477 955 437 952 l 564 955 q 608 911 605 952 l 608 825 q 564 781 605 784 l 477 781 q 434 825 437 784 l 434 911 l 434 911 m 738 955 l 825 955 q 868 911 865 952 l 868 825 q 825 781 865 784 l 738 781 q 694 825 697 784 l 694 911 q 738 955 697 952 l 738 955 m 1259 564 q 1321 540 1297 564 l 1321 540 q 1345 477 1345 515 l 1345 347 l 1172 347 l 1172 477 q 1196 540 1172 515 q 1259 564 1221 564 l 1259 564 m 1042 477 l 1042 347 q 979 323 1004 347 q 955 260 955 298 l 955 -87 q 979 -149 955 -125 q 1042 -174 1004 -174 l 1476 -174 q 1538 -149 1514 -174 q 1563 -87 1563 -125 l 1563 260 q 1538 323 1563 298 q 1476 347 1514 347 l 1476 477 q 1413 632 1473 570 q 1259 694 1351 692 q 1104 632 1166 692 q 1042 477 1044 570 l 1042 477 z "},"":{"ha":1042,"x_min":0,"x_max":1042,"o":"m 130 1215 q 38 1177 76 1213 l 38 1177 q 0 1085 3 1139 l 0 -43 q 38 -136 3 -98 q 130 -174 76 -171 l 391 -174 l 391 43 q 429 136 393 98 q 521 174 467 171 q 613 136 575 171 q 651 43 648 98 l 651 -174 l 911 -174 q 1004 -136 966 -171 q 1042 -43 1039 -98 l 1042 1085 q 1004 1177 1039 1139 q 911 1215 966 1213 l 130 1215 l 130 1215 m 174 564 q 217 608 176 605 l 304 608 q 347 564 345 605 l 347 477 q 304 434 345 437 l 217 434 q 174 477 176 437 l 174 564 l 174 564 m 477 608 l 564 608 q 608 564 605 605 l 608 477 q 564 434 605 437 l 477 434 q 434 477 437 437 l 434 564 q 477 608 437 605 l 477 608 m 694 564 q 738 608 697 605 l 825 608 q 868 564 865 605 l 868 477 q 825 434 865 437 l 738 434 q 694 477 697 437 l 694 564 l 694 564 m 456 1042 l 586 1042 q 629 998 627 1039 q 586 955 627 958 l 499 955 l 499 781 l 543 781 l 543 825 q 586 868 545 865 q 629 825 627 865 l 629 760 q 564 694 624 700 l 477 694 q 412 760 418 700 l 412 998 q 456 1042 415 1039 l 456 1042 m 825 955 q 781 911 784 952 l 781 825 q 825 781 784 784 q 868 825 865 784 l 868 911 q 825 955 865 952 l 825 955 m 694 911 q 732 1004 697 966 l 732 1004 q 825 1042 770 1039 q 917 1004 879 1039 q 955 911 952 966 l 955 825 q 917 732 952 770 q 825 694 879 697 q 732 732 770 697 q 694 825 697 770 l 694 911 l 694 911 m 165 1023 l 260 882 l 260 998 q 304 1042 263 1039 q 347 998 345 1039 l 347 738 q 317 697 345 708 q 269 713 285 689 l 174 854 l 174 738 q 130 694 171 697 q 87 738 90 697 l 87 998 q 117 1039 90 1028 q 165 1023 149 1047 l 165 1023 z "},"":{"ha":1563,"x_min":0,"x_max":1563,"o":"m 0 1085 q 38 1177 3 1139 l 38 1177 q 130 1215 76 1213 l 911 1215 q 1004 1177 966 1213 q 1042 1085 1039 1139 l 1042 654 l 928 608 l 825 608 l 738 608 q 694 564 697 605 l 694 477 l 694 412 l 694 391 q 694 385 694 388 q 694 382 694 385 q 754 109 697 260 q 963 -163 814 -43 q 911 -174 939 -174 l 651 -174 l 651 43 q 613 136 648 98 q 521 174 575 171 q 429 136 467 171 q 391 43 393 98 l 391 -174 l 130 -174 q 38 -136 76 -171 q 0 -43 3 -98 l 0 1085 l 0 1085 m 217 608 q 174 564 176 605 l 174 477 q 217 434 176 437 l 304 434 q 347 477 345 437 l 347 564 q 304 608 345 605 l 217 608 l 217 608 m 434 564 l 434 477 q 477 434 437 437 l 564 434 q 608 477 605 437 l 608 564 q 564 608 605 605 l 477 608 q 434 564 437 605 l 434 564 m 174 911 l 174 825 q 217 781 176 784 l 304 781 q 347 825 345 784 l 347 911 q 304 955 345 952 l 217 955 q 174 911 176 952 l 174 911 m 477 955 q 434 911 437 952 l 434 825 q 477 781 437 784 l 564 781 q 608 825 605 784 l 608 911 q 564 955 605 952 l 477 955 l 477 955 m 694 911 l 694 825 q 738 781 697 784 l 825 781 q 868 825 865 784 l 868 911 q 825 955 865 952 l 738 955 q 694 911 697 952 l 694 911 m 1147 602 q 1196 602 1172 613 l 1522 472 q 1563 412 1560 456 q 1533 212 1565 323 q 1424 -3 1503 100 q 1196 -168 1343 -106 q 1147 -168 1172 -179 q 920 -3 1001 -106 q 811 212 841 100 q 781 412 779 323 q 822 472 784 456 l 1147 602 l 1147 602 m 1430 369 l 1172 472 l 1172 -38 q 1367 149 1308 35 q 1430 369 1424 260 l 1430 369 z "},"":{"ha":1042,"x_min":0,"x_max":1042,"o":"m 130 1215 q 38 1177 76 1213 l 38 1177 q 0 1085 3 1139 l 0 -43 q 38 -136 3 -98 q 130 -174 76 -171 l 391 -174 l 391 43 q 429 136 393 98 q 521 174 467 171 q 613 136 575 171 q 651 43 648 98 l 651 -174 l 911 -174 q 1004 -136 966 -171 q 1042 -43 1039 -98 l 1042 1085 q 1004 1177 1039 1139 q 911 1215 966 1213 l 130 1215 l 130 1215 m 174 564 q 217 608 176 605 l 304 608 q 347 564 345 605 l 347 477 q 304 434 345 437 l 217 434 q 174 477 176 437 l 174 564 l 174 564 m 477 608 l 564 608 q 608 564 605 605 l 608 477 q 564 434 605 437 l 477 434 q 434 477 437 437 l 434 564 q 477 608 437 605 l 477 608 m 694 564 q 738 608 697 605 l 825 608 q 868 564 865 605 l 868 477 q 825 434 865 437 l 738 434 q 694 477 697 437 l 694 564 l 694 564 m 643 1023 l 738 882 l 738 998 q 781 1042 741 1039 q 825 998 822 1039 l 825 738 q 795 697 822 708 q 746 713 762 689 l 651 854 l 651 738 q 608 694 648 697 q 564 738 567 697 l 564 998 q 594 1039 567 1028 q 643 1023 627 1047 l 643 1023 m 304 998 l 304 825 q 347 781 307 784 q 391 825 388 784 l 391 998 q 434 1042 393 1039 q 477 998 475 1039 l 477 825 q 439 732 475 770 q 347 694 401 697 q 255 732 293 697 q 217 825 220 770 l 217 998 q 260 1042 220 1039 q 304 998 301 1039 l 304 998 z "},"":{"ha":1736,"x_min":0,"x_max":1736,"o":"m 130 1215 q 38 1177 76 1213 l 38 1177 q 0 1085 3 1139 l 0 -43 q 38 -136 3 -98 q 130 -174 76 -171 l 391 -174 l 391 43 q 429 136 393 98 q 521 174 467 171 q 613 136 575 171 q 651 43 648 98 l 651 -174 l 895 -174 q 868 -79 868 -130 q 917 95 868 19 q 1042 217 963 174 l 1042 477 l 1042 1085 q 1004 1177 1039 1139 q 911 1215 966 1213 l 130 1215 l 130 1215 m 174 564 q 217 608 176 605 l 304 608 q 347 564 345 605 l 347 477 q 304 434 345 437 l 217 434 q 174 477 176 437 l 174 564 l 174 564 m 477 608 l 564 608 q 608 564 605 605 l 608 477 q 564 434 605 437 l 477 434 q 434 477 437 437 l 434 564 q 477 608 437 605 l 477 608 m 694 564 q 738 608 697 605 l 825 608 q 868 564 865 605 l 868 477 q 825 434 865 437 l 738 434 q 694 477 697 437 l 694 564 l 694 564 m 217 955 l 304 955 q 347 911 345 952 l 347 825 q 304 781 345 784 l 217 781 q 174 825 176 784 l 174 911 q 217 955 176 952 l 217 955 m 434 911 q 477 955 437 952 l 564 955 q 608 911 605 952 l 608 825 q 564 781 605 784 l 477 781 q 434 825 437 784 l 434 911 l 434 911 m 738 955 l 825 955 q 868 911 865 952 l 868 825 q 825 781 865 784 l 738 781 q 694 825 697 784 l 694 911 q 738 955 697 952 l 738 955 m 1563 477 q 1500 632 1560 570 l 1500 632 q 1345 694 1438 692 q 1191 632 1253 692 q 1128 477 1131 570 q 1191 323 1131 385 q 1345 260 1253 263 q 1500 323 1438 263 q 1563 477 1560 385 l 1563 477 m 955 -79 q 982 -146 955 -119 l 982 -146 q 1050 -174 1009 -174 l 1641 -174 q 1709 -146 1682 -174 q 1736 -79 1736 -119 q 1663 100 1733 27 q 1484 174 1590 171 l 1207 174 q 1028 100 1101 171 q 955 -79 958 27 l 955 -79 z "},"":{"ha":1736,"x_min":0,"x_max":1736,"o":"m 0 1085 q 38 1177 3 1139 l 38 1177 q 130 1215 76 1213 l 911 1215 q 1004 1177 966 1213 q 1042 1085 1039 1139 l 1042 -43 q 1004 -136 1039 -98 q 911 -174 966 -171 l 651 -174 l 651 43 q 613 136 648 98 q 521 174 575 171 q 429 136 467 171 q 391 43 393 98 l 391 -174 l 130 -174 q 38 -136 76 -171 q 0 -43 3 -98 l 0 1085 l 0 1085 m 217 608 q 174 564 176 605 l 174 477 q 217 434 176 437 l 304 434 q 347 477 345 437 l 347 564 q 304 608 345 605 l 217 608 l 217 608 m 434 564 l 434 477 q 477 434 437 437 l 564 434 q 608 477 605 437 l 608 564 q 564 608 605 605 l 477 608 q 434 564 437 605 l 434 564 m 738 608 q 694 564 697 605 l 694 477 q 738 434 697 437 l 825 434 q 868 477 865 437 l 868 564 q 825 608 865 605 l 738 608 l 738 608 m 174 911 l 174 825 q 217 781 176 784 l 304 781 q 347 825 345 784 l 347 911 q 304 955 345 952 l 217 955 q 174 911 176 952 l 174 911 m 477 955 q 434 911 437 952 l 434 825 q 477 781 437 784 l 564 781 q 608 825 605 784 l 608 911 q 564 955 605 952 l 477 955 l 477 955 m 694 911 l 694 825 q 738 781 697 784 l 825 781 q 868 825 865 784 l 868 911 q 825 955 865 952 l 738 955 q 694 911 697 952 l 694 911 m 1736 694 l 1736 651 q 1674 496 1733 559 q 1519 434 1611 437 l 1476 434 l 1476 477 q 1538 632 1478 570 q 1693 694 1600 692 l 1736 694 l 1736 694 m 1736 347 q 1674 193 1733 255 l 1674 193 q 1519 130 1611 133 l 1476 130 l 1476 174 q 1538 328 1478 266 q 1693 391 1600 388 l 1736 391 l 1736 347 l 1736 347 m 1736 43 q 1674 -111 1733 -49 l 1674 -111 q 1519 -174 1611 -171 l 1476 -174 l 1476 -130 q 1538 24 1478 -38 q 1693 87 1600 84 l 1736 87 l 1736 43 l 1736 43 m 1389 -130 l 1389 -174 l 1345 -174 q 1191 -111 1253 -171 q 1128 43 1131 -49 l 1128 87 l 1172 87 q 1326 24 1264 84 q 1389 -130 1386 -38 l 1389 -130 m 1389 130 l 1345 130 q 1191 193 1253 133 q 1128 347 1131 255 l 1128 391 l 1172 391 q 1326 328 1264 388 q 1389 174 1386 266 l 1389 130 l 1389 130 m 1389 477 l 1389 434 l 1345 434 q 1191 496 1253 437 q 1128 651 1131 559 l 1128 694 l 1172 694 q 1326 632 1264 692 q 1389 477 1386 570 l 1389 477 m 1432 1128 q 1497 1063 1492 1123 l 1497 781 q 1432 716 1492 722 q 1367 781 1373 722 l 1367 1063 q 1432 1128 1373 1123 l 1432 1128 m 1693 955 l 1693 868 q 1628 803 1687 808 q 1563 868 1568 808 l 1563 955 q 1628 1020 1568 1015 q 1693 955 1687 1015 l 1693 955 m 1237 1020 q 1302 955 1297 1015 l 1302 868 q 1237 803 1297 808 q 1172 868 1177 808 l 1172 955 q 1237 1020 1177 1015 l 1237 1020 z "},"":{"ha":1389,"x_min":0,"x_max":1389,"o":"m 103 1204 q 19 1196 57 1229 q 11 1112 -14 1158 l 315 670 l 46 583 q 0 521 3 567 q 46 458 3 475 l 326 369 l 182 95 q 193 19 163 54 q 269 8 228 -11 l 543 152 l 632 -127 q 694 -174 648 -171 q 757 -127 741 -171 l 846 152 l 1120 8 q 1196 19 1161 -11 q 1207 95 1226 54 l 1063 369 l 1343 458 q 1389 521 1386 475 q 1343 583 1386 567 l 1055 675 l 1126 868 q 1109 936 1137 906 q 1042 952 1080 963 l 849 882 l 757 1169 q 694 1215 741 1213 q 632 1169 648 1213 l 545 901 l 103 1204 l 103 1204 z "},"":{"ha":1389,"x_min":87,"x_max":1302,"o":"m 760 1150 q 694 1215 754 1210 q 629 1150 635 1210 l 629 933 q 694 868 635 873 q 760 933 754 873 l 760 1150 l 760 1150 m 505 608 l 884 608 q 925 578 914 605 l 977 434 l 412 434 l 464 578 q 505 608 475 605 l 505 608 m 301 637 l 222 423 q 130 282 136 382 l 130 174 l 130 0 l 130 -87 q 155 -149 130 -125 q 217 -174 179 -174 l 260 -174 q 323 -149 298 -174 q 347 -87 347 -125 l 347 0 l 1042 0 l 1042 -87 q 1066 -149 1042 -125 q 1128 -174 1090 -174 l 1172 -174 q 1234 -149 1210 -174 q 1259 -87 1259 -125 l 1259 0 l 1259 174 l 1259 282 q 1166 423 1253 382 l 1090 637 q 1009 741 1063 703 q 884 781 955 781 l 505 781 q 380 741 434 781 q 301 637 323 703 l 301 637 m 347 152 q 282 217 288 157 q 347 282 288 277 q 412 217 407 277 q 347 152 407 157 l 347 152 m 1107 217 q 1042 152 1101 157 q 977 217 982 157 q 1042 282 982 277 q 1107 217 1101 277 l 1107 217 m 106 1109 q 106 1017 68 1063 l 236 887 q 328 887 282 849 q 328 979 366 933 l 198 1109 q 106 1109 152 1147 l 106 1109 m 1191 1109 l 1061 979 q 1061 887 1023 933 q 1153 887 1107 849 l 1283 1017 q 1283 1109 1321 1063 q 1191 1109 1237 1147 l 1191 1109 z "},"":{"ha":1389,"x_min":0,"x_max":1389,"o":"m 694 1215 q 345 1120 499 1213 l 345 1120 q 95 871 187 1028 l 95 871 q 0 521 3 716 l 0 0 q 52 -122 3 -73 q 174 -174 100 -171 l 347 -174 l 1042 -174 l 1215 -174 q 1337 -122 1289 -171 q 1389 0 1386 -73 l 1389 521 q 1294 871 1386 716 q 1044 1120 1202 1028 q 694 1215 890 1213 l 694 1215 m 1042 -174 q 979 -149 1004 -174 l 979 -149 q 955 -87 955 -125 l 955 0 l 434 0 l 434 -87 q 410 -149 434 -125 q 347 -174 385 -174 q 285 -149 309 -174 q 260 -87 260 -125 l 260 195 q 336 328 263 285 l 393 502 q 448 578 410 551 q 537 608 488 608 l 852 608 q 941 578 901 608 q 996 502 979 551 l 1053 328 q 1128 195 1126 285 l 1128 -87 q 1104 -149 1128 -125 q 1042 -174 1080 -174 l 1042 -174 m 518 461 l 480 347 l 909 347 l 871 461 q 852 477 865 477 l 537 477 q 518 461 524 477 l 518 461 m 456 109 q 521 174 515 114 q 456 239 515 233 q 391 174 396 233 q 456 109 396 114 l 456 109 m 998 174 q 933 239 993 233 q 868 174 873 233 q 933 109 873 114 q 998 174 993 114 l 998 174 z "},"":{"ha":1563,"x_min":87,"x_max":1476,"o":"m 477 868 q 600 920 551 871 l 600 920 q 651 1042 648 968 q 600 1164 648 1115 q 477 1215 551 1213 q 355 1164 404 1213 q 304 1042 307 1115 q 355 920 307 968 q 477 868 404 871 l 477 868 m 456 -87 l 456 260 l 499 260 l 499 -87 q 524 -149 499 -125 q 586 -174 548 -174 q 648 -149 624 -174 q 673 -87 673 -125 l 673 399 l 708 345 q 762 307 727 315 q 827 317 795 298 q 865 372 857 339 q 854 437 873 404 l 713 659 q 494 781 635 779 l 461 781 q 241 659 320 779 l 100 437 q 90 372 81 404 q 127 317 98 336 q 193 307 160 298 q 247 345 225 315 l 282 399 l 282 -87 q 307 -149 282 -125 q 369 -174 331 -174 q 431 -149 407 -174 q 456 -87 456 -125 l 456 -87 m 1215 1215 l 1172 1215 l 1128 1215 q 1085 1172 1088 1213 q 1128 1128 1088 1131 l 1128 857 q 1085 781 1088 833 l 1085 694 q 1023 670 1047 694 q 998 608 998 646 l 998 217 q 1023 155 998 179 q 1085 130 1047 130 l 1128 130 l 1128 -130 q 1172 -174 1131 -171 l 1335 -174 q 1375 -119 1381 -168 l 1313 130 l 1432 130 q 1476 174 1473 133 l 1476 217 q 1432 260 1473 258 l 1302 260 l 1302 334 l 1446 380 q 1476 423 1473 391 l 1476 651 q 1432 694 1473 692 l 1389 694 q 1345 651 1348 692 l 1345 499 l 1302 486 l 1302 781 q 1259 857 1299 833 l 1259 1172 q 1215 1215 1256 1213 l 1215 1215 z "},"":{"ha":1736,"x_min":0,"x_max":1690,"o":"m 434 868 q 312 920 361 871 l 312 920 q 260 1042 263 968 q 312 1164 263 1115 q 434 1215 361 1213 q 556 1164 507 1213 q 608 1042 605 1115 q 556 920 605 968 q 434 868 507 871 l 434 868 m 239 -87 l 239 130 l 190 130 q 155 149 168 130 q 149 187 144 165 l 233 439 l 157 339 q 98 304 133 309 q 35 320 65 301 q 0 380 5 345 q 19 442 -3 412 l 176 654 q 434 781 277 779 q 692 654 591 779 l 852 442 q 868 380 871 412 q 833 320 863 345 q 770 304 803 301 q 713 339 735 309 l 635 439 l 719 187 q 713 149 724 165 q 678 130 700 130 l 629 130 l 629 -87 q 605 -149 629 -125 q 543 -174 581 -174 q 480 -149 505 -174 q 456 -87 456 -125 l 456 130 l 412 130 l 412 -87 q 388 -149 412 -125 q 326 -174 363 -174 q 263 -149 288 -174 q 239 -87 239 -125 l 239 -87 m 1302 868 q 1180 920 1229 871 l 1180 920 q 1128 1042 1131 968 q 1180 1164 1131 1115 q 1302 1215 1229 1213 q 1424 1164 1375 1213 q 1476 1042 1473 1115 q 1424 920 1473 968 q 1302 868 1375 871 l 1302 868 m 1280 174 l 1280 -87 q 1256 -149 1280 -125 q 1194 -174 1232 -174 q 1131 -149 1156 -174 q 1107 -87 1107 -125 l 1107 399 l 1072 345 q 1017 307 1053 315 q 952 317 985 298 q 914 372 922 339 q 925 437 906 404 l 1066 659 q 1286 781 1145 779 l 1318 781 q 1538 659 1459 779 l 1679 437 q 1690 372 1698 404 q 1652 317 1682 336 q 1587 307 1619 298 q 1533 345 1554 315 l 1497 399 l 1497 -87 q 1473 -149 1497 -125 q 1411 -174 1449 -174 q 1348 -149 1373 -174 q 1324 -87 1324 -125 l 1324 174 l 1280 174 l 1280 174 z "},"":{"ha":1389,"x_min":0,"x_max":1302,"o":"m 1134 787 q 1253 863 1207 806 l 1253 863 q 1302 998 1299 920 q 1240 1153 1299 1090 q 1085 1215 1177 1213 q 933 1153 996 1213 q 868 1006 873 1096 l 369 806 q 217 868 309 865 q 62 806 125 865 q 0 651 3 743 q 62 496 3 559 q 217 434 125 437 q 309 456 266 434 l 705 109 q 694 43 694 79 q 757 -111 697 -49 q 911 -174 819 -171 q 1066 -111 1004 -171 q 1128 43 1126 -49 q 1034 222 1123 160 l 1134 787 l 1134 787 m 423 586 q 434 643 434 613 l 933 844 q 963 817 947 830 l 863 255 q 819 239 838 250 l 423 586 l 423 586 z "},"":{"ha":1042,"x_min":0,"x_max":1042,"o":"m 521 1215 q 369 1166 434 1213 l 369 1166 q 277 1042 304 1118 l 174 1042 q 52 990 100 1039 q 0 868 3 941 l 0 0 q 52 -122 3 -73 q 174 -174 100 -171 l 868 -174 q 990 -122 941 -171 q 1042 0 1039 -73 l 1042 868 q 990 990 1039 941 q 868 1042 941 1039 l 768 1042 q 673 1166 738 1118 q 521 1215 608 1213 l 521 1215 m 521 1042 q 597 998 572 1039 l 597 998 q 597 911 618 958 q 521 868 570 871 q 445 911 469 871 q 445 998 423 952 q 521 1042 472 1039 l 521 1042 m 288 594 q 342 667 304 640 l 342 667 q 431 694 380 694 l 589 694 q 711 643 662 692 q 760 524 757 597 q 673 374 757 426 l 586 326 q 521 260 581 266 q 456 326 461 266 l 456 361 q 488 418 456 399 l 608 488 q 629 524 629 499 q 589 564 627 562 l 431 564 q 410 551 415 564 l 410 545 q 326 507 382 491 q 288 589 271 532 l 288 594 l 288 594 m 434 87 q 477 163 437 138 l 477 163 q 564 163 518 184 q 608 87 605 136 q 564 11 605 35 q 477 11 524 -11 q 434 87 437 38 l 434 87 z "},"":{"ha":1563,"x_min":0,"x_max":1560,"o":"m 608 1215 q 749 1172 686 1215 l 749 1172 q 844 1063 811 1131 q 998 1128 906 1126 q 1137 1080 1080 1126 q 1210 955 1194 1031 l 1215 955 q 1337 903 1289 952 q 1389 781 1386 854 q 1337 659 1386 708 q 1215 608 1289 610 l 347 608 q 225 659 274 610 q 174 781 176 708 q 225 903 176 854 q 347 955 274 952 q 423 1139 350 1066 q 608 1215 496 1213 l 608 1215 m 382 423 l 252 206 q 163 182 217 157 q 141 271 114 220 l 271 488 q 358 513 307 537 q 382 423 407 475 l 382 423 m 1270 513 q 1294 423 1318 477 l 1164 206 q 1074 182 1128 157 q 1053 271 1025 220 l 1183 488 q 1270 513 1218 537 l 1270 513 m 686 423 l 556 206 q 467 182 521 157 q 445 271 418 220 l 575 488 q 662 513 610 537 q 686 423 711 475 l 686 423 m 966 513 q 990 423 1015 477 l 860 206 q 770 182 825 157 q 749 271 722 220 l 879 488 q 966 513 914 537 l 966 513 m 833 71 q 1042 0 928 3 q 1251 71 1156 5 l 1251 71 q 1359 65 1308 106 q 1495 -3 1419 16 q 1549 -41 1530 -11 q 1560 -106 1568 -71 q 1522 -160 1552 -141 q 1457 -171 1492 -179 q 1299 -103 1354 -144 q 1042 -174 1177 -171 q 825 -122 909 -165 q 781 -100 800 -111 q 738 -122 762 -111 q 521 -174 654 -165 q 266 -103 385 -171 q 106 -171 209 -144 q 41 -160 71 -179 q 3 -106 11 -141 q 14 -41 -5 -71 q 68 -3 33 -11 q 203 65 144 16 q 312 71 255 103 l 312 71 q 521 0 407 5 q 732 71 637 3 q 833 71 781 103 l 833 71 z "}}}
